<svg width="42" height="42" viewBox="0 0 42 42" fill="none" xmlns="http://www.w3.org/2000/svg">
<path d="M26.0835 1.75C29.0079 6.04056 28.4392 13.1108 26.1844 18.3906C26.2511 15.3124 25.8162 11.8539 24.698 8.16673C25.4822 16.8842 18.5865 26.7371 15.3828 22.6307C13.8271 20.6362 13.2667 14.7523 15.9964 10.4474C14.3263 11.4997 13.0339 13.278 12.2187 15.3987C7.9083 23.6301 11.0124 33.3102 20.961 33.3102C33.6287 33.3102 41.4363 12.7606 26.0835 1.75016V1.75ZM19.1031 10.4196C18.1556 10.5408 17.0876 11.565 16.3549 13.2885C15.2063 15.9906 15.2504 19.4028 16.4074 20.9104C17.275 22.0412 18.5152 21.8041 19.5802 20.4621L19.5805 20.4617C19.9356 20.0147 20.277 19.4487 20.5641 18.7729C20.5731 18.7514 20.5642 18.7222 20.5733 18.7007C19.6793 19.687 18.6601 19.857 17.9478 18.9289C16.9327 17.6061 16.9339 14.5872 17.9417 12.2161C18.2743 11.4335 18.6777 10.8478 19.1031 10.4196ZM30.7099 17.0342C29.7341 31.9103 16.2855 32.4348 14.021 25.7919H14.0212C18.2214 28.606 23.1297 26.4691 24.5961 20.8347L25.0918 25.0482C27.64 22.6523 29.1134 20.9171 30.7099 17.0342ZM8.77143 29.3822C4.6574 30.5001 2 32.156 2 33.9927C2 37.3575 10.7381 40.0919 21.4984 40.0919C32.2586 40.0919 40.9969 37.3575 40.9969 33.9929C40.9969 32.1626 38.3621 30.5 34.2733 29.3822C35.6867 30.1107 36.5306 30.9613 36.5306 31.8797C36.5306 34.5153 29.7784 36.6823 21.4983 36.6823C13.2184 36.6823 6.51451 34.5152 6.51451 31.8797C6.51451 30.9567 7.34384 30.1131 8.77176 29.3824H8.77143V29.3822Z" fill="#C4B5FD"/>
</svg>
