<svg width="42" height="42" viewBox="0 0 42 42" fill="none" xmlns="http://www.w3.org/2000/svg">
<path d="M11.1222 11.1222L30.8778 30.8778M11.1222 30.8778L30.8778 11.1222M7 21C7 22.8385 7.36212 24.659 8.06569 26.3576C8.76925 28.0561 9.80048 29.5995 11.1005 30.8995C12.4005 32.1995 13.9439 33.2307 15.6424 33.9343C17.341 34.6379 19.1615 35 21 35C22.8385 35 24.659 34.6379 26.3576 33.9343C28.0561 33.2307 29.5995 32.1995 30.8995 30.8995C32.1995 29.5995 33.2307 28.0561 33.9343 26.3576C34.6379 24.659 35 22.8385 35 21C35 19.1615 34.6379 17.341 33.9343 15.6424C33.2307 13.9439 32.1995 12.4005 30.8995 11.1005C29.5995 9.80048 28.0561 8.76925 26.3576 8.06569C24.659 7.36212 22.8385 7 21 7C19.1615 7 17.341 7.36212 15.6424 8.06569C13.9439 8.76925 12.4005 9.80048 11.1005 11.1005C9.80048 12.4005 8.76925 13.9439 8.06569 15.6424C7.36212 17.341 7 19.1615 7 21Z" stroke="#C4B5FD" stroke-width="2" stroke-linecap="round" stroke-linejoin="round"/>
<path d="M21 7C21 10.713 22.475 14.274 25.1005 16.8995C27.726 19.525 31.287 21 35 21M7 21C10.713 21 14.274 22.475 16.8995 25.1005C19.525 27.726 21 31.287 21 35" stroke="#C4B5FD" stroke-width="2" stroke-linecap="round" stroke-linejoin="round"/>
</svg>
