<svg width="40" height="45" viewBox="0 0 40 45" fill="none" xmlns="http://www.w3.org/2000/svg">
<g filter="url(#filter0_ddd_1494_20894)">
<path d="M16.9299 2.5501L23.5924 13.9313L14.1924 16.6032C7.7002 14.4579 3.87676 10.3282 1.57051 6.08447C0.598637 4.29385 0.606449 1.00635 4.47051 1.00635H14.233C14.7783 1.00625 15.3141 1.14883 15.7872 1.41993C16.2603 1.69102 16.6543 2.07962 16.9299 2.5501Z" fill="#4686EC"/>
<path d="M16.9299 2.5501L23.5924 13.9313L14.1924 16.6032C7.7002 14.4579 3.87676 10.3282 1.57051 6.08447C0.598637 4.29385 0.606449 1.00635 4.47051 1.00635H14.233C14.7783 1.00625 15.3141 1.14883 15.7872 1.41993C16.2603 1.69102 16.6543 2.07962 16.9299 2.5501Z" fill="url(#paint0_radial_1494_20894)"/>
<path d="M16.9299 2.5501L23.5924 13.9313L14.1924 16.6032C7.7002 14.4579 3.87676 10.3282 1.57051 6.08447C0.598637 4.29385 0.606449 1.00635 4.47051 1.00635H14.233C14.7783 1.00625 15.3141 1.14883 15.7872 1.41993C16.2603 1.69102 16.6543 2.07962 16.9299 2.5501Z" fill="url(#paint1_linear_1494_20894)"/>
</g>
<g filter="url(#filter1_ddd_1494_20894)">
<path d="M22.8314 2.5502L16.1689 13.9314L25.5689 16.6033C32.0611 14.4564 35.8846 10.3268 38.1908 6.08301C39.1627 4.29238 39.1549 1.00488 35.2908 1.00488H25.5283C24.983 1.00479 24.4472 1.14737 23.9741 1.41846C23.501 1.68955 23.1071 2.07972 22.8314 2.5502Z" fill="#4686EC"/>
<path d="M22.8314 2.5502L16.1689 13.9314L25.5689 16.6033C32.0611 14.4564 35.8846 10.3268 38.1908 6.08301C39.1627 4.29238 39.1549 1.00488 35.2908 1.00488H25.5283C24.983 1.00479 24.4472 1.14737 23.9741 1.41846C23.501 1.68955 23.1071 2.07972 22.8314 2.5502Z" fill="url(#paint2_radial_1494_20894)"/>
<path d="M22.8314 2.5502L16.1689 13.9314L25.5689 16.6033C32.0611 14.4564 35.8846 10.3268 38.1908 6.08301C39.1627 4.29238 39.1549 1.00488 35.2908 1.00488H25.5283C24.983 1.00479 24.4472 1.14737 23.9741 1.41846C23.501 1.68955 23.1071 2.07972 22.8314 2.5502Z" fill="url(#paint3_linear_1494_20894)"/>
</g>
<path d="M22.8314 2.5502L16.1689 13.9314L25.5689 16.6033C32.0611 14.4564 35.8846 10.3268 38.1908 6.08301C39.1627 4.29238 39.1549 1.00488 35.2908 1.00488H25.5283C24.983 1.00479 24.4472 1.14737 23.9741 1.41846C23.501 1.68955 23.1071 2.07972 22.8314 2.5502Z" fill="url(#paint4_linear_1494_20894)"/>
<path d="M20.0735 44.1563C28.7444 44.1563 35.7735 37.1272 35.7735 28.4563C35.7735 19.7855 28.7444 12.7563 20.0735 12.7563C11.4027 12.7563 4.37354 19.7855 4.37354 28.4563C4.37354 37.1272 11.4027 44.1563 20.0735 44.1563Z" fill="url(#paint5_linear_1494_20894)"/>
<path d="M20.0735 44.1563C28.7444 44.1563 35.7735 37.1272 35.7735 28.4563C35.7735 19.7855 28.7444 12.7563 20.0735 12.7563C11.4027 12.7563 4.37354 19.7855 4.37354 28.4563C4.37354 37.1272 11.4027 44.1563 20.0735 44.1563Z" fill="url(#paint6_linear_1494_20894)"/>
<path d="M20.0735 42.0313C27.5708 42.0313 33.6485 35.9536 33.6485 28.4563C33.6485 20.9591 27.5708 14.8813 20.0735 14.8813C12.5763 14.8813 6.49854 20.9591 6.49854 28.4563C6.49854 35.9536 12.5763 42.0313 20.0735 42.0313Z" fill="url(#paint7_linear_1494_20894)"/>
<path d="M20.0737 40.3081C26.6192 40.3081 31.9253 35.002 31.9253 28.4565C31.9253 21.9111 26.6192 16.605 20.0737 16.605C13.5283 16.605 8.22217 21.9111 8.22217 28.4565C8.22217 35.002 13.5283 40.3081 20.0737 40.3081Z" fill="url(#paint8_linear_1494_20894)"/>
<path d="M20.0737 40.3081C26.6192 40.3081 31.9253 35.002 31.9253 28.4565C31.9253 21.9111 26.6192 16.605 20.0737 16.605C13.5283 16.605 8.22217 21.9111 8.22217 28.4565C8.22217 35.002 13.5283 40.3081 20.0737 40.3081Z" fill="url(#paint9_radial_1494_20894)"/>
<path d="M20.0737 40.3081C26.6192 40.3081 31.9253 35.002 31.9253 28.4565C31.9253 21.9111 26.6192 16.605 20.0737 16.605C13.5283 16.605 8.22217 21.9111 8.22217 28.4565C8.22217 35.002 13.5283 40.3081 20.0737 40.3081Z" fill="url(#paint10_radial_1494_20894)"/>
<path d="M20.0737 40.3081C26.6192 40.3081 31.9253 35.002 31.9253 28.4565C31.9253 21.9111 26.6192 16.605 20.0737 16.605C13.5283 16.605 8.22217 21.9111 8.22217 28.4565C8.22217 35.002 13.5283 40.3081 20.0737 40.3081Z" fill="url(#paint11_radial_1494_20894)"/>
<g filter="url(#filter2_ddd_1494_20894)">
<path d="M22.2815 26.1797L23.9159 23.3516C24.0485 23.1193 24.1183 22.8565 24.1183 22.5891C24.1183 22.3216 24.0485 22.0588 23.9159 21.8266C23.7833 21.5943 23.5915 21.4013 23.3602 21.2671C23.1289 21.1329 22.8661 21.0623 22.5987 21.0625H17.7659C17.3612 21.0625 16.9731 21.2233 16.687 21.5094C16.4008 21.7955 16.2401 22.1836 16.2401 22.5883C16.2401 22.9929 16.4008 23.381 16.687 23.6672C16.9731 23.9533 17.3612 24.1141 17.7659 24.1141H19.2846C19.353 24.1141 19.4202 24.1321 19.4795 24.1662C19.5388 24.2004 19.588 24.2495 19.6224 24.3086C19.6567 24.3678 19.6749 24.435 19.6751 24.5034C19.6753 24.5718 19.6576 24.639 19.6237 24.6984L18.7831 26.1641C18.5681 26.4294 18.4502 26.7601 18.4487 27.1016C18.4487 27.9437 19.1331 28.6266 19.9752 28.6266C20.9284 28.6266 21.7065 29.4047 21.7065 30.3578C21.7065 31.3109 20.9284 32.0906 19.9752 32.0906C19.6198 32.0911 19.273 31.9813 18.9826 31.7765C18.6921 31.5717 18.4723 31.2818 18.3534 30.9469C18.2173 30.5687 17.9373 30.2597 17.5744 30.087C17.2115 29.9143 16.7951 29.892 16.4159 30.025C16.2275 30.0908 16.0541 30.1933 15.9055 30.3266C15.757 30.4599 15.6364 30.6212 15.5507 30.8014C15.465 30.9816 15.4158 31.177 15.4061 31.3763C15.3964 31.5756 15.4262 31.7748 15.494 31.9625C15.8261 32.8855 16.4341 33.684 17.2354 34.2498C18.0368 34.8155 18.9928 35.1211 19.9737 35.125C21.2375 35.1242 22.4493 34.6219 23.3431 33.7284C24.2369 32.8349 24.7396 31.6232 24.7409 30.3594C24.7388 29.5067 24.5095 28.67 24.0767 27.9354C23.6439 27.2008 23.0232 26.5948 22.2784 26.1797H22.2815Z" fill="#6C3F48"/>
</g>
<defs>
<filter id="filter0_ddd_1494_20894" x="0.281738" y="0.406348" width="23.9105" height="16.9467" filterUnits="userSpaceOnUse" color-interpolation-filters="sRGB">
<feFlood flood-opacity="0" result="BackgroundImageFix"/>
<feColorMatrix in="SourceAlpha" type="matrix" values="0 0 0 0 0 0 0 0 0 0 0 0 0 0 0 0 0 0 127 0" result="hardAlpha"/>
<feOffset dx="-0.2" dy="-0.2"/>
<feGaussianBlur stdDeviation="0.2"/>
<feComposite in2="hardAlpha" operator="out"/>
<feColorMatrix type="matrix" values="0 0 0 0 0.317647 0 0 0 0 0.458824 0 0 0 0 0.886275 0 0 0 1 0"/>
<feBlend mode="normal" in2="BackgroundImageFix" result="effect1_dropShadow_1494_20894"/>
<feColorMatrix in="SourceAlpha" type="matrix" values="0 0 0 0 0 0 0 0 0 0 0 0 0 0 0 0 0 0 127 0" result="hardAlpha"/>
<feOffset dx="0.2" dy="0.2"/>
<feGaussianBlur stdDeviation="0.2"/>
<feComposite in2="hardAlpha" operator="out"/>
<feColorMatrix type="matrix" values="0 0 0 0 0.317647 0 0 0 0 0.458824 0 0 0 0 0.886275 0 0 0 1 0"/>
<feBlend mode="normal" in2="effect1_dropShadow_1494_20894" result="effect2_dropShadow_1494_20894"/>
<feColorMatrix in="SourceAlpha" type="matrix" values="0 0 0 0 0 0 0 0 0 0 0 0 0 0 0 0 0 0 127 0" result="hardAlpha"/>
<feOffset dx="-0.25" dy="0.25"/>
<feGaussianBlur stdDeviation="0.25"/>
<feComposite in2="hardAlpha" operator="out"/>
<feColorMatrix type="matrix" values="0 0 0 0 0.372549 0 0 0 0 0.607843 0 0 0 0 0.960784 0 0 0 1 0"/>
<feBlend mode="normal" in2="effect2_dropShadow_1494_20894" result="effect3_dropShadow_1494_20894"/>
<feBlend mode="normal" in="SourceGraphic" in2="effect3_dropShadow_1494_20894" result="shape"/>
</filter>
<filter id="filter1_ddd_1494_20894" x="15.4189" y="0.404883" width="23.9105" height="16.9486" filterUnits="userSpaceOnUse" color-interpolation-filters="sRGB">
<feFlood flood-opacity="0" result="BackgroundImageFix"/>
<feColorMatrix in="SourceAlpha" type="matrix" values="0 0 0 0 0 0 0 0 0 0 0 0 0 0 0 0 0 0 127 0" result="hardAlpha"/>
<feOffset dx="-0.2" dy="-0.2"/>
<feGaussianBlur stdDeviation="0.2"/>
<feComposite in2="hardAlpha" operator="out"/>
<feColorMatrix type="matrix" values="0 0 0 0 0.317647 0 0 0 0 0.458824 0 0 0 0 0.886275 0 0 0 1 0"/>
<feBlend mode="normal" in2="BackgroundImageFix" result="effect1_dropShadow_1494_20894"/>
<feColorMatrix in="SourceAlpha" type="matrix" values="0 0 0 0 0 0 0 0 0 0 0 0 0 0 0 0 0 0 127 0" result="hardAlpha"/>
<feOffset dx="0.2" dy="0.2"/>
<feGaussianBlur stdDeviation="0.2"/>
<feComposite in2="hardAlpha" operator="out"/>
<feColorMatrix type="matrix" values="0 0 0 0 0.317647 0 0 0 0 0.458824 0 0 0 0 0.886275 0 0 0 1 0"/>
<feBlend mode="normal" in2="effect1_dropShadow_1494_20894" result="effect2_dropShadow_1494_20894"/>
<feColorMatrix in="SourceAlpha" type="matrix" values="0 0 0 0 0 0 0 0 0 0 0 0 0 0 0 0 0 0 127 0" result="hardAlpha"/>
<feOffset dx="-0.25" dy="0.25"/>
<feGaussianBlur stdDeviation="0.25"/>
<feComposite in2="hardAlpha" operator="out"/>
<feColorMatrix type="matrix" values="0 0 0 0 0.372549 0 0 0 0 0.607843 0 0 0 0 0.960784 0 0 0 1 0"/>
<feBlend mode="normal" in2="effect2_dropShadow_1494_20894" result="effect3_dropShadow_1494_20894"/>
<feBlend mode="normal" in="SourceGraphic" in2="effect3_dropShadow_1494_20894" result="shape"/>
</filter>
<filter id="filter2_ddd_1494_20894" x="14.5043" y="20.4625" width="10.8364" height="15.5625" filterUnits="userSpaceOnUse" color-interpolation-filters="sRGB">
<feFlood flood-opacity="0" result="BackgroundImageFix"/>
<feColorMatrix in="SourceAlpha" type="matrix" values="0 0 0 0 0 0 0 0 0 0 0 0 0 0 0 0 0 0 127 0" result="hardAlpha"/>
<feOffset dx="-0.3" dy="0.3"/>
<feGaussianBlur stdDeviation="0.3"/>
<feComposite in2="hardAlpha" operator="out"/>
<feColorMatrix type="matrix" values="0 0 0 0 0.270588 0 0 0 0 0.113725 0 0 0 0 0.0745098 0 0 0 1 0"/>
<feBlend mode="normal" in2="BackgroundImageFix" result="effect1_dropShadow_1494_20894"/>
<feColorMatrix in="SourceAlpha" type="matrix" values="0 0 0 0 0 0 0 0 0 0 0 0 0 0 0 0 0 0 127 0" result="hardAlpha"/>
<feOffset dx="0.2" dy="-0.2"/>
<feGaussianBlur stdDeviation="0.2"/>
<feComposite in2="hardAlpha" operator="out"/>
<feColorMatrix type="matrix" values="0 0 0 0 0.490196 0 0 0 0 0.352941 0 0 0 0 0.321569 0 0 0 1 0"/>
<feBlend mode="normal" in2="effect1_dropShadow_1494_20894" result="effect2_dropShadow_1494_20894"/>
<feColorMatrix in="SourceAlpha" type="matrix" values="0 0 0 0 0 0 0 0 0 0 0 0 0 0 0 0 0 0 127 0" result="hardAlpha"/>
<feOffset dx="0.2" dy="0.2"/>
<feGaussianBlur stdDeviation="0.2"/>
<feComposite in2="hardAlpha" operator="out"/>
<feColorMatrix type="matrix" values="0 0 0 0 0.270588 0 0 0 0 0.113725 0 0 0 0 0.0745098 0 0 0 1 0"/>
<feBlend mode="normal" in2="effect2_dropShadow_1494_20894" result="effect3_dropShadow_1494_20894"/>
<feBlend mode="normal" in="SourceGraphic" in2="effect3_dropShadow_1494_20894" result="shape"/>
</filter>
<radialGradient id="paint0_radial_1494_20894" cx="0" cy="0" r="1" gradientUnits="userSpaceOnUse" gradientTransform="translate(15.4746 15.502) rotate(-123.321) scale(7.193 26.863)">
<stop stop-color="#3669D9"/>
<stop offset="1" stop-color="#3669D9" stop-opacity="0"/>
</radialGradient>
<linearGradient id="paint1_linear_1494_20894" x1="5.28457" y1="0.161035" x2="8.08926" y2="7.14541" gradientUnits="userSpaceOnUse">
<stop stop-color="#3D89EC"/>
<stop offset="1" stop-color="#3D89EC" stop-opacity="0"/>
</linearGradient>
<radialGradient id="paint2_radial_1494_20894" cx="0" cy="0" r="1" gradientUnits="userSpaceOnUse" gradientTransform="translate(24.2877 15.5033) rotate(-57.2649) scale(4.76359 10.4489)">
<stop stop-color="#3669D9"/>
<stop offset="1" stop-color="#3669D9" stop-opacity="0"/>
</radialGradient>
<linearGradient id="paint3_linear_1494_20894" x1="34.4768" y1="0.161132" x2="31.6721" y2="7.14551" gradientUnits="userSpaceOnUse">
<stop stop-color="#3D89EC"/>
<stop offset="1" stop-color="#3D89EC" stop-opacity="0"/>
</linearGradient>
<linearGradient id="paint4_linear_1494_20894" x1="19.608" y1="8.03613" x2="20.1346" y2="8.32832" gradientUnits="userSpaceOnUse">
<stop stop-color="#1A6DD8"/>
<stop offset="1" stop-color="#1A6DD8" stop-opacity="0"/>
</linearGradient>
<linearGradient id="paint5_linear_1494_20894" x1="32.1829" y1="20.3407" x2="17.5782" y2="33.6938" gradientUnits="userSpaceOnUse">
<stop stop-color="#F6BC7F"/>
<stop offset="1" stop-color="#A76740"/>
</linearGradient>
<linearGradient id="paint6_linear_1494_20894" x1="14.5876" y1="44.9188" x2="18.1282" y2="24.386" gradientUnits="userSpaceOnUse">
<stop stop-color="#B05B5B"/>
<stop offset="1" stop-color="#B05B5B" stop-opacity="0"/>
</linearGradient>
<linearGradient id="paint7_linear_1494_20894" x1="32.4423" y1="26.0829" x2="20.0735" y2="26.0829" gradientUnits="userSpaceOnUse">
<stop stop-color="#CD8858"/>
<stop offset="1" stop-color="#D28D59"/>
</linearGradient>
<linearGradient id="paint8_linear_1494_20894" x1="12.6347" y1="31.5362" x2="32.3581" y2="25.5675" gradientUnits="userSpaceOnUse">
<stop stop-color="#D38E5F"/>
<stop offset="1" stop-color="#BE794E"/>
</linearGradient>
<radialGradient id="paint9_radial_1494_20894" cx="0" cy="0" r="1" gradientUnits="userSpaceOnUse" gradientTransform="translate(24.5713 26.6601) rotate(156.644) scale(17.8078 15.1742)">
<stop offset="0.837" stop-color="#E5AC75" stop-opacity="0"/>
<stop offset="1" stop-color="#E5AC75"/>
</radialGradient>
<radialGradient id="paint10_radial_1494_20894" cx="0" cy="0" r="1" gradientUnits="userSpaceOnUse" gradientTransform="translate(18.56 29.8617) rotate(-41.294) scale(14.0062 13.4487)">
<stop offset="0.91" stop-color="#B36441" stop-opacity="0"/>
<stop offset="1" stop-color="#B36441"/>
</radialGradient>
<radialGradient id="paint11_radial_1494_20894" cx="0" cy="0" r="1" gradientUnits="userSpaceOnUse" gradientTransform="translate(19.7315 27.469) rotate(37.9308) scale(13.1859 14.9427)">
<stop offset="0.926" stop-color="#AB662B" stop-opacity="0"/>
<stop offset="1" stop-color="#AB662B"/>
</radialGradient>
</defs>
</svg>
