<svg width="25" height="25" viewBox="0 0 25 25" fill="none" xmlns="http://www.w3.org/2000/svg">
<path fill-rule="evenodd" clip-rule="evenodd" d="M24.2155 0.784535C23.1694 -0.261512 21.4734 -0.261512 20.4274 0.784535L12.5 8.71193L4.57261 0.784535C3.52656 -0.261512 1.83058 -0.261512 0.784534 0.784535C-0.261513 1.83058 -0.261513 3.52656 0.784534 4.57261L8.71193 12.5L0.784534 20.4274C-0.261513 21.4734 -0.261513 23.1694 0.784534 24.2155C1.83058 25.2615 3.52656 25.2615 4.57261 24.2155L12.5 16.2881L20.4274 24.2155C21.4734 25.2615 23.1694 25.2615 24.2155 24.2155C25.2615 23.1694 25.2615 21.4734 24.2155 20.4274L16.2881 12.5L24.2155 4.57261C25.2615 3.52656 25.2615 1.83058 24.2155 0.784535Z" fill="currentColor"/>
</svg>
