<svg width="61" height="62" viewBox="0 0 61 62" fill="none" xmlns="http://www.w3.org/2000/svg">
<path d="M60.225 31.2178C60.4094 14.6833 47.7387 1.14167 31.9241 0.97169C16.1095 0.801708 3.13983 14.0678 2.95544 30.6022C2.77106 47.1367 15.4418 60.6783 31.2564 60.8483C47.0709 61.0183 60.0406 47.7523 60.225 31.2178Z" fill="#AB29CC"/>
<path d="M52.6462 31.2143C52.8007 17.3928 42.2072 6.07289 28.9849 5.93043C15.7626 5.78798 4.91861 16.877 4.76412 30.6984C4.60962 44.5198 15.2031 55.8397 28.4254 55.9822C41.6477 56.1246 52.4917 45.0357 52.6462 31.2143Z" fill="#B522E9"/>
<path d="M18.7848 59.0581C3.96406 53.348 -3.62344 36.1166 1.83838 20.6242C7.31496 5.13181 23.8185 -2.83902 38.6245 2.8565C53.4452 8.55201 61.0475 25.798 55.5709 41.2904C50.0943 56.7827 33.5907 64.7536 18.7848 59.0581ZM37.0007 7.46509C24.6156 2.69709 10.8135 9.3636 6.25212 22.3198C1.676 35.276 8.03828 49.696 20.4233 54.4495C32.7936 59.2175 46.5958 52.551 51.1719 39.5947C55.7333 26.6385 49.3857 12.2186 37.0007 7.46509Z" fill="#F761D6"/>
<path d="M3.47692 21.2467C8.85017 6.04416 24.8371 -1.91217 39.4364 3.17467C39.1707 3.05873 38.8902 2.95728 38.6245 2.84134C23.8185 -2.83968 7.31496 5.13114 1.83838 20.6235C-3.62344 36.1159 3.96406 53.3474 18.7848 59.0574C19.0653 59.1588 19.331 59.2603 19.6114 59.3617C5.33689 53.3474 -1.89633 36.4492 3.47692 21.2467Z" fill="#F579F8"/>
<path d="M37.0009 7.46424C36.7647 7.37729 36.5138 7.29032 36.2776 7.20337C48.1902 12.2322 54.213 26.3478 49.7255 39.0432C45.2527 51.7385 31.8933 58.3905 19.7002 54.1588C19.9364 54.2602 20.1726 54.3617 20.4088 54.4486C32.7938 59.2166 46.596 52.5501 51.1721 39.5939C55.7335 26.6377 49.3859 12.2177 37.0009 7.46424Z" fill="#CE11B0"/>
<path d="M20.925 45.6203C19.8639 45.6203 18.9846 45.4142 18.2873 45.0022C17.6203 44.5901 17.1655 44.0407 16.9229 43.354C16.6804 42.6397 16.6804 41.8705 16.9229 41.0464C17.1655 40.1948 17.6658 39.3433 18.4237 38.4917L34.1138 20.6496V22.7923H20.2883C19.1059 22.7923 18.2115 22.5313 17.6051 22.0094C16.9987 21.4599 16.6956 20.677 16.6956 19.6606C16.6956 18.6442 16.9987 17.875 17.6051 17.3531C18.2115 16.8312 19.1059 16.5702 20.2883 16.5702H38.0249C39.0861 16.5702 39.9502 16.7762 40.6172 17.1883C41.3145 17.6003 41.7844 18.1497 42.027 18.8365C42.2695 19.5233 42.2695 20.2924 42.027 21.144C41.7844 21.9956 41.2842 22.8472 40.5262 23.6988L24.8362 41.5409V39.3982H39.3893C40.5414 39.3982 41.4206 39.6592 42.027 40.1811C42.6637 40.703 42.982 41.4722 42.982 42.4886C42.982 43.505 42.6637 44.288 42.027 44.8374C41.4206 45.3593 40.5414 45.6203 39.3893 45.6203H20.925Z" fill="#8711A5"/>
<path d="M19.0471 43.8047C17.986 43.8047 17.1067 43.5987 16.4094 43.1866C15.7424 42.7746 15.2876 42.2252 15.045 41.5384C14.8025 40.8242 14.8025 40.055 15.045 39.2309C15.2876 38.3793 15.7878 37.5277 16.5458 36.6761L32.2358 18.834V20.9767H18.4104C17.228 20.9767 16.3336 20.7157 15.7272 20.1938C15.1208 19.6444 14.8176 18.8615 14.8176 17.8451C14.8176 16.8287 15.1208 16.0595 15.7272 15.5375C16.3336 15.0156 17.228 14.7546 18.4104 14.7546H36.147C37.2081 14.7546 38.0722 14.9607 38.7392 15.3727C39.4366 15.7848 39.9065 16.3342 40.1491 17.021C40.3916 17.7077 40.3916 18.4769 40.1491 19.3285C39.9065 20.1801 39.4063 21.0317 38.6483 21.8832L22.9583 39.7253V37.5826H37.5113C38.6634 37.5826 39.5427 37.8436 40.1491 38.3656C40.7858 38.8875 41.1041 39.6567 41.1041 40.6731C41.1041 41.6895 40.7858 42.4724 40.1491 43.0218C39.5427 43.5437 38.6634 43.8047 37.5113 43.8047H19.0471Z" fill="#F761D6"/>
</svg>
