<svg viewBox="0 0 34 34" fill="none" xmlns="http://www.w3.org/2000/svg">
<path d="M32.931 16.8282C33.0292 7.72148 26.2809 0.26311 17.8581 0.169488C9.43542 0.0758661 2.52785 7.38244 2.42964 16.4892C2.33144 25.5959 9.0798 33.0543 17.5025 33.1479C25.9252 33.2415 32.8328 25.935 32.931 16.8282Z" fill="#AB29CC"/>
<path d="M28.8948 16.8261C28.9771 9.21366 23.335 2.97894 16.293 2.90047C9.25086 2.82201 3.47541 8.92953 3.39313 16.542C3.31085 24.1544 8.95289 30.3892 15.995 30.4676C23.0371 30.5461 28.8125 24.4386 28.8948 16.8261Z" fill="#B522E9"/>
<path d="M10.8604 32.1616C2.96698 29.0167 -1.07408 19.5261 1.83485 10.9933C4.75164 2.46053 13.5413 -1.92959 21.4269 1.20735C29.3203 4.34428 33.3692 13.8429 30.4524 22.3757C27.5356 30.9085 18.7459 35.2986 10.8604 32.1616ZM20.5621 3.74564C13.9659 1.11955 6.61493 4.79128 4.18558 11.9272C1.74837 19.0631 5.13688 27.0052 11.7331 29.6234C18.3214 32.2494 25.6723 28.5777 28.1095 21.4418C30.5389 14.3059 27.1582 6.36374 20.5621 3.74564Z" fill="#F761D6"/>
<path d="M2.70753 11.3363C5.56929 2.96317 14.0838 -1.41896 21.8593 1.38273C21.7178 1.31887 21.5684 1.263 21.4269 1.19914C13.5413 -1.92981 4.75164 2.4603 1.83485 10.9931C-1.07408 19.5259 2.96698 29.0165 10.8604 32.1614C11.0098 32.2173 11.1513 32.2732 11.3007 32.329C3.69814 29.0165 -0.154226 19.7095 2.70753 11.3363Z" fill="#F579F8"/>
<path d="M20.5621 3.74549C20.4363 3.69759 20.3027 3.6497 20.1769 3.60181C26.5215 6.37157 29.7292 14.1461 27.3391 21.1383C24.957 28.1306 17.8419 31.7943 11.3479 29.4636C11.4737 29.5194 11.5995 29.5753 11.7253 29.6232C18.3215 32.2493 25.6724 28.5776 28.1096 21.4416C30.539 14.3057 27.1583 6.36359 20.5621 3.74549Z" fill="#CE11B0"/>
<path d="M12.0002 24.7607C11.435 24.7607 10.9667 24.6473 10.5953 24.4203C10.2401 24.1934 9.99785 23.8908 9.86867 23.5125C9.73948 23.1191 9.73948 22.6955 9.86867 22.2416C9.99785 21.7726 10.2643 21.3035 10.668 20.8345L19.0244 11.0076V12.1877H11.6611C11.0313 12.1877 10.5549 12.044 10.232 11.7565C9.90903 11.4539 9.74756 11.0227 9.74756 10.4629C9.74756 9.90306 9.90903 9.47942 10.232 9.19195C10.5549 8.90448 11.0313 8.76074 11.6611 8.76074H21.1074C21.6726 8.76074 22.1328 8.87422 22.488 9.10117C22.8594 9.32812 23.1097 9.63072 23.2389 10.009C23.3681 10.3872 23.3681 10.8109 23.2389 11.2799C23.1097 11.7489 22.8433 12.218 22.4396 12.687L14.0832 22.5139V21.3338H21.8341C22.4477 21.3338 22.916 21.4775 23.2389 21.765C23.578 22.0525 23.7476 22.4761 23.7476 23.0359C23.7476 23.5957 23.578 24.0269 23.2389 24.3295C22.916 24.617 22.4477 24.7607 21.8341 24.7607H12.0002Z" fill="#8711A5"/>
<path d="M11.0002 23.7607C10.435 23.7607 9.96671 23.6473 9.59531 23.4203C9.24006 23.1934 8.99785 22.8908 8.86867 22.5125C8.73948 22.1191 8.73948 21.6955 8.86867 21.2416C8.99785 20.7726 9.26428 20.3035 9.66797 19.8345L18.0244 10.0076V11.1877H10.6611C10.0313 11.1877 9.55494 11.044 9.23199 10.7565C8.90903 10.4539 8.74756 10.0227 8.74756 9.46287C8.74756 8.90306 8.90903 8.47942 9.23199 8.19195C9.55494 7.90448 10.0313 7.76074 10.6611 7.76074H20.1074C20.6726 7.76074 21.1328 7.87422 21.488 8.10117C21.8594 8.32812 22.1097 8.63072 22.2389 9.00897C22.3681 9.38722 22.3681 9.81086 22.2389 10.2799C22.1097 10.7489 21.8433 11.218 21.4396 11.687L13.0832 21.5139V20.3338H20.8341C21.4477 20.3338 21.916 20.4775 22.2389 20.765C22.578 21.0525 22.7476 21.4761 22.7476 22.0359C22.7476 22.5957 22.578 23.0269 22.2389 23.3295C21.916 23.617 21.4477 23.7607 20.8341 23.7607H11.0002Z" fill="#F761D6"/>
</svg>
