<svg width="22" height="24" viewBox="0 0 22 24" fill="none" xmlns="http://www.w3.org/2000/svg">
<path d="M21.8786 12.1157C21.9457 5.89713 17.3375 0.804155 11.586 0.740225C5.83454 0.676295 1.11768 5.66562 1.05062 11.8842C0.983561 18.1028 5.5917 23.1957 11.3432 23.2597C17.0947 23.3236 21.8116 18.3343 21.8786 12.1157Z" fill="#AB29CC"/>
<path d="M19.1223 12.1142C19.1785 6.91605 15.3258 2.65864 10.5171 2.60506C5.7084 2.55149 1.76461 6.72203 1.70843 11.9202C1.65224 17.1184 5.50493 21.3758 10.3137 21.4294C15.1224 21.483 19.0662 17.3124 19.1223 12.1142Z" fill="#B522E9"/>
<path d="M6.80756 22.5862C1.41751 20.4387 -1.34194 13.9579 0.644436 8.13129C2.63618 2.30465 8.63825 -0.693161 14.0229 1.44891C19.413 3.59098 22.1778 10.0771 20.1861 15.9038C18.1943 21.7304 12.1922 24.7282 6.80756 22.5862ZM13.4324 3.18219C8.92815 1.38896 3.90853 3.89621 2.24964 8.76901C0.585382 13.6418 2.89924 19.0651 7.40347 20.8529C11.9023 22.6461 16.922 20.1389 18.5862 15.2661C20.2451 10.3933 17.9366 4.96997 13.4324 3.18219Z" fill="#F761D6"/>
<path d="M1.24035 8.36558C3.19451 2.64794 9.00868 -0.344414 14.3182 1.56873C14.2216 1.52513 14.1196 1.48697 14.0229 1.44337C8.63825 -0.693249 2.63618 2.30456 0.644436 8.1312C-1.34194 13.9578 1.41751 20.4386 6.80756 22.5861C6.90956 22.6242 7.0062 22.6624 7.1082 22.7005C1.91679 20.4386 -0.713814 14.0832 1.24035 8.36558Z" fill="#F579F8"/>
<path d="M13.4324 3.1821C13.3465 3.14939 13.2552 3.11669 13.1693 3.08398C17.5017 4.97533 19.6921 10.2842 18.0601 15.0589C16.4334 19.8335 11.5748 22.3354 7.14038 20.7438C7.22628 20.7819 7.31218 20.8201 7.39807 20.8528C11.9023 22.646 16.9219 20.1388 18.5862 15.266C20.2451 10.3932 17.9366 4.96988 13.4324 3.1821Z" fill="#CE11B0"/>
<path d="M7.5858 17.5325C7.19987 17.5325 6.88011 17.455 6.6265 17.3C6.38392 17.145 6.21852 16.9384 6.13031 16.6801C6.04209 16.4115 6.04209 16.1222 6.13031 15.8123C6.21852 15.492 6.40045 15.1717 6.67612 14.8514L12.3823 8.14105V8.94692H7.35425C6.92421 8.94692 6.59893 8.84877 6.3784 8.65247C6.15787 8.44584 6.04761 8.15139 6.04761 7.76912C6.04761 7.38685 6.15787 7.09756 6.3784 6.90126C6.59893 6.70496 6.92421 6.60681 7.35425 6.60681H13.8047C14.1907 6.60681 14.5049 6.6843 14.7475 6.83927C15.0011 6.99425 15.172 7.20088 15.2602 7.45917C15.3484 7.71746 15.3484 8.00674 15.2602 8.32702C15.172 8.6473 14.9901 8.96758 14.7144 9.28786L9.00822 15.9982V15.1924H14.3009C14.7199 15.1924 15.0397 15.2905 15.2602 15.4868C15.4918 15.6831 15.6076 15.9724 15.6076 16.3547C15.6076 16.7369 15.4918 17.0314 15.2602 17.238C15.0397 17.4343 14.7199 17.5325 14.3009 17.5325H7.5858Z" fill="#8711A5"/>
<path d="M6.90294 16.8496C6.51701 16.8496 6.19725 16.7721 5.94364 16.6172C5.70105 16.4622 5.53566 16.2555 5.44744 15.9973C5.35923 15.7286 5.35923 15.4394 5.44744 15.1294C5.53566 14.8091 5.71759 14.4888 5.99326 14.1686L11.6995 7.45819V8.26406H6.67138C6.24135 8.26406 5.91607 8.16591 5.69554 7.96961C5.47501 7.76297 5.36475 7.46852 5.36475 7.08626C5.36475 6.70399 5.47501 6.4147 5.69554 6.2184C5.91607 6.0221 6.24135 5.92395 6.67138 5.92395H13.1219C13.5078 5.92395 13.8221 6.00144 14.0646 6.15641C14.3182 6.31139 14.4892 6.51802 14.5774 6.77631C14.6656 7.0346 14.6656 7.32388 14.5774 7.64416C14.4892 7.96444 14.3072 8.28472 14.0316 8.605L8.32536 15.3154V14.5095H13.6181C14.0371 14.5095 14.3568 14.6077 14.5774 14.804C14.8089 15.0003 14.9247 15.2895 14.9247 15.6718C14.9247 16.0541 14.8089 16.3485 14.5774 16.5552C14.3568 16.7515 14.0371 16.8496 13.6181 16.8496H6.90294Z" fill="#F761D6"/>
</svg>
