<svg width="31" height="33" viewBox="0 0 31 33" fill="none" xmlns="http://www.w3.org/2000/svg">
<path d="M27.637 16.5054C27.7182 9.03805 22.15 2.92216 15.2002 2.84519C8.25031 2.76822 2.55051 8.75933 2.4693 16.2267C2.3881 23.6941 7.95624 29.81 14.9061 29.8869C21.8559 29.9639 27.5557 23.9728 27.637 16.5054Z" fill="#B522E9"/>
<path d="M9.8387 31.5489C2.04867 28.4639 -1.93945 19.1542 0.931378 10.7841C3.80996 2.41391 12.4845 -1.89253 20.2668 1.18461C28.0568 4.26176 32.0527 13.5793 29.1741 21.9495C26.2955 30.3196 17.621 34.6261 9.8387 31.5489ZM19.4133 3.67452C12.9035 1.09849 5.64884 4.70024 3.25132 11.7002C0.846029 18.7001 4.19015 26.4908 10.6999 29.059C17.202 31.635 24.4566 28.0333 26.8619 21.0334C29.2594 14.0335 25.9231 6.24272 19.4133 3.67452Z" fill="#F761D6"/>
<path d="M1.79263 11.1202C4.6169 2.90665 13.0199 -1.39196 20.6935 1.35633C20.5539 1.29369 20.4064 1.23888 20.2668 1.17624C12.4845 -1.89307 3.80996 2.41336 0.931378 10.7835C-1.93945 19.1537 2.04867 28.4634 9.8387 31.5484C9.98612 31.6032 10.1258 31.658 10.2732 31.7128C2.77026 28.4634 -1.03165 19.3337 1.79263 11.1202Z" fill="#F579F8"/>
<path d="M19.4134 3.67414C19.2892 3.62717 19.1573 3.58018 19.0332 3.5332C25.2947 6.25017 28.4603 13.8765 26.1016 20.7355C23.7506 27.5944 16.7287 31.1884 10.3198 28.902C10.444 28.9568 10.5681 29.0117 10.6923 29.0586C17.202 31.6347 24.4567 28.0329 26.862 21.033C29.2595 14.0331 25.9232 6.24235 19.4134 3.67414Z" fill="#CE11B0"/>
<path d="M10.9636 24.2888C10.4058 24.2888 9.94366 24.1775 9.57713 23.9549C9.22653 23.7322 8.98749 23.4354 8.86 23.0644C8.73251 22.6785 8.73251 22.2629 8.86 21.8177C8.98749 21.3576 9.25043 20.8975 9.64884 20.4374L17.8958 10.7977V11.9554H10.6289C10.0074 11.9554 9.53729 11.8144 9.21856 11.5324C8.89984 11.2356 8.74048 10.8126 8.74048 10.2634C8.74048 9.71429 8.89984 9.29873 9.21856 9.01674C9.53729 8.73475 10.0074 8.59375 10.6289 8.59375H19.9515C20.5093 8.59375 20.9635 8.70506 21.3141 8.92769C21.6806 9.15031 21.9276 9.44715 22.0551 9.81819C22.1826 10.1892 22.1826 10.6048 22.0551 11.0649C21.9276 11.525 21.6647 11.9851 21.2663 12.4452L13.0193 22.0848V20.9272H20.6687C21.2742 20.9272 21.7364 21.0682 22.0551 21.3501C22.3898 21.6321 22.5571 22.0477 22.5571 22.5968C22.5571 23.146 22.3898 23.569 22.0551 23.8658C21.7364 24.1478 21.2742 24.2888 20.6687 24.2888H10.9636Z" fill="#8711A5"/>
<path d="M9.97675 23.3078C9.41899 23.3078 8.95684 23.1965 8.59031 22.9739C8.23971 22.7513 8.00067 22.4544 7.87318 22.0834C7.74569 21.6975 7.74569 21.282 7.87318 20.8367C8.00067 20.3766 8.26362 19.9165 8.66202 19.4564L16.909 9.81678V10.9744H9.64209C9.02058 10.9744 8.55047 10.8334 8.23175 10.5514C7.91302 10.2546 7.75366 9.83162 7.75366 9.28248C7.75366 8.73334 7.91302 8.31777 8.23175 8.03578C8.55047 7.75379 9.02058 7.61279 9.64209 7.61279H18.9647C19.5225 7.61279 19.9767 7.72411 20.3273 7.94673C20.6938 8.16936 20.9408 8.46619 21.0683 8.83723C21.1958 9.20827 21.1958 9.62384 21.0683 10.0839C20.9408 10.544 20.6779 11.0041 20.2795 11.4642L12.0325 21.1039V19.9462H19.6819C20.2874 19.9462 20.7496 20.0872 21.0683 20.3692C21.403 20.6512 21.5703 21.0667 21.5703 21.6159C21.5703 22.165 21.403 22.588 21.0683 22.8848C20.7496 23.1668 20.2874 23.3078 19.6819 23.3078H9.97675Z" fill="#F761D6"/>
</svg>
