<svg  viewBox="0 0 42 42" fill="none" xmlns="http://www.w3.org/2000/svg">
<path d="M9.85687 34.1249C9.21859 34.126 8.58301 34.0422 7.96687 33.8756C6.11743 33.3482 4.54837 32.1169 3.59633 30.4459C2.64428 28.7749 2.38509 26.7973 2.87437 24.9374L5.93249 13.3349C6.17065 12.3959 6.59405 11.514 7.17781 10.7409C7.76157 9.96783 8.49393 9.31918 9.33187 8.83307C10.1478 8.36051 11.0493 8.05453 11.9843 7.93287C12.9193 7.81121 13.8691 7.87628 14.7787 8.12432C15.7457 8.39284 16.6464 8.85933 17.4236 9.49421C18.2008 10.1291 18.8376 10.9185 19.2937 11.8124H22.7062C23.1604 10.9171 23.7966 10.1265 24.5741 9.49138C25.3516 8.85626 26.2533 8.39062 27.2212 8.12432C28.1309 7.87628 29.0807 7.81121 30.0157 7.93287C30.9507 8.05453 31.8522 8.36051 32.6681 8.83307C33.502 9.31793 34.2317 9.96302 34.8151 10.7312C35.3985 11.4993 35.8242 12.3753 36.0675 13.3087L39.1256 24.9374C39.6222 26.8028 39.3651 28.7886 38.4098 30.4659C37.4545 32.1432 35.8777 33.3774 34.02 33.9018C33.1103 34.1499 32.1605 34.2149 31.2255 34.0933C30.2906 33.9716 29.389 33.6656 28.5731 33.1931C27.7379 32.7099 27.0071 32.0654 26.4235 31.297C25.8399 30.5286 25.4151 29.6517 25.1737 28.7174L24.9375 27.5624H17.0625L16.7606 28.6912C16.5193 29.6254 16.0945 30.5023 15.5108 31.2707C14.9272 32.0391 14.1965 32.6837 13.3612 33.1668C12.2948 33.7819 11.0879 34.1119 9.85687 34.1249ZM12.9019 10.4999C12.1098 10.5026 11.332 10.7107 10.6444 11.1037C9.56661 11.736 8.78322 12.7695 8.46562 13.9781L5.40749 25.5806C5.08749 26.7759 5.24918 28.0491 5.85783 29.1265C6.46648 30.2039 7.4735 30.9996 8.66249 31.3424C9.23672 31.4991 9.8363 31.5403 10.4266 31.4637C11.0168 31.3871 11.586 31.1942 12.1012 30.8962C12.6377 30.5865 13.1067 30.1727 13.4809 29.679C13.8551 29.1854 14.1268 28.622 14.28 28.0218L15.0937 24.9374H26.9062L27.7069 28.0218C27.8628 28.6208 28.1356 29.1831 28.5095 29.6764C28.8834 30.1697 29.351 30.5842 29.8856 30.8962C30.4034 31.1939 30.9748 31.3866 31.5671 31.4632C32.1594 31.5397 32.761 31.4987 33.3375 31.3424C34.5279 31.0028 35.5362 30.207 36.1432 29.1281C36.7502 28.0492 36.907 26.7744 36.5794 25.5806L33.5212 13.9781C33.3689 13.3793 33.0989 12.8168 32.7271 12.3234C32.3554 11.8299 31.8891 11.4153 31.3556 11.1037C30.8379 10.806 30.2665 10.6133 29.6741 10.5367C29.0818 10.4602 28.4802 10.5012 27.9037 10.6574C27.1909 10.8607 26.5367 11.231 25.9957 11.7378C25.4547 12.2446 25.0424 12.8731 24.7931 13.5712L24.4781 14.4374H17.5219L17.2069 13.5712C16.9553 12.8722 16.5407 12.2432 15.9975 11.7364C15.4542 11.2297 14.7979 10.8598 14.0831 10.6574C13.6979 10.5536 13.3008 10.5006 12.9019 10.4999Z" fill="currentColor"/>
<path d="M13.125 21C12.6058 21 12.0983 20.846 11.6666 20.5576C11.235 20.2692 10.8985 19.8592 10.6998 19.3795C10.5011 18.8999 10.4492 18.3721 10.5504 17.8629C10.6517 17.3537 10.9017 16.886 11.2688 16.5188C11.636 16.1517 12.1037 15.9017 12.6129 15.8004C13.1221 15.6992 13.6499 15.7511 14.1295 15.9498C14.6092 16.1485 15.0192 16.485 15.3076 16.9166C15.596 17.3483 15.75 17.8558 15.75 18.375C15.75 19.0712 15.4734 19.7389 14.9812 20.2312C14.4889 20.7234 13.8212 21 13.125 21Z" fill="#C4B5FD"/>
<path d="M28.875 17.0625C29.5999 17.0625 30.1875 16.4749 30.1875 15.75C30.1875 15.0251 29.5999 14.4375 28.875 14.4375C28.1501 14.4375 27.5625 15.0251 27.5625 15.75C27.5625 16.4749 28.1501 17.0625 28.875 17.0625Z" fill="#C4B5FD"/>
<path d="M28.875 22.3125C29.5999 22.3125 30.1875 21.7249 30.1875 21C30.1875 20.2751 29.5999 19.6875 28.875 19.6875C28.1501 19.6875 27.5625 20.2751 27.5625 21C27.5625 21.7249 28.1501 22.3125 28.875 22.3125Z" fill="#C4B5FD"/>
<path d="M26.25 19.6875C26.9749 19.6875 27.5625 19.0999 27.5625 18.375C27.5625 17.6501 26.9749 17.0625 26.25 17.0625C25.5251 17.0625 24.9375 17.6501 24.9375 18.375C24.9375 19.0999 25.5251 19.6875 26.25 19.6875Z" fill="#C4B5FD"/>
<path d="M31.5 19.6875C32.2249 19.6875 32.8125 19.0999 32.8125 18.375C32.8125 17.6501 32.2249 17.0625 31.5 17.0625C30.7751 17.0625 30.1875 17.6501 30.1875 18.375C30.1875 19.0999 30.7751 19.6875 31.5 19.6875Z" fill="#C4B5FD"/>
</svg>
