<svg width="33" height="32" viewBox="0 0 33 32" fill="none" xmlns="http://www.w3.org/2000/svg">
<path d="M16.3968 0C13.1943 0 10.2863 0.260133 8.24949 0.659944C7.45525 0.817562 6.84036 0.999526 6.36637 1.1738C6.84036 1.34808 7.45525 1.53004 8.24949 1.68766C10.2863 2.08747 13.1943 2.34761 16.3968 2.34761C19.5994 2.34761 22.5073 2.08747 24.5442 1.68766C25.3384 1.53004 25.9533 1.34808 26.4273 1.1738C25.9533 0.999526 25.3384 0.817562 24.5442 0.659944C22.5073 0.260133 19.5994 0 16.3968 0ZM3.48406 0.680447C1.03729 1.82093 -0.282169 4.01476 0.0508983 6.20091C0.307104 7.77965 1.44722 9.21358 3.25347 9.95682C4.29111 10.3925 5.54652 10.6232 7.0197 10.6104C8.72347 13.7755 11.0293 16.3897 13.5017 17.607V23.2326C11.324 24.5525 9.8764 27.2948 8.45445 30.1139C13.4248 31.3826 19.3816 31.3185 24.3264 30.1011C22.9173 27.2819 21.4569 24.5525 19.292 23.2326V17.607C21.7643 16.3897 24.0702 13.7755 25.774 10.6104C27.2472 10.6232 28.5026 10.3925 29.5402 9.95682C31.3465 9.21358 32.4866 7.77965 32.7428 6.20091C33.0758 4.01476 31.7564 1.82093 29.3096 0.680447C29.3609 0.83422 29.3865 0.998245 29.3865 1.1738C29.3865 1.73123 29.0918 2.18743 28.7844 2.47447C28.4898 2.76151 28.1567 2.95245 27.7852 3.12544C27.0422 3.47143 26.107 3.73028 24.9797 3.95069C22.7379 4.39407 19.7275 4.65421 16.3968 4.65421C13.0662 4.65421 10.0557 4.39407 7.81394 3.95069C6.68663 3.73028 5.75148 3.47143 5.00848 3.12544C4.63699 2.95245 4.30392 2.76151 4.00928 2.47447C3.70183 2.18743 3.4072 1.73123 3.4072 1.1738C3.4072 0.998245 3.43282 0.83422 3.48406 0.680447ZM4.32954 2.77048C4.62417 4.60807 5.16221 6.47514 5.9052 8.24737C5.18783 8.1769 4.61136 8.02825 4.13738 7.83219C2.93322 7.33242 2.44642 6.59816 2.33113 5.84467C2.17741 4.82848 2.75387 3.51885 4.32954 2.77048ZM28.4641 2.77048C30.0398 3.51885 30.6163 4.82848 30.4625 5.84467C30.3472 6.59816 29.8605 7.33242 28.6563 7.83219C28.1823 8.02825 27.6058 8.1769 26.8885 8.24737C27.6315 6.47514 28.1695 4.60807 28.4641 2.77048Z" fill="#C4B5FD"/>
</svg>
