<?xml version="1.0" standalone="no"?>
<!DOCTYPE svg PUBLIC "-//W3C//DTD SVG 20010904//EN"
 "http://www.w3.org/TR/2001/REC-SVG-20010904/DTD/svg10.dtd">
<svg version="1.0" xmlns="http://www.w3.org/2000/svg"
 width="512.000000pt" height="512.000000pt" viewBox="0 0 512.000000 512.000000"
 preserveAspectRatio="xMidYMid meet">

<g transform="translate(0.000000,512.000000) scale(0.100000,-0.100000)"
fill="currentColor" stroke="none">
<path d="M1250 4890 l0 -230 -446 0 -445 0 3 -432 3 -433 29 -85 c85 -256 251
-445 489 -555 91 -42 170 -62 287 -74 51 -6 93 -11 95 -13 1 -2 10 -39 20 -83
78 -356 320 -676 646 -855 84 -47 222 -102 297 -120 l52 -12 0 -374 0 -374
-179 0 c-186 0 -219 -5 -259 -43 -48 -45 -56 -74 -60 -224 l-4 -143 -134 0
-134 0 0 -420 0 -420 1050 0 1050 0 0 420 0 420 -134 0 -134 0 -4 143 c-4 150
-12 179 -60 224 -40 38 -73 43 -259 43 l-179 0 0 374 0 374 53 12 c123 29 289
106 417 194 91 62 238 206 307 300 99 134 183 319 218 481 10 44 19 81 20 83
2 2 44 7 95 13 117 12 196 32 287 74 238 110 404 299 489 555 l29 85 3 433 3
432 -445 0 -446 0 0 230 0 230 -1310 0 -1310 0 0 -230z m1364 -541 c8 -12 45
-95 81 -184 l67 -163 111 -7 c228 -15 270 -21 289 -45 22 -27 23 -58 4 -85 -7
-11 -73 -69 -145 -130 -72 -60 -131 -115 -131 -122 0 -6 18 -86 40 -178 22
-92 40 -174 40 -183 0 -27 -41 -62 -73 -62 -20 0 -79 31 -182 96 -124 77 -157
94 -172 86 -10 -6 -81 -49 -157 -96 -89 -54 -150 -86 -168 -86 -34 0 -68 32
-68 64 0 13 19 102 41 197 36 147 40 174 27 183 -64 49 -260 221 -268 236 -15
28 -12 55 8 81 17 20 32 23 183 35 90 7 176 13 190 14 24 0 31 12 93 164 83
202 86 206 136 206 28 0 43 -6 54 -21z m-1364 -484 l0 -335 -34 0 c-91 0 -236
74 -300 154 -86 108 -106 179 -106 375 l0 141 220 0 220 0 0 -335z m3060 206
c0 -151 -10 -214 -49 -297 -61 -130 -227 -244 -358 -244 l-33 0 0 335 0 335
220 0 220 0 0 -129z"/>
</g>
</svg>
