<svg width="24" height="24" viewBox="0 0 24 24" fill="none" xmlns="http://www.w3.org/2000/svg">
<path d="M4.19488 16.199C3.85633 16.199 3.57275 16.0819 3.34413 15.8477C3.11471 15.6143 3 15.3248 3 14.9791C3 14.6335 3.11471 14.3436 3.34413 14.1093C3.57275 13.8759 3.85633 13.7592 4.19488 13.7592H10.1693C10.5078 13.7592 10.7918 13.8759 11.0212 14.1093C11.2498 14.3436 11.3642 14.6335 11.3642 14.9791C11.3642 15.3248 11.2498 15.6143 11.0212 15.8477C10.7918 16.0819 10.5078 16.199 10.1693 16.199H4.19488ZM4.19488 11.3194C3.85633 11.3194 3.57275 11.2023 3.34413 10.9681C3.11471 10.7347 3 10.4452 3 10.0995C3 9.75388 3.11471 9.46395 3.34413 9.22973C3.57275 8.99632 3.85633 8.87961 4.19488 8.87961H14.9488C15.2873 8.87961 15.5713 8.99632 15.8007 9.22973C16.0294 9.46395 16.1437 9.75388 16.1437 10.0995C16.1437 10.4452 16.0294 10.7347 15.8007 10.9681C15.5713 11.2023 15.2873 11.3194 14.9488 11.3194H4.19488ZM4.19488 6.43981C3.85633 6.43981 3.57275 6.3231 3.34413 6.08969C3.11471 5.85547 3 5.56554 3 5.2199C3 4.87426 3.11471 4.58433 3.34413 4.35011C3.57275 4.1167 3.85633 4 4.19488 4H14.9488C15.2873 4 15.5713 4.1167 15.8007 4.35011C16.0294 4.58433 16.1437 4.87426 16.1437 5.2199C16.1437 5.56554 16.0294 5.85547 15.8007 6.08969C15.5713 6.3231 15.2873 6.43981 14.9488 6.43981H4.19488ZM15.7852 22.6645C15.5661 22.4409 15.4566 22.1562 15.4566 21.8106C15.4566 21.465 15.5661 21.1803 15.7852 20.9567L18.0555 18.6388L15.7852 16.321C15.5661 16.0974 15.4566 15.8127 15.4566 15.4671C15.4566 15.1215 15.5661 14.8368 15.7852 14.6132C16.0043 14.3895 16.2831 14.2777 16.6216 14.2777C16.9602 14.2777 17.239 14.3895 17.458 14.6132L19.7283 16.931L21.9986 14.6132C22.2176 14.3895 22.4964 14.2777 22.835 14.2777C23.1735 14.2777 23.4523 14.3895 23.6714 14.6132C23.8905 14.8368 24 15.1215 24 15.4671C24 15.8127 23.8905 16.0974 23.6714 16.321L21.4011 18.6388L23.6714 20.9567C23.8905 21.1803 24 21.465 24 21.8106C24 22.1562 23.8905 22.4409 23.6714 22.6645C23.4523 22.8882 23.1735 23 22.835 23C22.4964 23 22.2176 22.8882 21.9986 22.6645L19.7283 20.3467L17.458 22.6645C17.239 22.8882 16.9602 23 16.6216 23C16.2831 23 16.0043 22.8882 15.7852 22.6645Z" fill="white"/>
</svg>
