<svg width="28" height="21" viewBox="0 0 28 21" fill="none" xmlns="http://www.w3.org/2000/svg">
<path d="M23.0876 1.66256C21.4251 0.887557 19.6251 0.325057 17.7501 5.74977e-05C17.7337 -0.000468256 17.7174 0.00261685 17.7022 0.00909595C17.6871 0.015575 17.6736 0.0252908 17.6626 0.0375578C17.4376 0.450058 17.1751 0.987557 17.0001 1.40006C15.0114 1.10006 12.9889 1.10006 11.0001 1.40006C10.8251 0.975057 10.5626 0.450058 10.3251 0.0375578C10.3126 0.0125578 10.2751 5.74977e-05 10.2376 5.74977e-05C8.36265 0.325057 6.57515 0.887557 4.90015 1.66256C4.88765 1.66256 4.87515 1.67506 4.86265 1.68756C1.46265 6.77506 0.525147 11.7251 0.987647 16.6251C0.987647 16.6501 1.00015 16.6751 1.02515 16.6876C3.27515 18.3376 5.43765 19.3376 7.57515 20.0001C7.61265 20.0126 7.65015 20.0001 7.66265 19.9751C8.16265 19.2876 8.61265 18.5626 9.00015 17.8001C9.02515 17.7501 9.00015 17.7001 8.95015 17.6876C8.23765 17.4126 7.56265 17.0876 6.90015 16.7126C6.85015 16.6876 6.85015 16.6126 6.88765 16.5751C7.02515 16.4751 7.16265 16.3626 7.30015 16.2626C7.32515 16.2376 7.36265 16.2376 7.38765 16.2501C11.6876 18.2126 16.3251 18.2126 20.5751 16.2501C20.6001 16.2376 20.6376 16.2376 20.6626 16.2626C20.8001 16.3751 20.9376 16.4751 21.0751 16.5876C21.1251 16.6251 21.1251 16.7001 21.0626 16.7251C20.4126 17.1126 19.7251 17.4251 19.0126 17.7001C18.9626 17.7126 18.9501 17.7751 18.9626 17.8126C19.3626 18.5751 19.8126 19.3001 20.3001 19.9876C20.3376 20.0001 20.3751 20.0126 20.4126 20.0001C22.5626 19.3376 24.7251 18.3376 26.9751 16.6876C27.0001 16.6751 27.0126 16.6501 27.0126 16.6251C27.5626 10.9626 26.1001 6.05006 23.1376 1.68756C23.1251 1.67506 23.1126 1.66256 23.0876 1.66256ZM9.65015 13.6376C8.36265 13.6376 7.28765 12.4501 7.28765 10.9876C7.28765 9.52506 8.33765 8.33756 9.65015 8.33756C10.9751 8.33756 12.0251 9.53756 12.0126 10.9876C12.0126 12.4501 10.9626 13.6376 9.65015 13.6376ZM18.3626 13.6376C17.0751 13.6376 16.0001 12.4501 16.0001 10.9876C16.0001 9.52506 17.0501 8.33756 18.3626 8.33756C19.6876 8.33756 20.7376 9.53756 20.7251 10.9876C20.7251 12.4501 19.6876 13.6376 18.3626 13.6376Z" fill="white"/>
</svg>
