<svg width="42" height="42" viewBox="0 0 42 42" fill="none" xmlns="http://www.w3.org/2000/svg">
<path d="M16.3075 5.90808L14.8772 6.61942C14.8772 8.85757 14.9336 12.7588 15.8566 15.7704C19.9643 16.7627 22.0357 16.7627 26.1434 15.7704C27.0805 12.7658 27.1228 9.72334 27.1298 6.61942L25.6925 5.90808C25.3825 6.30917 24.8681 6.95902 24.1565 7.7647C23.6492 8.33489 23.1137 8.90788 22.5994 9.35788C22.3457 9.58289 22.0991 9.77714 21.8525 9.92877C21.5989 10.0825 21.3523 10.2153 21 10.2153C20.6477 10.2153 20.4011 10.0825 20.1475 9.92877C19.9009 9.77714 19.6543 9.58289 19.4006 9.35788C18.8863 8.90788 18.3508 8.33489 17.8435 7.7647C17.1319 6.95902 16.6175 6.30917 16.3075 5.90808ZM15.7016 17.0212L7 34.2877C7.01973 34.3646 7.05637 34.4484 7.15219 34.5532C7.29311 34.714 7.54534 34.9096 7.89975 35.0913C8.60996 35.4686 9.71193 35.811 11.0513 36.0835C13.7287 36.6286 17.3714 36.9081 21 36.9081C24.6286 36.9081 28.2713 36.6286 30.9487 36.0835C32.2874 35.811 33.3936 35.4686 34.0981 35.0913C34.4575 34.9096 34.7041 34.714 34.845 34.5532C34.9436 34.4484 34.9789 34.3646 35 34.2877L26.2984 17.0212C22.2119 17.9925 19.7881 17.9925 15.7016 17.0212Z" fill="#C4B5FD"/>
</svg>
