<svg width="118" height="118" viewBox="0 0 118 118" fill="none" xmlns="http://www.w3.org/2000/svg">
<path fill-rule="evenodd" clip-rule="evenodd" d="M118 59C118 60.4232 116.792 61.5266 115.37 61.4655L92.4462 60.4807C91.6626 60.447 91.0578 59.7843 91.0578 59C91.0578 58.2157 91.6626 57.553 92.4462 57.5193L115.37 56.5345C116.792 56.4734 118 57.5768 118 59ZM117.111 48.7407C117.357 50.141 116.358 51.4431 114.949 51.627L92.1684 54.5985C91.4046 54.6981 90.7068 54.1523 90.5738 53.3936C90.4408 52.6349 90.9141 51.8976 91.6662 51.7316L114.099 46.7794C115.488 46.473 116.866 47.3404 117.111 48.7407ZM114.455 38.8096C114.941 40.1458 114.185 41.5993 112.828 42.0266L90.9129 48.9301C90.1805 49.1608 89.4019 48.7505 89.1392 48.029C88.8764 47.3075 89.2108 46.4974 89.9201 46.2033L111.145 37.4018C112.458 36.8571 113.968 37.4734 114.455 38.8096ZM110.103 29.4928C110.815 30.7235 110.322 32.2843 109.062 32.9419L88.696 43.5654C88.0116 43.9224 87.1699 43.6548 86.7833 42.9867C86.3966 42.3186 86.5848 41.4563 87.2354 41.041L106.596 28.6811C107.795 27.916 109.391 28.2621 110.103 29.4928ZM104.197 21.0743C105.112 22.1631 104.897 23.7841 103.769 24.6505L85.5617 38.6422C84.9464 39.115 84.0667 38.9974 83.5675 38.4032C83.0684 37.8091 83.1044 36.9222 83.6764 36.3978L100.602 20.88C101.65 19.9191 103.283 19.9856 104.197 21.0743ZM96.9257 13.8026C98.0144 14.7172 98.0809 16.3498 97.12 17.3979L81.6022 34.3236C81.0778 34.8956 80.1909 34.9316 79.5968 34.4325C79.0026 33.9334 78.885 33.0536 79.3578 32.4383L93.3495 14.2309C94.2159 13.1034 95.8369 12.8881 96.9257 13.8026ZM88.5072 7.89734C89.7379 8.6095 90.084 10.205 89.3189 11.4035L76.959 30.7646C76.5437 31.4152 75.6814 31.6034 75.0133 31.2167C74.3452 30.8301 74.0776 29.9884 74.4346 29.304L85.0581 8.93828C85.7157 7.6776 87.2765 7.18519 88.5072 7.89734ZM79.1904 3.54513C80.5266 4.03174 81.1429 5.54182 80.5982 6.85541L71.7967 28.0799C71.5026 28.7892 70.6925 29.1236 69.971 28.8608C69.2495 28.5981 68.8392 27.8195 69.0699 27.0871L75.9734 5.17172C76.4007 3.81537 77.8542 3.05852 79.1904 3.54513ZM69.2593 0.888827C70.6596 1.13435 71.527 2.51228 71.2206 3.90055L66.2684 26.3338C66.1024 27.0859 65.3651 27.5592 64.6064 27.4262C63.8477 27.2932 63.3018 26.5954 63.4015 25.8316L66.373 3.05126C66.5569 1.64151 67.8589 0.643302 69.2593 0.888827ZM59 0C60.4232 0 61.5266 1.20789 61.4655 2.62976L60.4807 25.5538C60.447 26.3374 59.7843 26.9422 59 26.9422C58.2157 26.9422 57.553 26.3374 57.5193 25.5538L56.5345 2.62977C56.4734 1.20789 57.5768 0 59 0ZM48.7407 0.888828C50.141 0.643303 51.4431 1.64151 51.627 3.05125L54.5985 25.8316C54.6981 26.5954 54.1523 27.2932 53.3936 27.4262C52.6349 27.5592 51.8976 27.0859 51.7316 26.3338L46.7794 3.90055C46.473 2.51228 47.3404 1.13435 48.7407 0.888828ZM38.8096 3.54513C40.1458 3.05852 41.5993 3.81537 42.0266 5.17171L48.9301 27.0871C49.1608 27.8195 48.7505 28.5981 48.029 28.8608C47.3075 29.1236 46.4974 28.7892 46.2033 28.0799L37.4018 6.85541C36.8571 5.54182 37.4734 4.03174 38.8096 3.54513ZM29.4928 7.89734C30.7235 7.18518 32.2843 7.67759 32.942 8.93828L43.5654 29.304C43.9224 29.9884 43.6548 30.8301 42.9867 31.2167C42.3186 31.6034 41.4563 31.4152 41.041 30.7646L28.6811 11.4035C27.916 10.205 28.2621 8.60949 29.4928 7.89734ZM21.0743 13.8026C22.1631 12.8881 23.7841 13.1034 24.6505 14.2309L38.6422 32.4383C39.115 33.0536 38.9974 33.9333 38.4032 34.4325C37.8091 34.9316 36.9222 34.8956 36.3978 34.3236L20.88 17.3979C19.9191 16.3498 19.9856 14.7171 21.0743 13.8026ZM13.8026 21.0743C14.7172 19.9856 16.3498 19.9191 17.3979 20.88L34.3236 36.3978C34.8956 36.9222 34.9316 37.8091 34.4325 38.4032C33.9334 38.9974 33.0536 39.115 32.4383 38.6422L14.2309 24.6505C13.1034 23.7841 12.8881 22.1631 13.8026 21.0743ZM7.89734 29.4928C8.6095 28.2621 10.205 27.916 11.4035 28.6811L30.7646 41.041C31.4152 41.4563 31.6034 42.3186 31.2167 42.9867C30.8301 43.6548 29.9884 43.9224 29.304 43.5654L8.93828 32.9419C7.6776 32.2843 7.18519 30.7235 7.89734 29.4928ZM3.54513 38.8096C4.03174 37.4734 5.54182 36.8571 6.8554 37.4018L28.0799 46.2033C28.7892 46.4974 29.1236 47.3075 28.8608 48.029C28.5981 48.7505 27.8195 49.1608 27.0871 48.9301L5.17171 42.0266C3.81537 41.5993 3.05852 40.1458 3.54513 38.8096ZM0.888827 48.7407C1.13435 47.3404 2.51228 46.473 3.90055 46.7794L26.3338 51.7316C27.0859 51.8976 27.5592 52.6349 27.4262 53.3936C27.2932 54.1523 26.5954 54.6982 25.8316 54.5985L3.05125 51.627C1.64151 51.4431 0.643302 50.1411 0.888827 48.7407ZM2.62976 56.5345C1.20789 56.4734 0 57.5768 0 59C0 60.4232 1.20789 61.5266 2.62977 61.4655L25.5538 60.4807C26.3374 60.447 26.9422 59.7843 26.9422 59C26.9422 58.2157 26.3374 57.553 25.5538 57.5193L2.62976 56.5345ZM0.888828 69.2593C0.643303 67.859 1.64151 66.5569 3.05125 66.373L25.8316 63.4015C26.5954 63.3019 27.2932 63.8477 27.4262 64.6064C27.5592 65.3651 27.0859 66.1024 26.3338 66.2684L3.90054 71.2206C2.51228 71.527 1.13435 70.6596 0.888828 69.2593ZM3.54513 79.1904C3.05852 77.8542 3.81537 76.4007 5.17172 75.9734L27.0871 69.0699C27.8195 68.8392 28.5981 69.2495 28.8608 69.971C29.1236 70.6925 28.7892 71.5026 28.0799 71.7967L6.85541 80.5982C5.54182 81.1429 4.03174 80.5266 3.54513 79.1904ZM7.89734 88.5072C7.18518 87.2765 7.67759 85.7157 8.93828 85.0581L29.304 74.4346C29.9884 74.0776 30.8301 74.3452 31.2167 75.0133C31.6034 75.6814 31.4152 76.5437 30.7646 76.959L11.4035 89.3189C10.205 90.084 8.60949 89.7379 7.89734 88.5072ZM13.8026 96.9257C12.8881 95.8369 13.1034 94.2159 14.2309 93.3495L32.4383 79.3578C33.0536 78.885 33.9333 79.0026 34.4325 79.5968C34.9316 80.1909 34.8956 81.0778 34.3236 81.6022L17.3979 97.12C16.3498 98.0809 14.7171 98.0144 13.8026 96.9257ZM21.0743 104.197C19.9856 103.283 19.9191 101.65 20.88 100.602L36.3978 83.6764C36.9222 83.1044 37.8091 83.0684 38.4032 83.5675C38.9974 84.0666 39.115 84.9464 38.6422 85.5617L24.6505 103.769C23.7841 104.897 22.1631 105.112 21.0743 104.197ZM29.4928 110.103C28.2621 109.391 27.916 107.795 28.6811 106.596L41.041 87.2354C41.4563 86.5848 42.3186 86.3966 42.9867 86.7832C43.6548 87.1699 43.9224 88.0116 43.5654 88.696L32.9419 109.062C32.2843 110.322 30.7235 110.815 29.4928 110.103ZM38.8096 114.455C37.4734 113.968 36.8571 112.458 37.4018 111.145L46.2033 89.9201C46.4974 89.2108 47.3075 88.8764 48.029 89.1392C48.7505 89.4019 49.1608 90.1805 48.9301 90.9129L42.0266 112.828C41.5993 114.185 40.1458 114.941 38.8096 114.455ZM48.7407 117.111C47.3404 116.866 46.473 115.488 46.7794 114.099L51.7316 91.6662C51.8976 90.9141 52.6349 90.4408 53.3936 90.5738C54.1523 90.7068 54.6982 91.4046 54.5985 92.1684L51.627 114.949C51.4431 116.358 50.1411 117.357 48.7407 117.111ZM59 118C57.5768 118 56.4734 116.792 56.5345 115.37L57.5193 92.4462C57.553 91.6626 58.2157 91.0578 59 91.0578C59.7843 91.0578 60.447 91.6626 60.4807 92.4462L61.4655 115.37C61.5266 116.792 60.4232 118 59 118ZM69.2593 117.111C67.8589 117.357 66.5569 116.358 66.373 114.949L63.4015 92.1684C63.3019 91.4046 63.8477 90.7068 64.6064 90.5738C65.3651 90.4408 66.1024 90.9141 66.2684 91.6662L71.2206 114.099C71.527 115.488 70.6596 116.866 69.2593 117.111ZM79.1904 114.455C77.8542 114.941 76.4007 114.185 75.9734 112.828L69.0699 90.9129C68.8392 90.1805 69.2495 89.4019 69.971 89.1392C70.6925 88.8764 71.5026 89.2108 71.7967 89.9201L80.5982 111.145C81.1429 112.458 80.5266 113.968 79.1904 114.455ZM88.5072 110.103C87.2765 110.815 85.7157 110.322 85.0581 109.062L74.4346 88.696C74.0776 88.0116 74.3452 87.1699 75.0133 86.7833C75.6814 86.3966 76.5437 86.5848 76.959 87.2354L89.3189 106.596C90.084 107.795 89.7379 109.391 88.5072 110.103ZM96.9257 104.197C95.8369 105.112 94.2159 104.897 93.3495 103.769L79.3578 85.5617C78.885 84.9464 79.0026 84.0667 79.5968 83.5675C80.1909 83.0684 81.0778 83.1044 81.6022 83.6764L97.12 100.602C98.0809 101.65 98.0144 103.283 96.9257 104.197ZM104.197 96.9257C103.283 98.0144 101.65 98.0809 100.602 97.12L83.6764 81.6022C83.1044 81.0778 83.0684 80.1909 83.5675 79.5968C84.0666 79.0026 84.9464 78.885 85.5617 79.3578L103.769 93.3495C104.897 94.2159 105.112 95.8369 104.197 96.9257ZM110.103 88.5072C109.39 89.738 107.795 90.084 106.596 89.3189L87.2354 76.959C86.5848 76.5437 86.3966 75.6814 86.7832 75.0133C87.1699 74.3452 88.0116 74.0776 88.696 74.4346L109.062 85.0581C110.322 85.7157 110.815 87.2766 110.103 88.5072ZM114.455 79.1904C113.968 80.5266 112.458 81.1429 111.145 80.5982L89.9201 71.7967C89.2108 71.5026 88.8764 70.6925 89.1392 69.971C89.4019 69.2495 90.1805 68.8392 90.9129 69.0699L112.828 75.9734C114.185 76.4007 114.941 77.8542 114.455 79.1904ZM117.111 69.2593C116.866 70.6596 115.488 71.527 114.099 71.2206L91.6662 66.2684C90.9141 66.1024 90.4408 65.3651 90.5738 64.6064C90.7068 63.8477 91.4046 63.3018 92.1684 63.4015L114.949 66.373C116.358 66.5569 117.357 67.8589 117.111 69.2593Z" fill="url(#paint0_linear_389_4080)"/>
<path d="M104.673 59.4707C104.955 34.223 85.6069 13.5453 61.4585 13.2857C37.3101 13.0261 17.5057 33.283 17.2242 58.5307C16.9426 83.7784 36.2905 104.456 60.4389 104.716C84.5873 104.975 104.392 84.7184 104.673 59.4707Z" fill="#AB29CC"/>
<path d="M93.101 59.4648C93.3369 38.3598 77.1608 21.0746 56.9708 20.857C36.7807 20.6395 20.2222 37.5721 19.9862 58.677C19.7503 79.782 35.9264 97.0672 56.1164 97.2848C76.3065 97.5023 92.865 80.5697 93.101 59.4648Z" fill="#B522E9"/>
<path d="M41.3955 101.982C18.7646 93.2626 7.17868 66.9506 15.5187 43.2942C23.8813 19.6377 49.0818 7.46649 71.6902 16.1634C94.321 24.8603 105.929 51.1944 97.5669 74.8509C89.2043 98.5073 64.0038 110.679 41.3955 101.982ZM69.2107 23.2006C50.299 15.92 29.2235 26.0996 22.2584 45.8833C15.2708 65.6671 24.9858 87.686 43.8975 94.9445C62.7866 102.225 83.8621 92.0455 90.8497 72.2617C97.8148 52.4779 88.1223 30.4591 69.2107 23.2006Z" fill="#F761D6"/>
<path d="M18.0208 44.2447C26.2256 21.0308 50.6371 8.8817 72.9299 16.6492C72.5242 16.4721 72.0959 16.3172 71.6902 16.1402C49.0818 7.46542 23.8813 19.6367 15.5187 43.2931C7.17868 66.9496 18.7646 93.2616 41.3955 101.981C41.8237 102.135 42.2295 102.29 42.6577 102.445C20.8609 93.2615 9.81594 67.4585 18.0208 44.2447Z" fill="#F579F8"/>
<path d="M69.2107 23.1997C68.85 23.0669 68.4668 22.9341 68.1062 22.8014C86.2965 30.4803 95.4931 52.0344 88.6407 71.4199C81.8109 90.8054 61.4116 100.963 42.793 94.501C43.1536 94.6559 43.5143 94.8108 43.8749 94.9436C62.7866 102.224 83.8621 92.0446 90.8497 72.2608C97.8148 52.477 88.1223 30.4582 69.2107 23.1997Z" fill="#CE11B0"/>
<path d="M44.6634 81.4628C43.043 81.4628 41.7004 81.1482 40.6356 80.519C39.6171 79.8898 38.9227 79.0509 38.5523 78.0022C38.1819 76.9116 38.1819 75.7371 38.5523 74.4787C38.9227 73.1783 39.6866 71.878 40.844 70.5776L64.8022 43.3332V46.6051H43.6912C41.8856 46.6051 40.5199 46.2066 39.594 45.4096C38.668 44.5706 38.2051 43.3752 38.2051 41.8231C38.2051 40.2711 38.668 39.0966 39.594 38.2996C40.5199 37.5026 41.8856 37.1041 43.6912 37.1041H70.7744C72.3948 37.1041 73.7142 37.4187 74.7328 38.0479C75.7976 38.6771 76.5152 39.5161 76.8855 40.5647C77.2559 41.6134 77.2559 42.7879 76.8855 44.0883C76.5152 45.3886 75.7513 46.689 74.5939 47.9893L50.6356 75.2337V71.9619H72.8578C74.617 71.9619 75.9596 72.3604 76.8855 73.1574C77.8577 73.9544 78.3439 75.1289 78.3439 76.6809C78.3439 78.2329 77.8577 79.4284 76.8855 80.2673C75.9596 81.0643 74.617 81.4628 72.8578 81.4628H44.6634Z" fill="#8711A5"/>
<path d="M41.7962 78.6904C40.1758 78.6904 38.8333 78.3758 37.7684 77.7466C36.7499 77.1174 36.0555 76.2785 35.6851 75.2298C35.3147 74.1392 35.3147 72.9647 35.6851 71.7063C36.0555 70.4059 36.8194 69.1056 37.9768 67.8052L61.935 40.5608V43.8326H40.824C39.0184 43.8326 37.6527 43.4341 36.7268 42.6372C35.8009 41.7982 35.3379 40.6027 35.3379 39.0507C35.3379 37.4987 35.8009 36.3242 36.7268 35.5272C37.6527 34.7302 39.0184 34.3317 40.824 34.3317H67.9072C69.5276 34.3317 70.847 34.6463 71.8656 35.2755C72.9304 35.9047 73.648 36.7436 74.0183 37.7923C74.3887 38.841 74.3887 40.0155 74.0183 41.3158C73.648 42.6162 72.8841 43.9165 71.7267 45.2169L47.7684 72.4613V69.1895H69.9906C71.7498 69.1895 73.0924 69.588 74.0183 70.3849C74.9906 71.1819 75.4767 72.3564 75.4767 73.9085C75.4767 75.4605 74.9906 76.656 74.0183 77.4949C73.0924 78.2919 71.7498 78.6904 69.9906 78.6904H41.7962Z" fill="#F761D6"/>
<defs>
<linearGradient id="paint0_linear_389_4080" x1="59" y1="0" x2="59" y2="118" gradientUnits="userSpaceOnUse">
<stop stop-color="#C4B5FD"/>
<stop offset="0.0001" stop-color="#979BFF"/>
<stop offset="1" stop-color="#EF36C6"/>
</linearGradient>
</defs>
</svg>
