<svg viewBox="0 0 123 123" fill="none" xmlns="http://www.w3.org/2000/svg">
<path d="M50.7812 49.25C50.8102 48.2267 50.6337 47.2081 50.2621 46.2542C49.8905 45.3004 49.3314 44.4308 48.6179 43.6968C47.9043 42.9628 47.0509 42.3793 46.1079 41.9809C45.165 41.5825 44.1517 41.3772 43.1281 41.3772C42.1044 41.3772 41.0911 41.5825 40.1482 41.9809C39.2053 42.3793 38.3518 42.9628 37.6383 43.6968C36.9247 44.4308 36.3656 45.3004 35.9941 46.2542C35.6225 47.2081 35.4459 48.2267 35.4749 49.25C35.5312 51.2423 36.3623 53.134 37.7914 54.5233C39.2205 55.9125 41.135 56.6897 43.1281 56.6897C45.1211 56.6897 47.0356 55.9125 48.4647 54.5233C49.8938 53.134 50.7249 51.2423 50.7812 49.25ZM87.5312 49.25C87.5602 48.2267 87.3837 47.2081 87.0121 46.2542C86.6405 45.3004 86.0814 44.4308 85.3679 43.6968C84.6544 42.9628 83.8009 42.3793 82.8579 41.9809C81.915 41.5825 80.9017 41.3772 79.8781 41.3772C78.8544 41.3772 77.8411 41.5825 76.8982 41.9809C75.9553 42.3793 75.1018 42.9628 74.3883 43.6968C73.6747 44.4308 73.1156 45.3004 72.744 46.2542C72.3725 47.2081 72.1959 48.2267 72.2249 49.25C72.2812 51.2423 73.1123 53.134 74.5414 54.5233C75.9705 55.9125 77.885 56.6897 79.8781 56.6897C81.8711 56.6897 83.7856 55.9125 85.2147 54.5233C86.6438 53.134 87.4749 51.2423 87.5312 49.25ZM50.083 80.5242C49.0391 79.9115 47.7955 79.7356 46.6225 80.0347C45.4496 80.3338 44.4422 81.0838 43.8191 82.1216C43.1961 83.1594 43.0079 84.4012 43.2954 85.5771C43.5829 86.7529 44.3229 87.7677 45.3545 88.401C50.0524 91.2185 55.8895 92.5047 61.5 92.5047C67.1105 92.5047 72.9538 91.2185 77.6455 88.401C78.1691 88.0937 78.6265 87.6857 78.9914 87.2005C79.3563 86.7153 79.6215 86.1626 79.7715 85.5744C79.9215 84.9861 79.9534 84.374 79.8654 83.7733C79.7774 83.1726 79.5712 82.5954 79.2588 82.0749C78.9463 81.5544 78.5338 81.101 78.045 80.7409C77.5563 80.3808 77.001 80.1211 76.4113 79.9769C75.8216 79.8327 75.2091 79.8069 74.6094 79.9008C74.0096 79.9947 73.4344 80.2066 72.917 80.5242C69.9586 82.3005 65.8487 83.3172 61.5 83.3172C57.1512 83.3172 53.0475 82.3005 50.083 80.5242ZM122.762 61.5C122.762 27.6655 95.3345 0.237732 61.5 0.237732C27.6655 0.237732 0.250001 27.6655 0.250001 61.5C0.243876 95.3284 27.6655 122.75 61.5 122.75C95.3345 122.75 122.762 95.3222 122.762 61.4939V61.5ZM9.43138 61.5C9.3567 54.6143 10.6484 47.7822 13.2318 41.3991C15.8151 35.0159 19.6388 29.2086 24.4815 24.313C29.3242 19.4175 35.0898 15.5311 41.4445 12.8786C47.7993 10.2262 54.617 8.86048 61.5031 8.86048C68.3891 8.86048 75.2068 10.2262 81.5616 12.8786C87.9163 15.5311 93.6819 19.4175 98.5246 24.313C103.367 29.2086 107.191 35.0159 109.774 41.3991C112.358 47.7822 113.649 54.6143 113.575 61.5C113.426 75.2124 107.874 88.3128 98.1253 97.9568C88.3761 107.601 75.2163 113.01 61.5031 113.01C47.7898 113.01 34.63 107.601 24.8809 97.9568C15.1317 88.3128 9.5801 75.2124 9.43138 61.5Z" fill="white"/>
</svg>
