<svg width="42" height="42" viewBox="0 0 42 42" fill="none" xmlns="http://www.w3.org/2000/svg">
<path d="M19 22.5C19.4958 22.5 19.9118 22.332 20.2478 21.996C20.5826 21.6612 20.75 21.2458 20.75 20.75C20.75 20.2542 20.5826 19.8382 20.2478 19.5022C19.9118 19.1674 19.4958 19 19 19C18.5042 19 18.0888 19.1674 17.754 19.5022C17.418 19.8382 17.25 20.2542 17.25 20.75C17.25 21.2458 17.418 21.6612 17.754 21.996C18.0888 22.332 18.5042 22.5 19 22.5ZM12 36.5V33L22.5 31.25V11.7812C22.5 11.3438 22.3687 10.95 22.1062 10.6C21.8438 10.25 21.5083 10.0458 21.1 9.9875L12 8.5V5L21.625 6.575C22.9083 6.80833 23.9583 7.40625 24.775 8.36875C25.5917 9.33125 26 10.4542 26 11.7375V31.1625C26 32.0083 25.7229 32.7597 25.1687 33.4165C24.6146 34.0722 23.9146 34.4729 23.0688 34.6187L12 36.5ZM12 33H29.5V8.5H12V33ZM6.75 36.5C6.25417 36.5 5.83883 36.332 5.504 35.996C5.168 35.6612 5 35.2458 5 34.75C5 34.2542 5.168 33.8388 5.504 33.504C5.83883 33.168 6.25417 33 6.75 33H8.5V8.5C8.5 7.50833 8.843 6.67708 9.529 6.00625C10.2138 5.33542 11.0375 5 12 5H29.5C30.4917 5 31.3229 5.33542 31.9937 6.00625C32.6646 6.67708 33 7.50833 33 8.5V33H34.75C35.2458 33 35.6612 33.168 35.996 33.504C36.332 33.8388 36.5 34.2542 36.5 34.75C36.5 35.2458 36.332 35.6612 35.996 35.996C35.6612 36.332 35.2458 36.5 34.75 36.5H6.75Z" fill="#C4B5FD"/>
</svg>
