<svg width="20" height="20" viewBox="0 0 20 20" fill="none" xmlns="http://www.w3.org/2000/svg">
<path d="M10 12.5C11.3807 12.5 12.5 11.3807 12.5 10C12.5 8.61929 11.3807 7.5 10 7.5C8.61929 7.5 7.5 8.61929 7.5 10C7.5 11.3807 8.61929 12.5 10 12.5Z" fill="#A78BFA"/>
<path d="M19.3375 9.7875C18.6024 7.88603 17.3262 6.24164 15.6667 5.05755C14.0073 3.87347 12.0372 3.20161 9.99999 3.125C7.96282 3.20161 5.99274 3.87347 4.33324 5.05755C2.67375 6.24164 1.39759 7.88603 0.662494 9.7875C0.612848 9.92482 0.612848 10.0752 0.662494 10.2125C1.39759 12.114 2.67375 13.7584 4.33324 14.9424C5.99274 16.1265 7.96282 16.7984 9.99999 16.875C12.0372 16.7984 14.0073 16.1265 15.6667 14.9424C17.3262 13.7584 18.6024 12.114 19.3375 10.2125C19.3871 10.0752 19.3871 9.92482 19.3375 9.7875ZM9.99999 14.0625C9.19651 14.0625 8.41106 13.8242 7.74299 13.3778C7.07491 12.9315 6.55421 12.297 6.24673 11.5547C5.93925 10.8123 5.8588 9.99549 6.01555 9.20745C6.17231 8.4194 6.55922 7.69553 7.12737 7.12738C7.69552 6.55923 8.41939 6.17231 9.20744 6.01556C9.99549 5.85881 10.8123 5.93926 11.5546 6.24674C12.297 6.55422 12.9314 7.07492 13.3778 7.743C13.8242 8.41107 14.0625 9.19651 14.0625 10C14.0608 11.0769 13.6323 12.1093 12.8708 12.8708C12.1093 13.6323 11.0769 14.0608 9.99999 14.0625Z" fill="#A78BFA"/>
</svg>
