<svg width="42" height="42" viewBox="0 0 42 42" fill="none" xmlns="http://www.w3.org/2000/svg">
<path d="M37.0375 19.625H39.75V23.125H37.0375C36.25 30.4225 30.4225 36.25 23.125 37.0375V39.75H19.625V37.0375C12.3275 36.25 6.5 30.4225 5.7125 23.125H3V19.625H5.7125C6.5 12.3275 12.3275 6.5 19.625 5.7125V3H23.125V5.7125C30.4225 6.5 36.25 12.3275 37.0375 19.625ZM9.2475 19.625H11.75V23.125H9.2475C9.6194 25.7456 10.8324 28.1744 12.704 30.046C14.5756 31.9176 17.0044 33.1306 19.625 33.5025V31H23.125V33.5025C25.7456 33.1306 28.1744 31.9176 30.046 30.046C31.9176 28.1744 33.1306 25.7456 33.5025 23.125H31V19.625H33.5025C33.1306 17.0044 31.9176 14.5756 30.046 12.704C28.1744 10.8324 25.7456 9.6194 23.125 9.2475V11.75H19.625V9.2475C17.0044 9.6194 14.5756 10.8324 12.704 12.704C10.8324 14.5756 9.6194 17.0044 9.2475 19.625ZM28.375 28.375H14.375V26.625C14.375 24.2975 19.0475 23.125 21.375 23.125C23.7025 23.125 28.375 24.2975 28.375 26.625V28.375ZM21.375 14.375C22.3033 14.375 23.1935 14.7437 23.8499 15.4001C24.5063 16.0565 24.875 16.9467 24.875 17.875C24.875 18.8033 24.5063 19.6935 23.8499 20.3499C23.1935 21.0063 22.3033 21.375 21.375 21.375C20.4467 21.375 19.5565 21.0063 18.9001 20.3499C18.2437 19.6935 17.875 18.8033 17.875 17.875C17.875 16.9467 18.2437 16.0565 18.9001 15.4001C19.5565 14.7437 20.4467 14.375 21.375 14.375Z" fill="#C4B5FD"/>
</svg>
