<svg width="512.000000pt" height="512.000000pt" viewBox="0 0 154 131" fill="none" xmlns="http://www.w3.org/2000/svg">
<path d="M36.1189 33.4263C34.5199 33.0109 33.0075 32.5794 31.4085 32.1639C24.9059 35.6939 18.9901 40.452 13.539 45.3019C13.4696 47.8115 13.5027 50.3912 13.4333 52.9009C20.5751 45.5959 28.0442 39.5675 36.1189 33.4263Z" fill="url(#paint0_linear_389_4092)"/>
<path d="M82.1209 16.1167C83.0206 14.7007 83.8659 13.4732 84.7657 12.0572C91.9675 10.3586 99.4967 9.93662 106.917 9.89155C108.616 11.8042 110.385 13.6146 112.084 15.5272C101.844 14.8493 92.2612 15.2973 82.1209 16.1167Z" fill="url(#paint1_linear_389_4092)"/>
<path d="M143.055 55.4107C143.571 56.7412 144.017 58.174 144.534 59.5044C144.948 60.7648 145.361 62.0253 145.689 63.3018C146.645 66.512 147.342 69.7706 147.606 73.1098C147.924 76.2605 148.047 79.8042 147.28 82.8898C147.171 83.2667 147.078 83.7299 146.883 84.1229C146.563 84.8067 146.124 85.3343 145.567 85.7057C144.766 86.2115 143.831 86.475 142.895 86.7385C141.527 87.0825 140.159 87.4266 138.791 87.7706L134.774 88.7866C132.471 89.3941 130.474 87.8045 128.958 86.3928C123.746 81.4788 118.685 76.8933 112.926 72.8838C112.711 72.2105 112.582 71.5211 112.54 70.8156C112.454 70.8317 112.47 70.9179 112.383 70.934C112.069 71.1708 111.685 71.5099 111.387 71.8329C110.772 71.4126 110.173 71.0784 109.557 70.6581C107.436 69.3592 105.314 68.0603 103.122 66.8637C94.8625 67.6893 85.293 69.6506 77.2779 72.749C69.1763 75.8635 60.7743 80.7282 54.0801 85.6314C53.2544 87.9253 52.4448 90.3053 51.8243 92.7393C51.5907 93.407 51.4596 94.1448 51.226 94.8125C50.6909 94.823 50.1559 94.8335 49.7073 94.8279C50.1657 95.3667 50.5376 95.9216 50.7526 96.5949C49.1727 103.488 48.4739 110.305 47.8233 117.382C47.712 119.186 47.3188 121.399 45.8359 122.567C45.6085 122.788 45.365 122.922 45.1216 123.057C42.6711 124.316 40.134 125.591 37.6996 126.937C36.8827 127.356 35.9794 127.792 35.1144 127.953C34.9414 127.985 34.8549 128.002 34.6658 127.948C33.6822 127.953 32.7048 127.511 31.8843 126.95C29.2018 125.042 27.0123 122.419 25.0985 119.833C23.082 117.177 21.466 114.268 20.0069 111.24C19.5707 110.341 19.1346 109.441 18.6985 108.542C17.9449 106.899 17.2938 105.326 16.6266 103.667C14.6092 98.6033 12.9921 93.287 11.8075 87.8901C10.623 82.4932 9.85486 76.9296 9.44881 71.3877C9.281 68.5656 9.21575 65.8135 9.23701 63.0454C9.23961 61.6182 9.32871 60.1749 9.4178 58.7316C9.47841 58.0961 9.52296 57.3745 9.58357 56.739C9.60584 56.3782 9.64417 56.1036 9.66645 55.7427L9.72705 55.1073C14.092 50.1922 18.7646 45.4874 23.7771 41.1651C24.7027 40.3685 25.5578 39.6741 26.4835 38.8775C27.4189 38.614 28.3865 38.5229 29.2836 38.5341C28.8734 38.2538 28.3927 38.0759 27.896 37.8118C31.9444 34.5608 36.2301 31.6222 40.6505 28.9261C40.5505 27.4288 40.4827 26.104 40.3827 24.6067C44.7674 20.7581 49.6586 17.7067 55.1749 15.6088C60.6913 13.511 66.3299 12.5496 72.1291 12.4499C73.062 13.6136 73.8762 14.6211 74.8251 15.871C79.8422 14.9362 84.9235 14.3461 90.0529 14.0146C89.8898 14.58 89.624 15.0753 89.5474 15.6246C90.3161 14.9464 91.2033 14.4244 92.0906 13.9024C94.5769 13.7958 97.1657 13.7593 99.668 13.7389C104.964 13.8221 110.293 14.0777 115.512 14.7102C115.599 14.6941 115.955 15.1628 115.955 15.1628C116.176 15.3891 116.483 15.5993 116.705 15.8255C117.147 16.2781 117.676 16.7146 118.134 17.2534C119.137 18.3148 120.211 19.2739 121.128 20.3514C121.808 21.1165 122.574 21.8655 123.269 22.7167C124.407 24.0205 125.545 25.3243 126.613 26.7305C130.107 31.0728 133.201 35.6681 135.894 40.5164C138.728 45.16 141.108 50.2451 143.055 55.4107Z" fill="url(#paint2_linear_389_4092)"/>
<path d="M99.7227 13.5505C99.7387 13.6366 99.6522 13.6527 99.6683 13.7389C98.6991 17.6646 96.304 21.990.9 93.537 24.0656C92.557 25.0507 91.6635 26.0197 90.581 26.9348C77.5234 38.9978 58.5336 47.0836 40.8237 43.7849C38.4141 43.3422 36.0206 42.9857 33.627 42.6291C31.0444 42.2186 28.3753 41.8243 25.7927 41.4138C25.1391 41.2681 24.5014 41.2085 23.7613 41.0789C24.6869 40.2823 25.5421 39.588 26.4677 38.7913C27.4031 38.5279 28.3707 38.4367 29.2678 38.4479C28.8576 38.1677 28.3769 37.9897 27.8802 37.7256C31.9286 34.4746 36.2143 31.536 40.6347 28.8399C40.5347 27.3427 40.4669 26.0178 40.3669 24.5206C44.7516 20.6719 49.6428 17.6205 55.1592 15.5227C60.6755 13.4248 66.3142 12.4634 72.1134 12.3637C73.0462 13.5275 73.8605 14.5349 74.8094 15.7848C79.8264 14.85 84.9077 14.2599 90.0372 13.9284C89.874 14.4938 89.6083 14.9891 89.5316 15.5384C90.3003 14.8602 91.1876 14.3382 92.0748 13.8162C94.6315 13.6074 97.2204 13.5708 99.7227 13.5505Z" fill="url(#paint3_linear_389_4092)"/>
<path d="M144.415 59.3482C144.845 60.6948 145.259 61.9552 145.602 63.3179C146.559 66.5281 147.169 69.8028 147.519 73.1259C147.838 76.2766 147.961 79.8203 147.21 82.9921C147.101 83.369 147.008 83.8321 146.813 84.2252C146.493 84.909 146.054 85.4366 145.497 85.808C144.696 86.3138 143.76 86.5773 142.825 86.8408C141.457 87.1848 140.089 87.5289 138.721 87.8729C137.353 88.2169 135.985 88.561 134.617 88.905C132.314 89.5126 130.317 87.9229 128.801 86.5112C123.589 81.5972 118.528 77.0117 112.666 72.9322C112.451 72.2589 112.339 71.6557 112.297 70.9501C111.983 71.1869 111.599 71.5261 111.301 71.8491C110.686 71.4287 110.086 71.0945 109.471 70.6742C107.349 69.3753 105.228 68.0764 103.036 66.8798C94.7762 67.7054 85.2067 69.6667 77.1916 72.7651C69.09 75.8796 60.688 80.7444 53.9938 85.6475C53.1681 87.9414 52.3585 90.3214 51.738 92.7554C51.5043 93.4231 51.3733 94.1609 51.1397 94.8286C50.6046 94.8391 50.0696 94.8496 49.621 94.8441C50.0794 95.3828 50.4513 95.9377 50.6663 96.611C49.0864 103.504 48.3876 110.322 47.737 117.398C47.6256 119.202 47.2325 121.415 45.7495 122.583C45.5222 122.804 45.2787 122.939 45.0353 123.073C42.5847 124.332 40.0477 125.607 37.6133 126.953C36.7964 127.372 35.8931 127.808 35.0281 127.969C34.8551 128.002 34.7686 128.018 34.5795 127.964C33.5959 127.969 32.6185 127.527 31.798 126.966C29.1155 125.058 26.926 122.435 25.0121 119.849C22.9957 117.193 21.3797 114.284 19.9205 111.256C19.4684 110.271 19.0322 109.371 18.5801 108.385C18.5961 108.471 18.5961 108.471 18.6987 108.542C21.4465 113.201 24.7516 117.49 28.5115 121.337C28.7327 121.563 30.4306 121.068 30.7766 121.004C33.583 120.213 37.5004 117.7 38.9699 115.019C40.5482 111.961 40.3767 108.158 40.3881 104.857C40.4441 100.834 40.4136 96.8271 40.8316 92.8258C40.8699 92.5512 40.8378 92.3788 40.8761 92.1042C40.8984 91.7434 40.9207 91.3825 40.943 91.0217C40.9715 90.2139 40.8974 89.336 41.0124 88.5121C41.4055 86.2988 43.5002 84.571 45.0054 83.0422C49.0664 78.8972 53.5535 75.1186 58.4287 71.981C63.2878 68.7573 68.5188 66.0884 73.9487 64.0067C79.3785 61.925 85.0073 60.4304 90.7485 59.539C94.5706 58.916 98.4569 58.6378 102.305 58.6342C105.704 58.6249 108.027 59.0838 111.203 60.2754C113.228 61.0573 115.27 61.9253 117.17 62.9979C117.769 63.3321 118.369 63.6662 118.984 64.0866C122.423 66.2101 125.509 68.845 128.455 71.6846C132.151 75.1869 133.627 80.7078 139.996 79.3428C143.44 78.6119 145.816 76.4749 145.607 72.9473C145.48 68.4233 145.196 64.0178 144.48 59.6929C144.447 59.5205 144.431 59.4344 144.415 59.3482Z" fill="url(#paint4_linear_389_4092)"/>
<path d="M51.6069 63.711C48.6679 69.0737 41.0605 73.8795 41.0605 73.8795C39.8453 79.3669 39.5754 85.1239 40.2668 91.2368C44.0382 91.7825 47.6624 92.9798 51.1395 94.8286C50.6045 94.8391 50.0694 94.8497 49.6208 94.8441C50.0792 95.3828 50.4511 95.9377 50.6661 96.611C49.0862 103.504 48.3875 110.322 47.7368 117.398C47.5871 119.477 47.1557 121.965 45.0351 123.073C42.5846 124.332 40.0475 125.607 37.6131 126.953C36.7962 127.372 35.8929 127.808 35.0279 127.969C33.9034 128.179 32.7369 127.683 31.9004 127.036C29.2178 125.128 27.0284 122.505 25.1145 119.919C23.0981 117.263 21.482 114.354 20.0229 111.326C18.8492 108.87 17.6595 106.328 16.6427 103.753C14.6092 98.6033 12.9921 93.287 11.8076 87.8901C10.623 82.4933 9.85488 76.9296 9.44883 71.3877C9.28102 68.5656 9.21577 65.8135 9.23703 63.0454C9.23962 61.6182 9.32872 60.1749 9.41782 58.7316C9.47843 58.0961 9.52298 57.3745 9.58358 56.739C9.60586 56.3782 9.64419 56.1036 9.66646 55.7427L9.72707 55.1073C14.9151 49.3255 20.5133 43.8241 26.57 38.8614C27.5054 38.5979 28.473 38.5068 29.3701 38.518C28.9599 38.2377 28.4792 38.0598 27.9825 37.7957C27.9825 37.7957 41.4124 34.9367 49.026 44.575C55.4213 52.4785 53.6078 60.039 51.6069 63.711Z" fill="url(#paint5_linear_389_4092)"/>
<path d="M89.9623 49.0745C95.8008 51.1075 104.656 49.636 104.656 49.636C109.201 52.8909 113.284 57.0343 116.804 61.996C114.297 64.8707 112.405 68.1658 111.128 71.8813C111.512 71.5422 111.897 71.2031 112.281 70.864C112.323 71.5695 112.451 72.2589 112.666 72.9322C118.442 77.0279 123.589 81.5972 128.714 86.5273C130.231 87.939 132.227 89.5287 134.531 88.9212C137.267 88.2331 139.916 87.5611 142.652 86.873C143.587 86.6095 144.523 86.3461 145.237 85.8563C146.195 85.232 146.694 84.069 146.95 83.0404C147.615 79.8848 147.508 76.4272 147.276 73.2604C146.925 69.9374 146.229 66.6788 145.359 63.4524C144.602 60.8293 143.742 58.1361 142.725 55.5614C140.778 50.3957 138.399 45.3107 135.705 40.4624C133.012 35.6142 129.832 31.035 126.424 26.6765C124.677 24.5053 122.859 22.4364 120.955 20.3837C119.952 19.3223 118.949 18.2608 117.961 17.2856C117.519 16.833 116.99 16.3965 116.532 15.8578C116.311 15.6315 116.003 15.4213 115.782 15.195C115.782 15.195 115.339 14.7424 115.253 14.7585C107.569 13.8718 99.7226 13.5504 91.9178 13.9346C91.101 14.3543 90.3163 14.9464 89.5316 15.5384C89.7108 15.0592 89.89 14.58 90.0692 14.1007C90.0692 14.1007 78.102 20.9672 78.9338 33.1174C79.6558 43.2372 86.0304 47.6671 89.9623 49.0745Z" fill="url(#paint6_linear_389_4092)"/>
<path d="M50.9846 61.3303C49.1514 67.8245 40.6728 73.2385 40.6728 73.2385C39.0572 78.9787 38.8836 85.2528 39.9791 92.093C40.2546 92.1308 40.6006 92.0664 40.8762 92.1042C43.6862 92.294 46.5702 93.3616 49.5346 94.8602C49.993 95.3989 50.3649 95.9538 50.5798 96.6271C49 103.52 48.3012 110.338 47.6506 117.414C47.491 118.96 47.2227 120.882 46.2044 122.142C46.0635 122.346 45.9065 122.465 45.6792 122.686C45.4518 122.906 45.2083 123.041 44.9649 123.175C42.5143 124.434 39.9773 125.71 37.5429 127.055C36.726 127.475 35.8227 127.91 34.9577 128.072C34.7847 128.104 34.6982 128.12 34.5091 128.066C33.5255 128.071 32.5481 127.629 31.7276 127.068C29.0451 125.161 26.8556 122.537 24.9417 119.951C22.9253 117.295 21.3093 114.386 19.8502 111.359C19.398 110.373 18.9619 109.473 18.5097 108.488C17.7721 106.931 17.121 105.358 16.4699 103.785C14.6094 98.6033 12.9924 93.287 11.8078 87.8901C10.6232 82.4933 9.85511 76.9296 9.44905 71.3877C9.28125 68.5656 9.216 65.8135 9.23725 63.0454C9.23985 61.6182 9.32895 60.1749 9.41805 58.7316C9.47865 58.0961 9.5232 57.3745 9.58381 56.739C9.60608 56.3782 9.64442 56.1036 9.66669 55.7427C9.66669 55.7427 9.6408 55.1234 9.7273 55.1073C14.9153 49.3255 20.5136 43.8241 26.5702 38.8614C27.5057 38.5979 28.4732 38.5068 29.3703 38.518C29.3703 38.518 38.7731 36.1419 46.7798 43.5668C54.0044 50.1567 52.2034 56.8232 50.9846 61.3303Z" fill="url(#paint7_linear_389_4092)"/>
<path d="M17.5772 101.082C17.9916 96.1006 18.406 91.1191 18.7339 86.1538C19.7124 74.1121 21.4088 62.5609 28.4693 52.4177C30.81 49.1282 32.2055 45.569 34.2546 42.1555C34.7316 41.3532 35.2087 40.551 35.7562 39.6465C33.4331 39.1876 31.0235 38.7449 28.704 39.2663C25.7951 39.9866 23.2011 42.8774 21.1707 44.95C19.438 46.6995 17.5806 48.7397 15.8801 50.6616C15.057 51.5283 14.3365 52.4651 13.5295 53.4179C13.1612 53.8432 12.793 54.2685 12.4247 54.6938C12.1973 54.9145 12.0725 55.2053 11.9637 55.5822C11.5348 56.643 11.0194 57.7199 11.0712 58.9586C11.1069 60.1111 11.0562 61.2797 11.108 62.5184C11.1794 64.8235 11.2669 67.2147 11.441 69.5898C11.847 75.1318 12.5126 80.6253 13.3672 86.1728C13.7624 88.7743 14.1737 91.4618 14.9148 93.9988C15.2261 95.1891 15.6944 96.2611 16.0922 97.4353C16.4257 98.2648 17.6761 100.172 17.5772 101.082Z" fill="url(#paint8_linear_389_4092)"/>
<path d="M143.055 55.4107C143.555 56.655 143.985 58.0016 144.415 59.3482C144.845 60.6948 145.259 61.9552 145.602 63.3179C146.558 66.5281 147.169 69.8028 147.519 73.1259C147.838 76.2766 147.961 79.8203 147.209 82.9921C147.101 83.369 147.008 83.8321 146.813 84.2252C146.493 84.909 146.054 85.4366 145.496 85.808C144.696 86.3138 143.76 86.5773 142.825 86.8408C141.457 87.1848 140.089 87.5289 138.721 87.8729C137.353 88.217 135.985 88.561 134.617 88.9051C132.314 89.5126 130.317 87.9229 128.801 86.5112C123.589 81.5972 118.528 77.0117 112.666 72.9322C112.451 72.2589 112.339 71.6557 112.297 70.9501L112.281 70.864C113.481 67.6978 114.934 64.9303 116.981 62.9439C117.208 62.7232 117.365 62.6048 117.593 62.3841C113.841 56.6629 109.488 52.0348 104.425 48.8765C104.425 48.8765 94.4291 50.4714 88.7501 46.8928C84.7985 44.419 78.9848 40.598 79.9323 30.7913C80.9465 19.9022 89.5857 15.35 89.5857 15.35C90.284 14.774 91.1552 14.1659 91.972 13.7462C99.7768 13.362 107.71 13.6672 115.394 14.554C115.48 14.5378 115.836 15.0065 115.922 14.9904C116.144 15.2167 116.451 15.4269 116.672 15.6532C117.115 16.1058 117.644 16.5423 118.102 17.081C119.192 18.1263 120.179 19.1016 121.096 20.1791C121.775 20.9442 122.542 21.6931 123.237 22.5443C124.375 23.8482 125.513 25.152 126.581 26.5581C130.075 30.9005 133.169 35.4958 135.862 40.344C138.728 45.16 141.108 50.2451 143.055 55.4107Z" fill="url(#paint9_linear_389_4092)"/>
<path d="M129.601 32.6829C130.361 33.8788 131.207 35.0586 131.881 36.2707C129.704 32.7529 125 31.0436 121.196 30.3255C116.739 29.4618 112.26 28.9589 107.828 28.7145C103.311 28.4862 98.8411 28.5165 94.3493 28.9076C90.3764 29.202 86.4518 29.7549 82.5753 30.5663C82.7991 29.3655 82.9203 28.0945 83.1441 26.8936C83.2207 26.3444 83.1948 25.725 83.4605 25.2297C85.4133 21.2991 88.0456 18.1336 91.4984 15.5286C91.8123 15.2917 92.1423 15.1411 92.4883 15.0766C93.6128 14.8671 94.699 14.9322 95.8556 14.8951C100.931 14.752 106.016 15.1421 110.937 16.0976C112.331 16.3729 114.039 16.4114 115.394 16.9613C117.128 17.6191 118.314 19.1815 119.625 20.4531C122.943 23.8475 125.946 27.4788 128.723 31.3307C128.976 31.7293 129.332 32.1981 129.601 32.6829Z" fill="url(#paint10_linear_389_4092)"/>
<path d="M66.0752 60.6587C67.4897 64.4077 64.7522 68.9303 59.8092 70.743C54.9688 72.6257 49.8482 71.0831 48.3471 67.3502C46.9326 63.6012 49.6701 59.0786 54.6131 57.2659C59.556 55.4532 64.6606 56.9097 66.0752 60.6587Z" fill="url(#paint11_linear_389_4092)"/>
<path d="M55.3841 70.0516C59.2321 70.048 63.1656 67.6209 64.7278 64.4764C66.29 61.332 65.4105 57.5724 62.5389 55.6108C59.7538 53.633 55.1978 53.6794 51.8921 55.6328C50.6044 56.4078 49.5379 57.409 48.7791 58.6204C48.0042 59.7456 47.4505 61.0971 47.3292 62.3681C47.208 63.639 47.4489 64.9317 48.0197 66.0737C48.5905 67.2157 49.5777 68.1909 50.7763 68.8593C51.9749 69.5276 53.4008 69.9753 54.8491 70.0621C55.0221 70.0299 55.1951 69.9976 55.3841 70.0516Z" fill="url(#paint12_linear_389_4092)"/>
<path d="M54.4662 66.5667C57.574 66.4335 60.9662 64.4639 62.3974 62.0572C63.8286 59.6505 63.2122 56.8228 60.9176 55.5562C58.6934 54.1872 54.9801 54.4333 52.1453 56.0315C51.101 56.6719 50.1754 57.4685 49.4389 58.3191C48.7184 59.2559 48.2734 60.2304 48.088 61.1567C47.9186 62.1691 48.0792 63.0308 48.4992 63.8443C48.9193 64.6577 49.7558 65.3043 50.6628 65.8487C51.6402 66.2907 52.7745 66.6144 54.0177 66.5611C54.2067 66.6151 54.2932 66.5989 54.4662 66.5667Z" fill="url(#paint13_linear_389_4092)"/>
<path d="M62.1729 60.8508C62.2816 60.4738 62.4065 60.1831 62.4287 59.8222C62.5598 59.0845 62.3288 58.325 61.6269 57.9208C61.1302 57.6566 60.3196 57.6294 59.7462 57.9145C59.0863 58.2158 58.6476 58.7434 58.2953 59.2549C57.1745 60.4446 55.8645 61.5803 54.4038 62.3875C53.43 62.9256 51.8829 63.7489 52.0916 64.8692C52.3164 66.0756 54.2676 65.9796 55.5812 65.824C58.6569 65.5184 61.2607 63.1608 62.1729 60.8508Z" fill="url(#paint14_linear_389_4092)"/>
<path d="M92.8945 50.4007C94.3091 54.1497 91.5716 58.6723 86.6286 60.485C81.7881 62.3677 76.6675 60.8251 75.1665 57.0922C73.7519 53.3432 76.4894 48.8206 81.4324 47.0079C86.3754 45.1953 91.48 46.6517 92.8945 50.4007Z" fill="url(#paint15_linear_389_4092)"/>
<path d="M82.2035 59.7936C86.0515 59.79 89.9849 57.3629 91.5472 54.2184C93.1094 51.074 92.2299 47.3145 89.3583 45.3528C86.5732 43.375 82.0171 43.4214 78.7114 45.3749C77.4237 46.1498 76.3572 47.151 75.5984 48.3624C74.8235 49.4876 74.2698 50.8392 74.1486 52.1101C74.0274 53.381 74.2682 54.6737 74.839 55.8157C75.4098 56.9577 76.397 57.9329 77.5956 58.6013C78.7942 59.2696 80.2202 59.7173 81.6684 59.8041C81.8414 59.7719 82.0144 59.7397 82.2035 59.7936Z" fill="url(#paint16_linear_389_4092)"/>
<path d="M81.2856 56.3087C84.3934 56.1755 87.7856 54.206 89.2167 51.7993C90.6479 49.3926 90.0315 46.5649 87.7369 45.2982C85.5128 43.9293 81.7995 44.1753 78.9646 45.7735C77.9204 46.4139 76.9948 47.2105 76.2582 48.0611C75.5377 48.9979 75.0928 49.9725 74.9073 50.8987C74.7379 51.9111 74.8985 52.7729 75.3186 53.5863C75.7386 54.3997 76.5752 55.0463 77.4821 55.5907C78.4595 56.0328 79.5939 56.3564 80.837 56.3031C81.0261 56.3571 81.1126 56.341 81.2856 56.3087Z" fill="url(#paint17_linear_389_4092)"/>
<path d="M88.9922 50.5928C89.101 50.2159 89.2258 49.9251 89.2481 49.5643C89.3791 48.8265 89.1481 48.067 88.4463 47.6628C87.9495 47.3987 87.1389 47.3714 86.5655 47.6566C85.9056 47.9578 85.4669 48.4854 85.1147 48.9969C83.9938 50.1866 82.6838 51.3223 81.2232 52.1295C80.2494 52.6676 78.7022 53.4909 78.9109 54.6112C79.1357 55.8177 81.0869 55.7216 82.4005 55.566C85.4762 55.2605 88.08 52.9028 88.9922 50.5928Z" fill="url(#paint18_linear_389_4092)"/>
<path d="M101.39 26.3473C102.556 24.436 103.464 21.1458 102.717 19.0559C102.566 18.7273 102.416 18.3987 102.108 18.1885C101.595 17.8382 100.958 17.7787 100.352 17.8915C97.757 18.375 95.3831 19.0848 93.3589 20.7103C92.8176 21.1678 92.6544 21.7333 92.9559 22.3904C93.6453 23.6887 94.9081 24.7017 96.1388 25.5424C97.0618 26.173 98.7027 27.2939 99.8754 27.3429C100.6 27.3864 101.054 26.9449 101.39 26.3473Z" fill="url(#paint19_linear_389_4092)"/>
<path d="M101.014 31.0541C99.8489 32.9654 98.9404 36.2556 99.6878 38.3455C99.8386 38.6741 99.9893 39.0027 100.297 39.2129C100.81 39.5632 101.447 39.6227 102.053 39.5099C104.648 39.0264 107.022 38.3166 109.046 36.6911C109.587 36.2336 109.75 35.6681 109.449 35.011C108.76 33.7127 107.497 32.6997 106.266 31.859C105.343 31.2284 103.702 30.1075 102.529 30.0585C101.821 30.1012 101.367 30.5426 101.014 31.0541Z" fill="url(#paint20_linear_389_4092)"/>
<path d="M103.737 28.8527C105.724 29.9091 109.181 30.6916 111.555 29.9818C111.885 29.8312 112.302 29.6644 112.513 29.3575C112.952 28.83 112.942 28.2968 112.829 27.6936C112.38 25.2806 111.616 23.1045 109.917 21.1918C109.459 20.6531 108.805 20.5074 108.145 20.8087C106.755 21.5135 105.618 22.617 104.773 23.8446C104.123 24.679 102.807 26.2618 102.842 27.4143C102.711 28.1521 103.154 28.6047 103.737 28.8527Z" fill="url(#paint21_linear_389_4092)"/>
<path d="M98.6683 28.5488C96.6814 27.4923 93.2239 26.7098 90.8501 27.4196C90.5201 27.5702 90.1037 27.737 89.8923 28.0439C89.4536 28.5715 89.4635 29.1046 89.5758 29.7079C90.0254 32.1208 90.7889 34.2969 92.4878 36.2096C92.9462 36.7483 93.5999 36.894 94.2598 36.5928C95.65 35.8879 96.787 34.7844 97.6323 33.5568C98.2824 32.7224 99.5985 31.1396 99.5628 29.9871C99.7099 29.3355 99.2676 28.8829 98.6683 28.5488Z" fill="url(#paint22_linear_389_4092)"/>
<path d="M92.756 34.287C94.3933 34.4278 96.0555 32.7806 97.2246 31.8494C98.2206 30.9505 99.1364 29.6207 97.7871 28.6237C97.3608 28.2573 96.8641 27.9932 96.2969 27.8314C94.8549 27.2976 92.753 27.065 91.2281 27.5275C88.5786 28.1994 89.929 31.6037 90.8396 33.1283C91.298 33.667 91.9294 34.1736 92.756 34.287Z" fill="url(#paint23_linear_389_4092)"/>
<path d="M93.4304 23.0154C93.5651 23.2578 93.7702 23.3979 93.9913 23.6242C94.4176 23.9906 94.9144 24.2547 95.4111 24.5189C96.6097 25.1872 97.7761 25.6832 99.2145 25.2369C99.9609 24.9195 100.617 23.638 100.937 22.9542C101.312 22.0819 101.568 21.0534 101.564 20.0732C101.586 19.7124 101.506 19.2815 101.355 18.9529C100.451 16.9814 97.5457 18.6819 96.2098 19.1983C94.6305 19.8492 92.007 21.1405 93.4304 23.0154Z" fill="url(#paint24_linear_389_4092)"/>
<path d="M104.144 28.1527C106.569 28.6816 111.487 28.6569 110.932 25.1938C110.755 24.2458 110.303 23.2601 109.883 22.4467C108.6 20.3672 106.944 21.5675 105.564 22.8055C104.725 23.586 103.988 24.4366 103.457 25.4273C103.098 26.3858 102.836 27.8613 104.144 28.1527Z" fill="url(#paint25_linear_389_4092)"/>
<path d="M99.5262 35.0764C99.405 36.3474 99.6459 37.64 101.462 37.3016C102.83 36.9575 104.166 36.4411 105.502 35.9247C106.162 35.6234 106.806 35.236 106.85 34.5143C106.873 34.1535 106.706 33.7387 106.555 33.4101C105.564 31.4547 102.067 28.5395 100.608 31.754C100.217 32.5402 99.9292 33.3963 99.7117 34.1502C99.6573 34.3387 99.5485 34.7156 99.5262 35.0764Z" fill="url(#paint26_linear_389_4092)"/>
<path d="M31.7919 52.9578C32.9573 51.0464 33.8658 47.7563 33.1184 45.6663C32.9677 45.3377 32.817 45.0091 32.5093 44.799C31.9965 44.4487 31.3589 44.3891 30.7534 44.502C28.1583 44.9855 25.7845 45.6953 23.7603 47.3208C23.219 47.7783 23.0558 48.3437 23.3573 49.0009C24.0467 50.2991 25.3095 51.3122 26.5402 52.1529C27.4632 52.7834 29.1041 53.9044 30.2768 53.9534C31.0009 53.9968 31.4557 53.5554 31.7919 52.9578Z" fill="url(#paint27_linear_389_4092)"/>
<path d="M31.3293 57.6807C30.1639 59.592 29.2553 62.8822 30.0028 64.9721C30.1535 65.3007 30.3042 65.6293 30.6119 65.8395C31.1247 66.1898 31.7623 66.2493 32.3678 66.1365C34.9628 65.653 37.3367 64.9432 39.3609 63.3177C39.9022 62.8601 40.0654 62.2947 39.7639 61.6376C39.0745 60.3393 37.8117 59.3263 36.581 58.4856C35.658 57.855 34.0171 56.7341 32.8444 56.6851C32.1363 56.7278 31.6815 57.1692 31.3293 57.6807Z" fill="url(#paint28_linear_389_4092)"/>
<path d="M34.0681 55.5654C36.055 56.6219 39.5124 57.4044 41.8863 56.6946C42.2162 56.5439 42.6327 56.3772 42.844 56.0703C43.2827 55.5427 43.2729 55.0095 43.1605 54.4063C42.7109 51.9934 41.9474 49.8173 40.2485 47.9046C39.7901 47.3658 39.1364 47.2201 38.4765 47.5214C37.0863 48.2263 35.9494 49.3298 35.104 50.5573C34.454 51.3918 33.1378 52.9745 33.1735 54.1271C33.0264 54.7787 33.4688 55.2312 34.0681 55.5654Z" fill="url(#paint29_linear_389_4092)"/>
<path d="M29.0697 55.1592C27.0827 54.1027 23.6253 53.3202 21.2514 54.03C20.9215 54.1807 20.505 54.3475 20.2937 54.6543C19.855 55.1819 19.8648 55.7151 19.9772 56.3183C20.4268 58.7313 21.1903 60.9074 22.8892 62.82C23.3476 63.3588 24.0013 63.5045 24.6612 63.2032C26.0514 62.4983 27.1884 61.3948 28.0337 60.1673C28.6837 59.3328 29.9999 57.7501 29.9642 56.5976C30.1113 55.946 29.6689 55.4934 29.0697 55.1592Z" fill="url(#paint30_linear_389_4092)"/>
<path d="M23.1574 60.8975C24.7947 61.0383 26.4569 59.3911 27.6259 58.4599C28.622 57.561 29.5378 56.2312 28.1885 55.2342C27.7622 54.8678 27.2655 54.6037 26.6983 54.4418C25.2563 53.908 23.1543 53.6755 21.6294 54.1379C18.98 54.8099 20.3303 58.2142 21.2409 59.7387C21.6128 60.2936 22.3307 60.784 23.1574 60.8975Z" fill="url(#paint31_linear_389_4092)"/>
<path d="M23.7452 49.642C23.8798 49.8844 24.085 50.0245 24.3061 50.2508C24.7324 50.6172 25.2291 50.8813 25.7259 51.1454C26.9244 51.8138 28.0909 52.3098 29.5293 51.8635C30.2757 51.5461 30.932 50.2646 31.2521 49.5808C31.6266 48.7085 31.8825 47.68 31.8789 46.6998C31.9011 46.339 31.8208 45.9081 31.6701 45.5795C30.7658 43.608 27.8605 45.3085 26.5246 45.8249C25.0318 46.4597 22.4083 47.751 23.7452 49.642Z" fill="url(#paint32_linear_389_4092)"/>
<path d="M34.5611 54.8494C36.9868 55.3783 41.9049 55.3536 41.3491 51.8904C41.1725 50.9425 40.7203 49.9567 40.3002 49.1433C39.0178 47.0639 37.3618 48.2641 35.9814 49.5022C35.1423 50.2827 34.4057 51.1333 33.8743 52.124C33.4998 52.9962 33.2377 54.4718 34.5611 54.8494Z" fill="url(#paint33_linear_389_4092)"/>
<path d="M29.8412 61.703C29.72 62.974 29.9608 64.2666 31.7773 63.9282C33.1453 63.5841 34.4811 63.0677 35.817 62.5513C36.4769 62.25 37.1207 61.8625 37.1653 61.1409C37.1875 60.7801 37.0208 60.3653 36.87 60.0367C35.8792 58.0813 32.3824 55.1661 30.9227 58.3806C30.5322 59.1667 30.2442 60.0229 30.0266 60.7768C29.9722 60.9653 29.9499 61.3261 29.8412 61.703Z" fill="url(#paint34_linear_389_4092)"/>
<path d="M71.0025 22.7358C62.1499 22.7802 53.5454 26.0776 47.0598 32.1011C51.8158 35.0492 58.5489 38.5206 64.0761 39.3633C67.1114 34.5176 70.0245 28.5356 71.0025 22.7358Z" fill="url(#paint35_linear_389_4092)"/>
<path d="M70.0325 24.2541C62.3525 24.3475 54.8244 27.1769 49.1779 32.4198C53.3186 34.9475 59.1607 37.9608 63.9639 38.76C66.6791 34.5982 69.2016 29.4023 70.0325 24.2541Z" fill="url(#paint36_linear_389_4092)"/>
<path d="M62.9061 37.8871C62.7186 33.9986 61.7045 29.9967 60.149 26.4523C57.6726 27.092 55.1133 28.728 53.1917 30.4236C54.657 33.004 56.6796 35.213 59.141 36.8944C60.2531 37.5789 61.5988 37.5957 62.9061 37.8871Z" fill="url(#paint37_linear_389_4092)"/>
<path d="M49.6207 94.8441C50.0791 95.3828 50.451 95.9377 50.6659 96.611C49.0861 103.504 48.3873 110.322 47.7367 117.398C47.5772 118.944 47.3088 120.866 46.2905 122.126C46.1496 122.33 45.9927 122.449 45.7653 122.669C45.5379 122.89 45.2944 123.025 45.051 123.159C42.6005 124.418 40.0635 125.694 37.629 127.039C36.8122 127.459 35.9088 127.894 35.0438 128.056C34.8708 128.088 34.7843 128.104 34.5952 128.05C33.6116 128.055 32.6342 127.613 31.8138 127.052C29.1312 125.145 26.9418 122.521 25.0279 119.935C23.0114 117.279 21.3954 114.37 19.9363 111.343C19.4841 110.357 19.048 109.457 18.5958 108.471C18.6119 108.558 18.6119 108.558 18.7144 108.628C21.4622 113.287 24.7674 117.576 28.5273 121.423C28.7484 121.649 30.4463 121.155 30.7923 121.09C33.5987 120.3 37.5161 117.786 38.9856 115.105C40.5639 112.047 40.3925 108.244 40.4039 104.943C40.4598 100.92 40.4293 96.9133 40.8473 92.912C40.8857 92.6374 40.8536 92.465 40.8919 92.1904C43.7723 92.2779 46.6564 93.3455 49.6207 94.8441Z" fill="url(#paint38_linear_389_4092)"/>
<path d="M144.415 59.3482C144.845 60.6948 145.259 61.9552 145.602 63.3179C146.558 66.5281 147.168 69.8028 147.519 73.1259C147.838 76.2766 147.961 79.8203 147.209 82.9921C147.101 83.369 147.008 83.8321 146.813 84.2252C146.492 84.909 146.054 85.4366 145.496 85.8079C144.696 86.3138 143.76 86.5773 142.825 86.8407C141.457 87.1848 140.089 87.5288 138.721 87.8729C137.353 88.2169 135.985 88.561 134.617 88.905C132.313 89.5126 130.317 87.9229 128.801 86.5112C123.589 81.5972 118.528 77.0117 112.666 72.9322C112.451 72.2589 112.339 71.6557 112.297 70.9501L112.281 70.8639C113.481 67.6978 114.934 64.9303 116.981 62.9439C117.58 63.2781 118.179 63.6123 118.795 64.0327C122.233 66.1561 125.32 68.7911 128.266 71.6306C131.961 75.1329 133.438 80.6538 139.806 79.2888C143.25 78.558 145.627 76.421 145.417 72.8933C145.29 68.3694 145.006 63.9639 144.29 59.639C144.447 59.5205 144.431 59.4344 144.415 59.3482Z" fill="url(#paint39_linear_389_4092)"/>
<path d="M15.0124 52.25C14.8555 52.3684 14.6985 52.4868 14.5416 52.6052C14.4551 52.6213 14.3686 52.6374 14.2981 52.7397C14.2116 52.7558 14.1412 52.8581 14.0707 52.9604C13.9138 53.0788 13.6864 53.2995 13.5294 53.4179C13.3725 53.5364 13.3181 53.7248 13.1612 53.8432C12.8633 54.1662 12.6681 54.5593 12.4728 54.9523C12.4023 55.0546 12.3319 55.1569 12.3479 55.2431C12.2775 55.3454 12.2231 55.5339 12.2392 55.62C12.1687 55.7223 12.1848 55.8085 12.2169 55.9809C12.2329 56.067 12.249 56.1532 12.2811 56.3256C12.3293 56.5841 12.5826 56.9828 12.9125 56.8321C13.172 56.7838 13.4315 56.7354 13.5724 56.5308C13.7294 56.4124 13.7998 56.3101 13.9568 56.1917C14.0272 56.0894 14.0111 56.0032 14.0976 55.9871C14.3794 55.5779 14.6773 55.2549 14.8725 54.8619C14.9269 54.6734 15.0839 54.555 15.1382 54.3665C15.1926 54.1781 15.3175 53.8873 15.3719 53.6988C15.3558 53.6127 15.4262 53.5104 15.4102 53.4242C15.3941 53.338 15.4646 53.2357 15.4485 53.1495C15.5029 52.9611 15.5573 52.7726 15.5252 52.6003C15.461 52.2555 15.1693 52.1315 15.0124 52.25Z" fill="#D0D0FF"/>
<path d="M87.7098 18.7312C87.6233 18.7473 87.5528 18.8496 87.5528 18.8496C87.4663 18.8658 87.3959 18.9681 87.3254 19.0703C87.2389 19.0865 87.1685 19.1888 87.082 19.2049C86.9955 19.221 87.0115 19.3072 86.925 19.3233C86.8385 19.3394 86.8385 19.3394 86.925 19.3233C86.7681 19.4417 86.5407 19.6624 86.3837 19.7808C86.3133 19.8831 86.2268 19.8992 86.2429 19.9854C86.1724 20.0877 86.0859 20.1038 86.0155 20.2061C85.945 20.3084 85.8041 20.513 85.7337 20.6153C85.5928 20.8199 85.4519 21.0244 85.311 21.229C85.2566 21.4175 85.0997 21.5359 85.0453 21.7244C84.9749 21.8267 84.9044 21.929 84.834 22.0313C84.7635 22.1336 84.7796 22.2197 84.7956 22.3059C84.8277 22.4783 84.8277 22.4783 84.8117 22.3921C84.7796 22.2197 84.8117 22.3921 84.8277 22.4783C84.7894 22.7529 84.8376 23.0114 85.1453 23.2216C85.3664 23.4479 85.6259 23.3996 85.8854 23.3512C85.9719 23.3351 86.1449 23.3029 86.2154 23.2006C86.3723 23.0822 86.5293 22.9637 86.5997 22.8614C86.7567 22.743 86.8975 22.5385 86.968 22.4362C87.1249 22.3177 87.1793 22.1293 87.3363 22.0109C87.4772 21.8063 87.7046 21.5856 87.7429 21.3109C87.7973 21.1225 87.8517 20.934 87.9221 20.8317C87.9765 20.6432 88.1013 20.3525 88.0692 20.1801L88.0532 20.0939C88.0371 20.0078 88.1075 19.9055 88.1075 19.9055C88.0915 19.8193 88.0754 19.7331 88.1459 19.6308C88.2003 19.4424 88.2547 19.2539 88.2225 19.0815C88.2288 18.6345 87.8667 18.6128 87.7098 18.7312Z" fill="#D0D0FF"/>
<defs>
<linearGradient id="paint0_linear_389_4092" x1="17.1133" y1="31.8249" x2="28.4112" y2="48.5832" gradientUnits="userSpaceOnUse">
<stop stop-color="#7D3759"/>
<stop offset="1" stop-color="#4D122C"/>
</linearGradient>
<linearGradient id="paint1_linear_389_4092" x1="95.1921" y1="2.27768" x2="97.9603" y2="22.2895" gradientUnits="userSpaceOnUse">
<stop stop-color="#7D3759"/>
<stop offset="1" stop-color="#4D122C"/>
</linearGradient>
<linearGradient id="paint2_linear_389_4092" x1="61.153" y1="30.9375" x2="80.3576" y2="81.1581" gradientUnits="userSpaceOnUse">
<stop stop-color="#735639"/>
<stop offset="1" stop-color="#421E13"/>
</linearGradient>
<linearGradient id="paint3_linear_389_4092" x1="78.6215" y1="67.0221" x2="61.6924" y2="27.0034" gradientUnits="userSpaceOnUse">
<stop stop-color="white"/>
<stop offset="1" stop-opacity="0"/>
</linearGradient>
<linearGradient id="paint4_linear_389_4092" x1="54.9628" y1="11.8282" x2="76.5637" y2="70.6538" gradientUnits="userSpaceOnUse">
<stop stop-color="#735639"/>
<stop offset="1" stop-color="#421E13"/>
</linearGradient>
<linearGradient id="paint5_linear_389_4092" x1="0.490381" y1="44.5128" x2="33.8169" y2="79.2821" gradientUnits="userSpaceOnUse">
<stop stop-color="#735639"/>
<stop offset="1" stop-color="#421E13"/>
</linearGradient>
<linearGradient id="paint6_linear_389_4092" x1="69.2306" y1="3.83568" x2="107.599" y2="38.4512" gradientUnits="userSpaceOnUse">
<stop stop-color="#735639"/>
<stop offset="1" stop-color="#421E13"/>
</linearGradient>
<linearGradient id="paint7_linear_389_4092" x1="51.5327" y1="127.04" x2="29.0134" y2="62.5995" gradientUnits="userSpaceOnUse">
<stop stop-color="#A237A6"/>
<stop offset="0.462" stop-color="#B46CC0"/>
<stop offset="0.9721" stop-color="#C7A2DB"/>
</linearGradient>
<linearGradient id="paint8_linear_389_4092" x1="9.81227" y1="30.0543" x2="54.6118" y2="137.541" gradientUnits="userSpaceOnUse">
<stop stop-color="#7A4BA8"/>
<stop offset="1" stop-color="#972DFF" stop-opacity="0"/>
</linearGradient>
<linearGradient id="paint9_linear_389_4092" x1="130.422" y1="99.475" x2="107.903" y2="35.0361" gradientUnits="userSpaceOnUse">
<stop stop-color="#A237A6"/>
<stop offset="0.462" stop-color="#B46CC0"/>
<stop offset="0.9721" stop-color="#C7A2DB"/>
</linearGradient>
<linearGradient id="paint10_linear_389_4092" x1="93.1632" y1="6.95526" x2="125.661" y2="32.4287" gradientUnits="userSpaceOnUse">
<stop stop-color="#7A4BA8"/>
<stop offset="1" stop-color="#3D0177" stop-opacity="0"/>
</linearGradient>
<linearGradient id="paint11_linear_389_4092" x1="51.9805" y1="53.8063" x2="57.9653" y2="65.5068" gradientUnits="userSpaceOnUse">
<stop stop-color="#735639"/>
<stop offset="1" stop-color="#421E13"/>
</linearGradient>
<linearGradient id="paint12_linear_389_4092" x1="50.6183" y1="53.3026" x2="61.0415" y2="69.1775" gradientUnits="userSpaceOnUse">
<stop stop-color="#7D3759"/>
<stop offset="1" stop-color="#4D122C"/>
</linearGradient>
<linearGradient id="paint13_linear_389_4092" x1="60.5503" y1="67.7859" x2="44.6627" y2="44.686" gradientUnits="userSpaceOnUse">
<stop stop-color="#7D3759"/>
<stop offset="1" stop-color="#4D122C"/>
</linearGradient>
<linearGradient id="paint14_linear_389_4092" x1="61.6407" y1="68.5115" x2="56.2227" y2="60.3135" gradientUnits="userSpaceOnUse">
<stop stop-color="#784E5E"/>
<stop offset="1"/>
</linearGradient>
<linearGradient id="paint15_linear_389_4092" x1="73.3412" y1="37.6054" x2="84.2299" y2="54.1432" gradientUnits="userSpaceOnUse">
<stop stop-color="#735639"/>
<stop offset="1" stop-color="#421E13"/>
</linearGradient>
<linearGradient id="paint16_linear_389_4092" x1="77.4336" y1="43.0491" x2="87.8568" y2="58.9241" gradientUnits="userSpaceOnUse">
<stop stop-color="#7D3759"/>
<stop offset="1" stop-color="#4D122C"/>
</linearGradient>
<linearGradient id="paint17_linear_389_4092" x1="87.3657" y1="57.5324" x2="71.4781" y2="34.4325" gradientUnits="userSpaceOnUse">
<stop stop-color="#7D3759"/>
<stop offset="1" stop-color="#4D122C"/>
</linearGradient>
<linearGradient id="paint18_linear_389_4092" x1="88.456" y1="58.258" x2="83.038" y2="50.0601" gradientUnits="userSpaceOnUse">
<stop stop-color="#784E5E"/>
<stop offset="1"/>
</linearGradient>
<linearGradient id="paint19_linear_389_4092" x1="95.2416" y1="15.0431" x2="101.885" y2="31.2602" gradientUnits="userSpaceOnUse">
<stop stop-color="#7D3759"/>
<stop offset="1" stop-color="#4D122C"/>
</linearGradient>
<linearGradient id="paint20_linear_389_4092" x1="107.177" y1="42.4073" x2="100.534" y2="26.1902" gradientUnits="userSpaceOnUse">
<stop stop-color="#7D3759"/>
<stop offset="1" stop-color="#4D122C"/>
</linearGradient>
<linearGradient id="paint21_linear_389_4092" x1="100.318" y1="17.3096" x2="110.068" y2="31.0156" gradientUnits="userSpaceOnUse">
<stop stop-color="#7D3759"/>
<stop offset="1" stop-color="#4D122C"/>
</linearGradient>
<linearGradient id="paint22_linear_389_4092" x1="89.6739" y1="24.9366" x2="99.4246" y2="38.6425" gradientUnits="userSpaceOnUse">
<stop stop-color="#7D3759"/>
<stop offset="1" stop-color="#4D122C"/>
</linearGradient>
<linearGradient id="paint23_linear_389_4092" x1="87.584" y1="21.9397" x2="96.4592" y2="35.2117" gradientUnits="userSpaceOnUse">
<stop stop-color="#784E5E"/>
<stop offset="1"/>
</linearGradient>
<linearGradient id="paint24_linear_389_4092" x1="93.1284" y1="16.3522" x2="99.5774" y2="24.4617" gradientUnits="userSpaceOnUse">
<stop stop-color="#784E5E"/>
<stop offset="1"/>
</linearGradient>
<linearGradient id="paint25_linear_389_4092" x1="98.5243" y1="16.2867" x2="109.681" y2="30.1226" gradientUnits="userSpaceOnUse">
<stop stop-color="#784E5E"/>
<stop offset="1"/>
</linearGradient>
<linearGradient id="paint26_linear_389_4092" x1="96.2628" y1="25.5768" x2="105.276" y2="39.5555" gradientUnits="userSpaceOnUse">
<stop stop-color="#784E5E"/>
<stop offset="1"/>
</linearGradient>
<linearGradient id="paint27_linear_389_4092" x1="25.5993" y1="41.6723" x2="32.2425" y2="57.8894" gradientUnits="userSpaceOnUse">
<stop stop-color="#7D3759"/>
<stop offset="1" stop-color="#4D122C"/>
</linearGradient>
<linearGradient id="paint28_linear_389_4092" x1="37.5349" y1="69.0366" x2="30.8917" y2="52.8195" gradientUnits="userSpaceOnUse">
<stop stop-color="#7D3759"/>
<stop offset="1" stop-color="#4D122C"/>
</linearGradient>
<linearGradient id="paint29_linear_389_4092" x1="30.6754" y1="43.9388" x2="40.4261" y2="57.6448" gradientUnits="userSpaceOnUse">
<stop stop-color="#7D3759"/>
<stop offset="1" stop-color="#4D122C"/>
</linearGradient>
<linearGradient id="paint30_linear_389_4092" x1="20.0317" y1="51.5659" x2="29.7823" y2="65.2717" gradientUnits="userSpaceOnUse">
<stop stop-color="#7D3759"/>
<stop offset="1" stop-color="#4D122C"/>
</linearGradient>
<linearGradient id="paint31_linear_389_4092" x1="17.9418" y1="48.5689" x2="26.817" y2="61.841" gradientUnits="userSpaceOnUse">
<stop stop-color="#784E5E"/>
<stop offset="1"/>
</linearGradient>
<linearGradient id="paint32_linear_389_4092" x1="23.486" y1="42.9814" x2="29.9351" y2="51.0909" gradientUnits="userSpaceOnUse">
<stop stop-color="#784E5E"/>
<stop offset="1"/>
</linearGradient>
<linearGradient id="paint33_linear_389_4092" x1="28.882" y1="42.916" x2="40.0386" y2="56.7519" gradientUnits="userSpaceOnUse">
<stop stop-color="#784E5E"/>
<stop offset="1"/>
</linearGradient>
<linearGradient id="paint34_linear_389_4092" x1="26.6207" y1="52.206" x2="35.6342" y2="66.1848" gradientUnits="userSpaceOnUse">
<stop stop-color="#784E5E"/>
<stop offset="1"/>
</linearGradient>
<linearGradient id="paint35_linear_389_4092" x1="50.4528" y1="6.28852" x2="63.4976" y2="38.7039" gradientUnits="userSpaceOnUse">
<stop stop-color="#735639"/>
<stop offset="1" stop-color="#421E13"/>
</linearGradient>
<linearGradient id="paint36_linear_389_4092" x1="63.304" y1="38.9022" x2="56.7561" y2="20.2323" gradientUnits="userSpaceOnUse">
<stop stop-color="#D674E3"/>
<stop offset="1" stop-color="#D617BD"/>
</linearGradient>
<linearGradient id="paint37_linear_389_4092" x1="55.637" y1="25.7039" x2="60.6351" y2="38.774" gradientUnits="userSpaceOnUse">
<stop stop-color="#AB799A"/>
<stop offset="1"/>
</linearGradient>
<linearGradient id="paint38_linear_389_4092" x1="30.387" y1="91.4423" x2="16.2477" y2="54.4679" gradientUnits="userSpaceOnUse">
<stop stop-color="#A237A6"/>
<stop offset="0.462" stop-color="#B46CC0"/>
<stop offset="0.9721" stop-color="#C7A2DB"/>
</linearGradient>
<linearGradient id="paint39_linear_389_4092" x1="124.516" y1="55.4495" x2="110.376" y2="18.4741" gradientUnits="userSpaceOnUse">
<stop stop-color="#A237A6"/>
<stop offset="0.462" stop-color="#B46CC0"/>
<stop offset="0.9721" stop-color="#C7A2DB"/>
</linearGradient>
</defs>
</svg>
