<svg width="36" height="27" viewBox="0 0 36 27" fill="none" xmlns="http://www.w3.org/2000/svg">
<path fill-rule="evenodd" clip-rule="evenodd" d="M15.6671 2.7345L14.7886 2.11325C13.535 1.22617 12.0369 0.749862 10.5011 0.75H9.43015C8.7214 0.75 8.0074 0.79375 7.34065 1.03C3.1704 2.5105 0.302148 7.91625 0.510398 20.1803C0.552398 22.6513 1.1299 25.3813 3.3594 26.447C4.11994 26.8127 4.95328 27.0017 5.79715 27C6.74565 27.0155 7.67744 26.7494 8.47465 26.2352C9.19215 25.7662 9.82215 25.1573 10.4521 24.5483C11.2291 23.7958 12.0061 23.0433 12.9441 22.5568C13.9661 22.0268 15.1004 21.7501 16.2516 21.75H19.7499C20.9014 21.75 22.0354 22.0265 23.0574 22.555C23.9954 23.0432 24.7724 23.7958 25.5511 24.5483C26.1811 25.1573 26.8111 25.7662 27.5251 26.2352C28.2076 26.6833 29.0914 27 30.2044 27C31.0483 27.0017 31.8816 26.8127 32.6422 26.447C34.8717 25.3813 35.4492 22.6495 35.4911 20.1803C35.6994 7.91625 32.8311 2.5105 28.6609 1.03175C27.9924 0.79375 27.2749 0.75 26.5696 0.75H25.4986C23.9626 0.750259 22.4646 1.22719 21.2111 2.115L20.3326 2.7345C19.6505 3.2171 18.8355 3.47626 17.9999 3.47626C17.1643 3.47626 16.3493 3.2171 15.6671 2.7345ZM26.3124 7.75C26.6605 7.75 26.9943 7.88828 27.2405 8.13442C27.4866 8.38056 27.6249 8.7144 27.6249 9.0625C27.6249 9.4106 27.4866 9.74444 27.2405 9.99058C26.9943 10.2367 26.6605 10.375 26.3124 10.375C25.9643 10.375 25.6305 10.2367 25.3843 9.99058C25.1382 9.74444 24.9999 9.4106 24.9999 9.0625C24.9999 8.7144 25.1382 8.38056 25.3843 8.13442C25.6305 7.88828 25.9643 7.75 26.3124 7.75ZM10.1249 8.1875C10.473 8.1875 10.8068 8.32578 11.053 8.57192C11.2991 8.81806 11.4374 9.1519 11.4374 9.5V10.8125H12.7499C13.098 10.8125 13.4318 10.9508 13.678 11.1969C13.9241 11.4431 14.0624 11.7769 14.0624 12.125C14.0624 12.4731 13.9241 12.8069 13.678 13.0531C13.4318 13.2992 13.098 13.4375 12.7499 13.4375H11.4374V14.75C11.4374 15.0981 11.2991 15.4319 11.053 15.6781C10.8068 15.9242 10.473 16.0625 10.1249 16.0625C9.7768 16.0625 9.44296 15.9242 9.19682 15.6781C8.95068 15.4319 8.8124 15.0981 8.8124 14.75V13.4375H7.4999C7.1518 13.4375 6.81796 13.2992 6.57182 13.0531C6.32568 12.8069 6.1874 12.4731 6.1874 12.125C6.1874 11.7769 6.32568 11.4431 6.57182 11.1969C6.81796 10.9508 7.1518 10.8125 7.4999 10.8125H8.8124V9.5C8.8124 9.1519 8.95068 8.81806 9.19682 8.57192C9.44296 8.32578 9.7768 8.1875 10.1249 8.1875ZM30.2499 11.6875C30.2499 12.0356 30.1116 12.3694 29.8655 12.6156C29.6193 12.8617 29.2855 13 28.9374 13C28.5893 13 28.2555 12.8617 28.0093 12.6156C27.7632 12.3694 27.6249 12.0356 27.6249 11.6875C27.6249 11.3394 27.7632 11.0056 28.0093 10.7594C28.2555 10.5133 28.5893 10.375 28.9374 10.375C29.2855 10.375 29.6193 10.5133 29.8655 10.7594C30.1116 11.0056 30.2499 11.3394 30.2499 11.6875ZM23.6874 13C24.0355 13 24.3693 12.8617 24.6155 12.6156C24.8616 12.3694 24.9999 12.0356 24.9999 11.6875C24.9999 11.3394 24.8616 11.0056 24.6155 10.7594C24.3693 10.5133 24.0355 10.375 23.6874 10.375C23.3393 10.375 23.0055 10.5133 22.7593 10.7594C22.5132 11.0056 22.3749 11.3394 22.3749 11.6875C22.3749 12.0356 22.5132 12.3694 22.7593 12.6156C23.0055 12.8617 23.3393 13 23.6874 13ZM27.6249 14.3125C27.6249 13.9644 27.4866 13.6306 27.2405 13.3844C26.9943 13.1383 26.6605 13 26.3124 13C25.9643 13 25.6305 13.1383 25.3843 13.3844C25.1382 13.6306 24.9999 13.9644 24.9999 14.3125C24.9999 14.6606 25.1382 14.9944 25.3843 15.2406C25.6305 15.4867 25.9643 15.625 26.3124 15.625C26.6605 15.625 26.9943 15.4867 27.2405 15.2406C27.4866 14.9944 27.6249 14.6606 27.6249 14.3125Z" fill="#C4B5FD"/>
</svg>
