<svg width="40" height="45" viewBox="0 0 40 45" fill="none" xmlns="http://www.w3.org/2000/svg">
<g filter="url(#filter0_ddd_1494_20854)">
<path d="M16.9299 2.5501L23.5924 13.9313L14.1924 16.6032C7.7002 14.4579 3.87676 10.3282 1.57051 6.08447C0.598637 4.29385 0.606449 1.00635 4.47051 1.00635H14.233C14.7783 1.00625 15.3141 1.14883 15.7872 1.41993C16.2603 1.69102 16.6543 2.07962 16.9299 2.5501Z" fill="#4686EC"/>
<path d="M16.9299 2.5501L23.5924 13.9313L14.1924 16.6032C7.7002 14.4579 3.87676 10.3282 1.57051 6.08447C0.598637 4.29385 0.606449 1.00635 4.47051 1.00635H14.233C14.7783 1.00625 15.3141 1.14883 15.7872 1.41993C16.2603 1.69102 16.6543 2.07962 16.9299 2.5501Z" fill="url(#paint0_radial_1494_20854)"/>
<path d="M16.9299 2.5501L23.5924 13.9313L14.1924 16.6032C7.7002 14.4579 3.87676 10.3282 1.57051 6.08447C0.598637 4.29385 0.606449 1.00635 4.47051 1.00635H14.233C14.7783 1.00625 15.3141 1.14883 15.7872 1.41993C16.2603 1.69102 16.6543 2.07962 16.9299 2.5501Z" fill="url(#paint1_linear_1494_20854)"/>
</g>
<g filter="url(#filter1_ddd_1494_20854)">
<path d="M22.8314 2.5502L16.1689 13.9314L25.5689 16.6033C32.0611 14.4564 35.8846 10.3268 38.1908 6.08301C39.1627 4.29238 39.1549 1.00488 35.2908 1.00488H25.5283C24.983 1.00479 24.4472 1.14737 23.9741 1.41846C23.501 1.68955 23.1071 2.07972 22.8314 2.5502Z" fill="#4686EC"/>
<path d="M22.8314 2.5502L16.1689 13.9314L25.5689 16.6033C32.0611 14.4564 35.8846 10.3268 38.1908 6.08301C39.1627 4.29238 39.1549 1.00488 35.2908 1.00488H25.5283C24.983 1.00479 24.4472 1.14737 23.9741 1.41846C23.501 1.68955 23.1071 2.07972 22.8314 2.5502Z" fill="url(#paint2_radial_1494_20854)"/>
<path d="M22.8314 2.5502L16.1689 13.9314L25.5689 16.6033C32.0611 14.4564 35.8846 10.3268 38.1908 6.08301C39.1627 4.29238 39.1549 1.00488 35.2908 1.00488H25.5283C24.983 1.00479 24.4472 1.14737 23.9741 1.41846C23.501 1.68955 23.1071 2.07972 22.8314 2.5502Z" fill="url(#paint3_linear_1494_20854)"/>
</g>
<path d="M22.8314 2.5502L16.1689 13.9314L25.5689 16.6033C32.0611 14.4564 35.8846 10.3268 38.1908 6.08301C39.1627 4.29238 39.1549 1.00488 35.2908 1.00488H25.5283C24.983 1.00479 24.4472 1.14737 23.9741 1.41846C23.501 1.68955 23.1071 2.07972 22.8314 2.5502Z" fill="url(#paint4_linear_1494_20854)"/>
<path d="M20.0735 44.1563C28.7444 44.1563 35.7735 37.1272 35.7735 28.4563C35.7735 19.7855 28.7444 12.7563 20.0735 12.7563C11.4027 12.7563 4.37354 19.7855 4.37354 28.4563C4.37354 37.1272 11.4027 44.1563 20.0735 44.1563Z" fill="url(#paint5_linear_1494_20854)"/>
<path d="M20.0735 44.1563C28.7444 44.1563 35.7735 37.1272 35.7735 28.4563C35.7735 19.7855 28.7444 12.7563 20.0735 12.7563C11.4027 12.7563 4.37354 19.7855 4.37354 28.4563C4.37354 37.1272 11.4027 44.1563 20.0735 44.1563Z" fill="url(#paint6_linear_1494_20854)"/>
<path d="M20.0735 42.0313C27.5708 42.0313 33.6485 35.9536 33.6485 28.4563C33.6485 20.9591 27.5708 14.8813 20.0735 14.8813C12.5763 14.8813 6.49854 20.9591 6.49854 28.4563C6.49854 35.9536 12.5763 42.0313 20.0735 42.0313Z" fill="url(#paint7_linear_1494_20854)" fill-opacity="0.6"/>
<path d="M20.0737 40.3081C26.6192 40.3081 31.9253 35.002 31.9253 28.4565C31.9253 21.9111 26.6192 16.605 20.0737 16.605C13.5283 16.605 8.22217 21.9111 8.22217 28.4565C8.22217 35.002 13.5283 40.3081 20.0737 40.3081Z" fill="url(#paint8_linear_1494_20854)"/>
<path d="M20.0737 40.3081C26.6192 40.3081 31.9253 35.002 31.9253 28.4565C31.9253 21.9111 26.6192 16.605 20.0737 16.605C13.5283 16.605 8.22217 21.9111 8.22217 28.4565C8.22217 35.002 13.5283 40.3081 20.0737 40.3081Z" fill="url(#paint9_radial_1494_20854)"/>
<path d="M20.0737 40.3081C26.6192 40.3081 31.9253 35.002 31.9253 28.4565C31.9253 21.9111 26.6192 16.605 20.0737 16.605C13.5283 16.605 8.22217 21.9111 8.22217 28.4565C8.22217 35.002 13.5283 40.3081 20.0737 40.3081Z" fill="url(#paint10_radial_1494_20854)"/>
<g filter="url(#filter2_dd_1494_20854)">
<path d="M21.9062 23.25C21.9062 22.9185 21.7746 22.6005 21.5401 22.3661C21.3057 22.1317 20.9878 22 20.6563 22H17.625C17.4592 22 17.3003 22.0658 17.1831 22.1831C17.0658 22.3003 17 22.4592 17 22.625V24.4641C17 24.8078 17.2781 25.0891 17.625 25.0891H18.3172C18.4208 25.0891 18.5201 25.1302 18.5934 25.2035C18.6667 25.2767 18.7078 25.3761 18.7078 25.4797V34.5C18.7078 34.7072 18.7901 34.9059 18.9366 35.0524C19.0831 35.1989 19.2819 35.2812 19.4891 35.2812H21.125C21.3322 35.2812 21.5309 35.1989 21.6774 35.0524C21.8239 34.9059 21.9062 34.7072 21.9062 34.5V23.25Z" fill="#6F3955"/>
</g>
<path d="M21.9062 23.25C21.9062 22.9185 21.7746 22.6005 21.5401 22.3661C21.3057 22.1317 20.9878 22 20.6563 22H17.625C17.4592 22 17.3003 22.0658 17.1831 22.1831C17.0658 22.3003 17 22.4592 17 22.625V24.4641C17 24.8078 17.2781 25.0891 17.625 25.0891H18.3172C18.4208 25.0891 18.5201 25.1302 18.5934 25.2035C18.6667 25.2767 18.7078 25.3761 18.7078 25.4797V34.5C18.7078 34.7072 18.7901 34.9059 18.9366 35.0524C19.0831 35.1989 19.2819 35.2812 19.4891 35.2812H21.125C21.3322 35.2812 21.5309 35.1989 21.6774 35.0524C21.8239 34.9059 21.9062 34.7072 21.9062 34.5V23.25Z" fill="url(#paint11_linear_1494_20854)"/>
<defs>
<filter id="filter0_ddd_1494_20854" x="0.281738" y="0.406348" width="23.9105" height="16.9467" filterUnits="userSpaceOnUse" color-interpolation-filters="sRGB">
<feFlood flood-opacity="0" result="BackgroundImageFix"/>
<feColorMatrix in="SourceAlpha" type="matrix" values="0 0 0 0 0 0 0 0 0 0 0 0 0 0 0 0 0 0 127 0" result="hardAlpha"/>
<feOffset dx="-0.2" dy="-0.2"/>
<feGaussianBlur stdDeviation="0.2"/>
<feComposite in2="hardAlpha" operator="out"/>
<feColorMatrix type="matrix" values="0 0 0 0 0.317647 0 0 0 0 0.458824 0 0 0 0 0.886275 0 0 0 1 0"/>
<feBlend mode="normal" in2="BackgroundImageFix" result="effect1_dropShadow_1494_20854"/>
<feColorMatrix in="SourceAlpha" type="matrix" values="0 0 0 0 0 0 0 0 0 0 0 0 0 0 0 0 0 0 127 0" result="hardAlpha"/>
<feOffset dx="0.2" dy="0.2"/>
<feGaussianBlur stdDeviation="0.2"/>
<feComposite in2="hardAlpha" operator="out"/>
<feColorMatrix type="matrix" values="0 0 0 0 0.317647 0 0 0 0 0.458824 0 0 0 0 0.886275 0 0 0 1 0"/>
<feBlend mode="normal" in2="effect1_dropShadow_1494_20854" result="effect2_dropShadow_1494_20854"/>
<feColorMatrix in="SourceAlpha" type="matrix" values="0 0 0 0 0 0 0 0 0 0 0 0 0 0 0 0 0 0 127 0" result="hardAlpha"/>
<feOffset dx="-0.25" dy="0.25"/>
<feGaussianBlur stdDeviation="0.25"/>
<feComposite in2="hardAlpha" operator="out"/>
<feColorMatrix type="matrix" values="0 0 0 0 0.372549 0 0 0 0 0.607843 0 0 0 0 0.960784 0 0 0 1 0"/>
<feBlend mode="normal" in2="effect2_dropShadow_1494_20854" result="effect3_dropShadow_1494_20854"/>
<feBlend mode="normal" in="SourceGraphic" in2="effect3_dropShadow_1494_20854" result="shape"/>
</filter>
<filter id="filter1_ddd_1494_20854" x="15.4189" y="0.404883" width="23.9105" height="16.9486" filterUnits="userSpaceOnUse" color-interpolation-filters="sRGB">
<feFlood flood-opacity="0" result="BackgroundImageFix"/>
<feColorMatrix in="SourceAlpha" type="matrix" values="0 0 0 0 0 0 0 0 0 0 0 0 0 0 0 0 0 0 127 0" result="hardAlpha"/>
<feOffset dx="-0.2" dy="-0.2"/>
<feGaussianBlur stdDeviation="0.2"/>
<feComposite in2="hardAlpha" operator="out"/>
<feColorMatrix type="matrix" values="0 0 0 0 0.317647 0 0 0 0 0.458824 0 0 0 0 0.886275 0 0 0 1 0"/>
<feBlend mode="normal" in2="BackgroundImageFix" result="effect1_dropShadow_1494_20854"/>
<feColorMatrix in="SourceAlpha" type="matrix" values="0 0 0 0 0 0 0 0 0 0 0 0 0 0 0 0 0 0 127 0" result="hardAlpha"/>
<feOffset dx="0.2" dy="0.2"/>
<feGaussianBlur stdDeviation="0.2"/>
<feComposite in2="hardAlpha" operator="out"/>
<feColorMatrix type="matrix" values="0 0 0 0 0.317647 0 0 0 0 0.458824 0 0 0 0 0.886275 0 0 0 1 0"/>
<feBlend mode="normal" in2="effect1_dropShadow_1494_20854" result="effect2_dropShadow_1494_20854"/>
<feColorMatrix in="SourceAlpha" type="matrix" values="0 0 0 0 0 0 0 0 0 0 0 0 0 0 0 0 0 0 127 0" result="hardAlpha"/>
<feOffset dx="-0.25" dy="0.25"/>
<feGaussianBlur stdDeviation="0.25"/>
<feComposite in2="hardAlpha" operator="out"/>
<feColorMatrix type="matrix" values="0 0 0 0 0.372549 0 0 0 0 0.607843 0 0 0 0 0.960784 0 0 0 1 0"/>
<feBlend mode="normal" in2="effect2_dropShadow_1494_20854" result="effect3_dropShadow_1494_20854"/>
<feBlend mode="normal" in="SourceGraphic" in2="effect3_dropShadow_1494_20854" result="shape"/>
</filter>
<filter id="filter2_dd_1494_20854" x="16.1" y="21.4" width="6.40625" height="14.7813" filterUnits="userSpaceOnUse" color-interpolation-filters="sRGB">
<feFlood flood-opacity="0" result="BackgroundImageFix"/>
<feColorMatrix in="SourceAlpha" type="matrix" values="0 0 0 0 0 0 0 0 0 0 0 0 0 0 0 0 0 0 127 0" result="hardAlpha"/>
<feOffset dx="-0.3" dy="0.3"/>
<feGaussianBlur stdDeviation="0.3"/>
<feComposite in2="hardAlpha" operator="out"/>
<feColorMatrix type="matrix" values="0 0 0 0 0.392157 0 0 0 0 0.164706 0 0 0 0 0.254902 0 0 0 1 0"/>
<feBlend mode="normal" in2="BackgroundImageFix" result="effect1_dropShadow_1494_20854"/>
<feColorMatrix in="SourceAlpha" type="matrix" values="0 0 0 0 0 0 0 0 0 0 0 0 0 0 0 0 0 0 127 0" result="hardAlpha"/>
<feOffset dx="0.2" dy="-0.2"/>
<feGaussianBlur stdDeviation="0.2"/>
<feComposite in2="hardAlpha" operator="out"/>
<feColorMatrix type="matrix" values="0 0 0 0 0.501961 0 0 0 0 0.333333 0 0 0 0 0.360784 0 0 0 1 0"/>
<feBlend mode="normal" in2="effect1_dropShadow_1494_20854" result="effect2_dropShadow_1494_20854"/>
<feBlend mode="normal" in="SourceGraphic" in2="effect2_dropShadow_1494_20854" result="shape"/>
</filter>
<radialGradient id="paint0_radial_1494_20854" cx="0" cy="0" r="1" gradientUnits="userSpaceOnUse" gradientTransform="translate(15.4746 15.502) rotate(-123.321) scale(7.193 26.863)">
<stop stop-color="#3669D9"/>
<stop offset="1" stop-color="#3669D9" stop-opacity="0"/>
</radialGradient>
<linearGradient id="paint1_linear_1494_20854" x1="5.28457" y1="0.161035" x2="8.08926" y2="7.14541" gradientUnits="userSpaceOnUse">
<stop stop-color="#3D89EC"/>
<stop offset="1" stop-color="#3D89EC" stop-opacity="0"/>
</linearGradient>
<radialGradient id="paint2_radial_1494_20854" cx="0" cy="0" r="1" gradientUnits="userSpaceOnUse" gradientTransform="translate(24.2877 15.5033) rotate(-57.2649) scale(4.76359 10.4489)">
<stop stop-color="#3669D9"/>
<stop offset="1" stop-color="#3669D9" stop-opacity="0"/>
</radialGradient>
<linearGradient id="paint3_linear_1494_20854" x1="34.4768" y1="0.161132" x2="31.6721" y2="7.14551" gradientUnits="userSpaceOnUse">
<stop stop-color="#3D89EC"/>
<stop offset="1" stop-color="#3D89EC" stop-opacity="0"/>
</linearGradient>
<linearGradient id="paint4_linear_1494_20854" x1="19.608" y1="8.03613" x2="20.1346" y2="8.32832" gradientUnits="userSpaceOnUse">
<stop stop-color="#1A6DD8"/>
<stop offset="1" stop-color="#1A6DD8" stop-opacity="0"/>
</linearGradient>
<linearGradient id="paint5_linear_1494_20854" x1="28.4657" y1="22.8907" x2="17.5204" y2="33.6157" gradientUnits="userSpaceOnUse">
<stop stop-color="#F4C654"/>
<stop offset="1" stop-color="#DC9729"/>
</linearGradient>
<linearGradient id="paint6_linear_1494_20854" x1="14.5876" y1="44.9188" x2="18.1282" y2="24.386" gradientUnits="userSpaceOnUse">
<stop stop-color="#FAB247"/>
<stop offset="1" stop-color="#FAB247" stop-opacity="0"/>
</linearGradient>
<linearGradient id="paint7_linear_1494_20854" x1="32.4423" y1="26.0829" x2="20.0735" y2="26.0829" gradientUnits="userSpaceOnUse">
<stop stop-color="#F9E742"/>
<stop offset="1" stop-color="#FAD242"/>
</linearGradient>
<linearGradient id="paint8_linear_1494_20854" x1="14.5956" y1="26.9534" x2="32.2737" y2="26.9534" gradientUnits="userSpaceOnUse">
<stop stop-color="#F4CD00"/>
<stop offset="1" stop-color="#FFB800"/>
</linearGradient>
<radialGradient id="paint9_radial_1494_20854" cx="0" cy="0" r="1" gradientUnits="userSpaceOnUse" gradientTransform="translate(24.669 28.4565) rotate(180) scale(16.4464 14.0141)">
<stop offset="0.893" stop-color="#F7B44D" stop-opacity="0"/>
<stop offset="1" stop-color="#F7B44D"/>
</radialGradient>
<radialGradient id="paint10_radial_1494_20854" cx="0" cy="0" r="1" gradientUnits="userSpaceOnUse" gradientTransform="translate(16.9972 28.4565) scale(15.825 13.8771)">
<stop offset="0.879" stop-color="#D2C01F" stop-opacity="0"/>
<stop offset="0.983" stop-color="#D2801F"/>
</radialGradient>
<linearGradient id="paint11_linear_1494_20854" x1="20.6609" y1="35.2812" x2="20.6609" y2="34.0047" gradientUnits="userSpaceOnUse">
<stop stop-color="#693B2E"/>
<stop offset="1" stop-color="#693B2E" stop-opacity="0"/>
</linearGradient>
</defs>
</svg>
