<svg width="20" height="20" viewBox="0 0 20 20" fill="none" xmlns="http://www.w3.org/2000/svg">
<path d="M6.72751 10.1617L3.51001 6.94422C2.24334 8.32506 1.76334 9.70839 1.75501 9.73672L1.66667 10.0001L1.75417 10.2634C1.77251 10.3192 3.68417 15.8334 10.045 15.8334C10.8192 15.8334 11.5242 15.7484 12.1717 15.6059L9.88334 13.3176C9.05941 13.2772 8.27996 12.9317 7.69666 12.3484C7.11335 11.7651 6.7679 10.9857 6.72751 10.1617ZM10.045 4.16672C8.49917 4.16672 7.23251 4.50339 6.17667 4.99839L3.08917 1.91089L1.91084 3.08922L16.9108 18.0892L18.0892 16.9109L15.3408 14.1626C17.5392 12.5351 18.3233 10.2984 18.335 10.2634L18.4225 10.0001L18.335 9.73672C18.3167 9.68089 16.4058 4.16672 10.045 4.16672ZM11.6333 10.4551C11.7892 9.89089 11.6567 9.25589 11.2233 8.82172C10.79 8.38756 10.1542 8.25589 9.59001 8.41172L8.33334 7.15506C8.84831 6.83838 9.44046 6.66944 10.045 6.66672C11.8833 6.66672 13.3783 8.16172 13.3783 10.0001C13.3759 10.6045 13.2066 11.1965 12.8892 11.7109L11.6333 10.4551Z" fill="#A78BFA"/>
</svg>
