<svg width="42" height="42" viewBox="0 0 42 42" fill="none" xmlns="http://www.w3.org/2000/svg">
<path d="M19.4375 19.75C19.4375 20.2692 19.2835 20.7767 18.9951 21.2084C18.7067 21.6401 18.2967 21.9765 17.817 22.1752C17.3374 22.3739 16.8096 22.4258 16.3004 22.3246C15.7912 22.2233 15.3235 21.9733 14.9563 21.6062C14.5892 21.239 14.3392 20.7713 14.2379 20.2621C14.1367 19.7529 14.1886 19.2251 14.3873 18.7455C14.586 18.2658 14.9224 17.8558 15.3541 17.5674C15.7858 17.279 16.2933 17.125 16.8125 17.125C17.5087 17.125 18.1764 17.4016 18.6687 17.8938C19.1609 18.3861 19.4375 19.0538 19.4375 19.75ZM26 17.125C25.4808 17.125 24.9733 17.279 24.5416 17.5674C24.1099 17.8558 23.7735 18.2658 23.5748 18.7455C23.3761 19.2251 23.3242 19.7529 23.4254 20.2621C23.5267 20.7713 23.7767 21.239 24.1438 21.6062C24.511 21.9733 24.9787 22.2233 25.4879 22.3246C25.9971 22.4258 26.5249 22.3739 27.0045 22.1752C27.4842 21.9765 27.8942 21.6401 28.1826 21.2084C28.471 20.7767 28.625 20.2692 28.625 19.75C28.625 19.0538 28.3484 18.3861 27.8562 17.8938C27.3639 17.4016 26.6962 17.125 26 17.125ZM37.8125 20.4062V36.1562C37.8125 36.5288 37.706 36.8936 37.5054 37.2076C37.3048 37.5216 37.0186 37.7716 36.6805 37.9281C36.4202 38.0567 36.134 38.124 35.8438 38.125C35.3895 38.1256 34.9489 37.9691 34.5969 37.682L31.0367 34.7617L27.4602 37.682C27.1084 37.9699 26.6678 38.1272 26.2133 38.1272C25.7587 38.1272 25.3182 37.9699 24.9664 37.682L21.4062 34.7617L17.8461 37.682C17.4943 37.9699 17.0538 38.1272 16.5992 38.1272C16.1447 38.1272 15.7041 37.9699 15.3523 37.682L11.7758 34.7617L8.21562 37.682C7.92515 37.9115 7.57627 38.0553 7.20842 38.097C6.84056 38.1386 6.46837 38.0766 6.1339 37.9179C5.79943 37.7592 5.51601 37.5101 5.31563 37.1988C5.11526 36.8875 5.00594 36.5264 5 36.1562V20.4062C5 16.055 6.72851 11.882 9.80528 8.80528C12.882 5.72851 17.055 4 21.4062 4C25.7575 4 29.9305 5.72851 33.0072 8.80528C36.084 11.882 37.8125 16.055 37.8125 20.4062ZM33.875 20.4062C33.875 17.0993 32.5613 13.9279 30.223 11.5895C27.8846 9.25117 24.7132 7.9375 21.4062 7.9375C18.0993 7.9375 14.9279 9.25117 12.5895 11.5895C10.2512 13.9279 8.9375 17.0993 8.9375 20.4062V32.0055L10.5289 30.693C10.8807 30.4051 11.3212 30.2478 11.7758 30.2478C12.2303 30.2478 12.6709 30.4051 13.0227 30.693L16.5992 33.6133L20.1594 30.693C20.5111 30.4051 20.9517 30.2478 21.4062 30.2478C21.8608 30.2478 22.3014 30.4051 22.6531 30.693L26.2133 33.6133L29.7898 30.693C30.1416 30.4051 30.5822 30.2478 31.0367 30.2478C31.4913 30.2478 31.9318 30.4051 32.2836 30.693L33.875 32.0055V20.4062Z" fill="#C4B5FD"/>
</svg>
