<svg width="42" height="42" viewBox="0 0 42 42" fill="none" xmlns="http://www.w3.org/2000/svg">
<path d="M11.6039 9.75258C13.1709 8.18529 15.051 6.96637 17.1214 6.17549C19.1918 5.38462 21.4058 5.03959 23.6186 5.16298C25.8315 5.28636 27.9934 5.87538 29.963 6.89152C31.9326 7.90766 33.6656 9.32805 35.0486 11.0598L25.2154 20.8896L35.0486 30.7193C33.7111 32.3913 32.0467 33.7729 30.1571 34.7799C28.2676 35.7868 26.1925 36.3979 24.0588 36.5758C21.9251 36.7538 19.7775 36.4948 17.7473 35.8147C15.717 35.1346 13.8468 34.0477 12.2508 32.6204C10.6548 31.1931 9.36659 29.4554 8.46487 27.5134C7.56314 25.5714 7.06685 23.466 7.0063 21.3257C6.94575 19.1854 7.32223 17.0553 8.11272 15.0655C8.90322 13.0756 10.0911 11.2678 11.6039 9.75258Z" stroke="#C4B5FD" stroke-width="2" stroke-linecap="round" stroke-linejoin="round"/>
<path d="M21.8658 14.7645C22.8323 14.7645 23.6158 13.981 23.6158 13.0145C23.6158 12.048 22.8323 11.2645 21.8658 11.2645C20.8993 11.2645 20.1158 12.048 20.1158 13.0145C20.1158 13.981 20.8993 14.7645 21.8658 14.7645Z" fill="#C4B5FD" stroke="#C4B5FD" stroke-width="2" stroke-linecap="round" stroke-linejoin="round"/>
</svg>
