<svg width="512.000000pt" height="512.000000pt" viewBox="0 0 47 108" fill="none" xmlns="http://www.w3.org/2000/svg">
<mask id="mask0_389_4175" style="mask-type:luminance" maskUnits="userSpaceOnUse" x="17" y="85" width="30" height="27">
<path d="M17.4507 96.9334C23.1405 94.1099 29.0407 91.1778 34.6033 88.4195C36.5408 87.453 38.4389 86.5082 40.2756 85.5959C40.3939 86.1715 40.5123 86.7471 40.6307 87.3118C42.3271 95.3262 44.4794 102.656 46.9999 109.096C44.0936 110.866 41.0559 111.8 37.9304 111.8C30.3864 111.789 23.3596 106.338 17.4507 96.9334Z" fill="white"/>
</mask>
<g mask="url(#mask0_389_4175)">
<path d="M46.9999 85.5852H17.4507V111.79H46.9999V85.5852Z" fill="url(#paint0_linear_389_4175)"/>
</g>
<mask id="mask1_389_4175" style="mask-type:luminance" maskUnits="userSpaceOnUse" x="0" y="0" width="37" height="53">
<path d="M30.1015 49.2486C20.4184 43.2432 9.47275 36.4342 0.355064 30.7655C0.122738 26.5302 0 22.208 0 17.8207C0 11.7284 0.232326 5.76649 0.679443 0C12.7823 10.2298 26.8972 22.1429 36.6812 30.3636C36.4313 34.7075 36.3042 39.16 36.3042 43.6776C36.3042 46.5011 36.3524 49.3029 36.4532 52.0613C34.4368 51.1708 32.3064 50.226 30.1015 49.2486Z" fill="white"/>
</mask>
<g mask="url(#mask1_389_4175)">
<path d="M36.6812 0H0V52.0613H36.6812V0Z" fill="url(#paint1_linear_389_4175)"/>
</g>
<mask id="mask2_389_4175" style="mask-type:luminance" maskUnits="userSpaceOnUse" x="0" y="36" width="38" height="35">
<path d="M30.1014 49.2486C32.3063 50.226 34.4367 51.1708 36.4531 52.0613C36.4662 52.4414 36.4794 52.8323 36.4969 53.2124C36.7336 58.9898 37.1764 64.6042 37.8164 70.0232C34.6033 69.806 31.1271 69.5562 27.5327 69.3065C19.9667 67.2974 11.9318 65.1581 4.71653 63.225C2.85792 54.9065 1.49465 45.8061 0.727539 36.1844C9.97673 40.3003 20.7207 45.0894 30.1014 49.2486Z" fill="white"/>
</mask>
<g mask="url(#mask2_389_4175)">
<path d="M37.812 36.1844H0.723145V70.0232H37.812V36.1844Z" fill="url(#paint2_linear_389_4175)"/>
</g>
<mask id="mask3_389_4175" style="mask-type:luminance" maskUnits="userSpaceOnUse" x="5" y="67" width="36" height="26">
<path d="M27.5283 69.2956C31.1228 69.5454 34.5989 69.7952 37.812 70.0124C37.8953 70.7074 37.9786 71.3915 38.0663 72.0865C38.6624 76.7562 39.4032 81.263 40.2756 85.5851C38.4432 86.4973 36.5452 87.4421 34.6033 88.4086C28.1332 89.5923 21.2073 90.8521 14.6627 92.0358C11.1647 85.2919 8.15762 77.0711 5.79053 67.7427C12.791 68.2531 20.4007 68.7961 27.5283 69.2956Z" fill="white"/>
</mask>
<g mask="url(#mask3_389_4175)">
<path d="M40.2756 67.7427H5.79053V92.0358H40.2756V67.7427Z" fill="url(#paint3_linear_389_4175)"/>
</g>
<path fill-rule="evenodd" clip-rule="evenodd" d="M36.3217 40.7563L0.0131836 15.2144C0.0701691 10.0235 0.298111 4.94115 0.679476 0C12.7823 10.2298 26.8972 22.1429 36.6812 30.3636C36.4839 33.7736 36.3656 37.2378 36.3217 40.7563Z" fill="#FDE3A7"/>
<path fill-rule="evenodd" clip-rule="evenodd" d="M36.9966 61.683L2.29683 50.0848C1.63492 45.5998 1.1089 40.9518 0.727539 36.1844C9.98112 40.3111 20.7251 45.0894 30.1058 49.2486C32.3107 50.226 34.4411 51.1708 36.4575 52.0613C36.4706 52.4414 36.4838 52.8323 36.5013 53.2124C36.6109 56.0794 36.7819 58.9029 36.9966 61.683Z" fill="#FF8CC8"/>
<path fill-rule="evenodd" clip-rule="evenodd" d="M38.8772 77.7662L9.80144 80.8503C8.31982 76.7888 6.97408 72.4015 5.79492 67.7427C12.7954 68.2531 20.4051 68.7961 27.5327 69.2956C31.1272 69.5454 34.6033 69.7952 37.8164 70.0124C37.8997 70.7074 37.983 71.3915 38.0707 72.0865C38.3118 74.0087 38.5835 75.8983 38.8772 77.7662Z" fill="#FF8CC8"/>
<path fill-rule="evenodd" clip-rule="evenodd" d="M42.1693 93.9036L27.2566 108.021C23.7498 105.48 20.4534 101.712 17.4507 96.9334C23.1405 94.1099 29.0407 91.1778 34.6033 88.4195C36.5408 87.453 38.4389 86.5082 40.2756 85.5959C40.3939 86.1715 40.5123 86.7471 40.6307 87.3118C41.1085 89.5597 41.6213 91.7642 42.1693 93.9036Z" fill="#FF8CC8"/>
<path fill-rule="evenodd" clip-rule="evenodd" d="M21.7772 30.5265L0.355064 30.7655C0.122738 26.5302 0 22.208 0 17.8207C0 16.9519 0.0043835 16.0832 0.0131505 15.2144C0.0701361 10.0235 0.298078 4.94115 0.679443 0C12.7823 10.2298 26.8972 22.1429 36.6812 30.3636L21.7772 30.5265Z" fill="#FDE3A7"/>
<path fill-rule="evenodd" clip-rule="evenodd" d="M36.4531 52.0613L22.6845 56.9047L4.71653 63.225C3.78284 59.0332 2.97189 54.6459 2.29683 50.0848C1.63492 45.5998 1.1089 40.9518 0.727539 36.1844C9.98112 40.3111 20.7251 45.0894 30.1058 49.2486C32.3063 50.226 34.4367 51.1708 36.4531 52.0613Z" fill="#FFBCD8"/>
<path fill-rule="evenodd" clip-rule="evenodd" d="M37.812 70.0232L28.5146 78.863L14.6627 92.0358C12.9137 88.6584 11.2831 84.9227 9.79705 80.8503C8.31543 76.7888 6.96969 72.4015 5.79053 67.7427C12.791 68.2531 20.4007 68.7961 27.5283 69.2956C31.1272 69.5562 34.5989 69.7952 37.812 70.0232Z" fill="#FFBCD8"/>
<path fill-rule="evenodd" clip-rule="evenodd" d="M36.8915 98.899L33.7573 111.225C31.5261 110.617 29.3519 109.542 27.2566 108.01C23.7498 105.469 20.4534 101.701 17.4507 96.9226C23.1405 94.0991 29.0407 91.167 34.6033 88.4086C36.5408 87.4421 38.4389 86.4973 40.2756 85.5851L36.8915 98.899Z" fill="#FFBCD8"/>
<defs>
<linearGradient id="paint0_linear_389_4175" x1="46.7422" y1="100.091" x2="7.48713" y2="99.4737" gradientUnits="userSpaceOnUse">
<stop stop-color="#003780"/>
<stop offset="1" stop-color="#DE3DED"/>
</linearGradient>
<linearGradient id="paint1_linear_389_4175" x1="-1.3594" y1="-4.53768" x2="46.5303" y2="7.56976" gradientUnits="userSpaceOnUse">
<stop stop-color="#FFCF4B"/>
<stop offset="1" stop-color="#DA3C78"/>
</linearGradient>
<linearGradient id="paint2_linear_389_4175" x1="27.8347" y1="68.24" x2="-13.1871" y2="56.4268" gradientUnits="userSpaceOnUse">
<stop stop-color="#BA1C58"/>
<stop offset="1" stop-color="#FF8CC8"/>
</linearGradient>
<linearGradient id="paint3_linear_389_4175" x1="39.0568" y1="80.4143" x2="4.31542" y2="80.2293" gradientUnits="userSpaceOnUse">
<stop stop-color="#5E147D"/>
<stop offset="1" stop-color="#E63CE0"/>
</linearGradient>
</defs>
</svg>
