<svg  width="512.000000pt" height="512.000000pt" viewBox="0 0 11 11" fill="none" xmlns="http://www.w3.org/2000/svg">
<path fill-rule="evenodd" clip-rule="evenodd" d="M2.38348 1.38355C2.62906 1.13797 2.96214 1 3.30945 1H7.10117C7.44847 1 7.78156 1.13797 8.02714 1.38355C8.27272 1.62913 8.41069 1.96222 8.41069 2.30952V2.76786C8.41069 2.98483 8.2348 3.16071 8.01783 3.16071C7.80086 3.16071 7.62498 2.98483 7.62498 2.76786V2.30952C7.62498 2.1706 7.56979 2.03737 7.47155 1.93913C7.37332 1.8409 7.24009 1.78571 7.10117 1.78571H3.30945C3.17053 1.78571 3.03729 1.8409 2.93906 1.93913C2.84083 2.03737 2.78564 2.1706 2.78564 2.30952V8.72619C2.78564 8.86512 2.84083 8.99835 2.93906 9.09658C3.03729 9.19481 3.17053 9.25 3.30945 9.25H7.10117C7.24009 9.25 7.37332 9.19481 7.47155 9.09658C7.56979 8.99835 7.62498 8.86512 7.62498 8.72619V8.26786C7.62498 8.05089 7.80086 7.875 8.01783 7.875C8.2348 7.875 8.41069 8.05089 8.41069 8.26786V8.72619C8.41069 9.0735 8.27272 9.40658 8.02714 9.65217C7.78156 9.89775 7.44847 10.0357 7.10117 10.0357H3.30945C2.96214 10.0357 2.62906 9.89775 2.38348 9.65217C2.13789 9.40658 1.99992 9.0735 1.99992 8.72619V2.30952C1.99992 1.96222 2.13789 1.62913 2.38348 1.38355ZM7.26386 4.01782C7.41728 3.8644 7.66602 3.8644 7.81944 4.01782L9.19444 5.39282C9.26812 5.4665 9.30951 5.56642 9.30951 5.67061C9.30951 5.77481 9.26812 5.87473 9.19444 5.94841L7.81944 7.32341C7.66602 7.47683 7.41728 7.47683 7.26386 7.32341C7.11044 7.16999 7.11044 6.92124 7.26386 6.76782L7.96821 6.06347H5.70832C5.49135 6.06347 5.31546 5.88758 5.31546 5.67061C5.31546 5.45365 5.49135 5.27776 5.70832 5.27776H7.96821L7.26386 4.57341C7.11044 4.41999 7.11044 4.17124 7.26386 4.01782Z" fill="currentColor"/>
</svg>
