<svg width="42" height="37" viewBox="0 0 42 37" fill="none" xmlns="http://www.w3.org/2000/svg">
<g clip-path="url(#clip0_83_165)">
<path d="M8.84119 1.18604L7.12496 6.30363H1.61011L6.08419 9.45665L4.36882 14.6328L8.84119 11.4196L13.3162 14.6328L11.5991 9.45665L16.1343 6.30363H10.5574L8.84119 1.18604ZM17.3603 24.4514C13.8667 24.4514 10.9865 27.1871 10.9865 30.638C10.9865 34.0302 13.8675 36.7649 17.3603 36.7649C20.8557 36.7649 23.7341 34.0292 23.7341 30.638C23.7341 27.1871 20.8548 24.4514 17.3603 24.4514ZM28.0858 6.89827C27.1116 6.90136 26.1781 7.27859 25.4896 7.94756C24.8009 8.61653 24.4129 9.52289 24.4105 10.4686C24.4105 12.4307 26.0631 14.0373 28.0858 14.0373C30.1089 14.0373 31.7649 12.4307 31.7649 10.4686C31.7615 9.52251 31.373 8.61604 30.6838 7.94712C29.9943 7.27819 29.0606 6.90112 28.0858 6.89827Z" fill="#E165F3"/>
<path d="M23.4611 11.7865C18.0677 14.1099 12.5511 17.4402 8.13904 21.0708C-0.442109 28.2691 -1.42257 34.0409 5.93086 34.0409C7.28008 34.0409 8.81279 33.8618 10.467 33.5055C10.0379 32.5546 9.79238 31.5409 9.79238 30.5306C9.79238 29.8163 9.91644 29.2227 10.0379 28.6262C7.9538 27.6152 9.17809 24.6403 13.4092 21.0708C16.8408 18.2155 21.501 15.7148 25.4831 14.3474C24.5011 13.7519 23.7686 12.8604 23.4611 11.7865ZM37.0676 8.15845C35.7194 8.15845 34.1892 8.33744 32.4721 8.69537C32.6556 9.23147 32.779 9.76675 32.779 10.3614C32.779 11.4319 32.4109 12.4447 31.7355 13.2752C35.3514 13.6934 34.4942 17.0245 29.5901 21.0708C27.5673 22.7368 25.1782 24.2833 22.7253 25.5929C23.4611 26.3056 23.9521 27.1384 24.3209 28.0893C28.0584 26.068 31.7355 23.6894 34.8622 21.0699C43.4416 13.9301 44.4229 8.15845 37.0676 8.15845Z" fill="#7C3AED"/>
<path d="M9.42304 1.45027C9.28167 1.00811 8.63699 1.00812 8.49559 1.45027L7.11836 5.75751C7.05461 5.95691 6.8633 6.09183 6.64823 6.08907L2.0027 6.02956C1.52582 6.02346 1.3266 6.61864 1.7161 6.88579L5.51044 9.48831C5.68611 9.60881 5.75919 9.82711 5.69002 10.0248L4.19618 14.2953C4.04282 14.7336 4.5644 15.1015 4.9465 14.8244L8.66877 12.1257C8.84109 12.0007 9.07755 12.0007 9.2499 12.1257L12.9722 14.8244C13.3543 15.1015 13.8758 14.7336 13.7225 14.2953L12.2286 10.0248C12.1595 9.82711 12.2326 9.60881 12.4082 9.48831L16.2025 6.88579C16.5921 6.61864 16.3928 6.02346 15.916 6.02956L11.2704 6.08907C11.0554 6.09183 10.8641 5.95691 10.8003 5.75751L9.42304 1.45027Z" fill="#E165F3"/>
</g>
<defs>
<clipPath id="clip0_83_165">
<rect width="42" height="37" fill="white"/>
</clipPath>
</defs>
</svg>
