<svg  width="512.000000pt" height="512.000000pt" viewBox="0 0 15 15" fill="currentColor" xmlns="http://www.w3.org/2000/svg">
<path d="M7.5 1.25C4.05 1.25 1.25 4.05 1.25 7.5C1.25 10.95 4.05 13.75 7.5 13.75C10.95 13.75 13.75 10.95 13.75 7.5C13.75 4.05 10.95 1.25 7.5 1.25ZM7.5 3.75C8.70625 3.75 9.6875 4.73125 9.6875 5.9375C9.6875 7.14375 8.70625 8.125 7.5 8.125C6.29375 8.125 5.3125 7.14375 5.3125 5.9375C5.3125 4.73125 6.29375 3.75 7.5 3.75ZM7.5 12.5C6.23125 12.5 4.73125 11.9875 3.6625 10.7C4.75725 9.84107 6.10851 9.37425 7.5 9.37425C8.89149 9.37425 10.2427 9.84107 11.3375 10.7C10.2687 11.9875 8.76875 12.5 7.5 12.5Z" fill="currentColor"/>
</svg>