<svg width="13" height="13" viewBox="0 0 13 13" fill="none" xmlns="http://www.w3.org/2000/svg">
<path d="M6.5 0.25C3.05 0.25 0.25 3.05 0.25 6.5C0.25 9.95 3.05 12.75 6.5 12.75C9.95 12.75 12.75 9.95 12.75 6.5C12.75 3.05 9.95 0.25 6.5 0.25ZM6.5 2.75C7.70625 2.75 8.6875 3.73125 8.6875 4.9375C8.6875 6.14375 7.70625 7.125 6.5 7.125C5.29375 7.125 4.3125 6.14375 4.3125 4.9375C4.3125 3.73125 5.29375 2.75 6.5 2.75ZM6.5 11.5C5.23125 11.5 3.73125 10.9875 2.6625 9.7C3.75725 8.84107 5.10851 8.37425 6.5 8.37425C7.89149 8.37425 9.24275 8.84107 10.3375 9.7C9.26875 10.9875 7.76875 11.5 6.5 11.5Z" fill="#C4B5FD"/>
</svg>
