<svg width="28" height="25" viewBox="0 0 28 25" fill="none" xmlns="http://www.w3.org/2000/svg">
<path d="M0 8V2C0 0.895431 0.895431 0 2 0V8H0Z" fill="url(#paint0_linear_347_3906)"/>
<path d="M5.625 24.4999H17.25C22.9109 24.4999 27.5 19.9108 27.5 14.2499C27.5 8.58894 22.9109 3.99986 17.25 3.99986H3.76779H2C0.89543 3.99986 0 3.10443 0 1.99986V18.8749C0 21.9815 2.5184 24.4999 5.625 24.4999Z" fill="white"/>
<path d="M8.91662 14.875C8.91662 15.7403 9.17321 16.5862 9.65394 17.3056C10.1347 18.0251 10.818 18.5858 11.6174 18.917C12.4168 19.2481 13.2965 19.3347 14.1451 19.1659C14.9938 18.9971 15.7734 18.5804 16.3852 17.9686C16.9971 17.3567 17.4137 16.5772 17.5826 15.7285C17.7514 14.8799 17.6647 14.0002 17.3336 13.2008C17.0025 12.4013 16.4417 11.7181 15.7222 11.2373C15.0028 10.7566 14.1569 10.5 13.2916 10.5H8.33329M8.33329 10.5L10.0833 8.75M8.33329 10.5L10.0833 12.25" stroke="#8B5CF6" stroke-width="2" stroke-linecap="round" stroke-linejoin="round"/>
<defs>
<linearGradient id="paint0_linear_347_3906" x1="0.0833332" y1="4.38095" x2="2.84962" y2="3.4338" gradientUnits="userSpaceOnUse">
<stop stop-color="#929292"/>
<stop offset="1" stop-color="white"/>
</linearGradient>
</defs>
</svg>
