<svg width="30" height="30" viewBox="0 0 30 30" fill="none" xmlns="http://www.w3.org/2000/svg">
<path d="M29.0623 12.1875C29.0616 11.4696 28.8549 10.7671 28.4667 10.1633C28.0785 9.55944 27.5251 9.07973 26.8724 8.78111C26.2196 8.48248 25.4948 8.37749 24.7841 8.47861C24.0734 8.57972 23.4067 8.88269 22.8631 9.35153C20.8944 8.30856 18.5506 7.67575 16.1014 7.53513L16.7108 3.87888L19.2655 4.27731C19.3853 4.93622 19.7345 5.53145 20.2511 5.95759C20.7678 6.38374 21.4186 6.61328 22.0882 6.60559C22.7579 6.59789 23.4032 6.35344 23.91 5.91554C24.4167 5.47764 24.7521 4.87453 24.8567 4.21305C24.9614 3.55156 24.8286 2.87438 24.4818 2.30143C24.135 1.72848 23.5967 1.29674 22.9621 1.08267C22.3275 0.868607 21.6377 0.886027 21.0147 1.13185C20.3917 1.37767 19.8759 1.83603 19.5584 2.42575L16.078 1.88669C15.8342 1.84947 15.5856 1.90977 15.386 2.05453C15.1864 2.1993 15.0519 2.41687 15.0116 2.66013L14.203 7.52341C11.6483 7.62888 9.18735 8.26169 7.13657 9.35153C6.38913 8.73357 5.43135 8.4292 4.46429 8.50234C3.49724 8.57547 2.59612 9.02041 1.95012 9.74375C1.30412 10.4671 0.963468 11.4126 0.999689 12.3817C1.03591 13.3509 1.44618 14.2683 2.14438 14.9414C1.96711 15.5707 1.87643 16.2212 1.87485 16.875C1.87485 19.4414 3.2811 21.8437 5.8475 23.6133C8.41391 25.3828 11.5545 26.25 14.9998 26.25C18.4452 26.25 21.6913 25.3125 24.1522 23.6133C26.6131 21.914 28.1248 19.4414 28.1248 16.875C28.1241 16.225 28.0334 15.5782 27.8553 14.9531C28.2348 14.5991 28.5378 14.171 28.7454 13.6953C28.953 13.2197 29.0609 12.7065 29.0623 12.1875ZM8.43735 15.4687C8.43735 15.0979 8.54731 14.7354 8.75334 14.427C8.95937 14.1187 9.2522 13.8784 9.59482 13.7364C9.93743 13.5945 10.3144 13.5574 10.6781 13.6297C11.0419 13.7021 11.3759 13.8807 11.6382 14.1429C11.9004 14.4051 12.079 14.7392 12.1513 15.1029C12.2237 15.4666 12.1865 15.8436 12.0446 16.1863C11.9027 16.5289 11.6624 16.8217 11.354 17.0277C11.0457 17.2338 10.6832 17.3437 10.3123 17.3437C9.81507 17.3437 9.33815 17.1462 8.98652 16.7945C8.63489 16.4429 8.43735 15.966 8.43735 15.4687ZM19.3006 21.457C17.9707 22.1425 16.4961 22.5002 14.9998 22.5002C13.5036 22.5002 12.029 22.1425 10.6991 21.457C10.4947 21.3347 10.3447 21.1391 10.2792 20.9101C10.2138 20.6811 10.238 20.4358 10.3469 20.224C10.4558 20.0122 10.6412 19.8498 10.8655 19.7698C11.0898 19.6897 11.3361 19.698 11.5545 19.7929C12.62 20.3418 13.8013 20.6282 14.9998 20.6282C16.1984 20.6282 17.3797 20.3418 18.4452 19.7929C18.6636 19.698 18.9099 19.6897 19.1342 19.7698C19.3585 19.8498 19.5439 20.0122 19.6528 20.224C19.7617 20.4358 19.7858 20.6811 19.7204 20.9101C19.655 21.1391 19.5049 21.3347 19.3006 21.457ZM19.6873 17.3437C19.3165 17.3437 18.954 17.2338 18.6457 17.0277C18.3373 16.8217 18.097 16.5289 17.9551 16.1863C17.8132 15.8436 17.776 15.4666 17.8484 15.1029C17.9207 14.7392 18.0993 14.4051 18.3615 14.1429C18.6237 13.8807 18.9578 13.7021 19.3216 13.6297C19.6853 13.5574 20.0623 13.5945 20.4049 13.7364C20.7475 13.8784 21.0403 14.1187 21.2464 14.427C21.4524 14.7354 21.5623 15.0979 21.5623 15.4687C21.5623 15.966 21.3648 16.4429 21.0132 16.7945C20.6615 17.1462 20.1846 17.3437 19.6873 17.3437Z" fill="white"/>
</svg>
