<svg width="47" height="108" viewBox="0 0 47 108" fill="none" xmlns="http://www.w3.org/2000/svg">
<mask id="mask0_389_4146" style="mask-type:luminance" maskUnits="userSpaceOnUse" x="0" y="85" width="30" height="27">
<path d="M29.4877 96.9334C23.8098 94.1099 17.9218 91.1778 12.3708 88.4195C10.4373 87.453 8.54317 86.5082 6.7103 85.5959C6.59657 86.1715 6.47408 86.7471 6.35598 87.3118C4.66309 95.3262 2.51527 102.656 0 109.096C2.90022 110.866 5.93166 111.8 9.05059 111.8C16.5789 111.789 23.591 106.338 29.4877 96.9334Z" fill="white"/>
</mask>
<g mask="url(#mask0_389_4146)">
<path d="M29.4877 85.5852H0V111.79H29.4877V85.5852Z" fill="url(#paint0_linear_389_4146)"/>
</g>
<mask id="mask1_389_4146" style="mask-type:luminance" maskUnits="userSpaceOnUse" x="10" y="0" width="37" height="53">
<path d="M16.8682 49.2486C26.5312 43.2432 37.454 36.4451 46.5484 30.7655C46.7846 26.5302 46.9027 22.208 46.9027 17.8207C46.9027 11.7284 46.6709 5.77735 46.2247 0C34.147 10.2298 20.0615 22.1429 10.3022 30.3636C10.5516 34.7075 10.6784 39.16 10.6784 43.6776C10.6784 46.5011 10.6303 49.3029 10.5297 52.0613C12.5419 51.1708 14.6635 50.226 16.8682 49.2486Z" fill="white"/>
</mask>
<g mask="url(#mask1_389_4146)">
<path d="M46.9027 0H10.2979V52.0613H46.9027V0Z" fill="url(#paint1_linear_389_4146)"/>
</g>
<mask id="mask2_389_4146" style="mask-type:luminance" maskUnits="userSpaceOnUse" x="9" y="36" width="38" height="35">
<path d="M16.8679 49.2486C14.6675 50.226 12.5416 51.1708 10.5294 52.0613C10.5163 52.4414 10.5031 52.8323 10.4856 53.2124C10.2494 58.9898 9.80761 64.6042 9.16895 70.0232C12.3754 69.806 15.8399 69.5562 19.4312 69.3065C26.9814 67.2974 34.9997 65.1581 42.1999 63.225C44.0547 54.9065 45.4151 45.8061 46.1806 36.1844C36.9463 40.3003 26.2247 45.0894 16.8679 49.2486Z" fill="white"/>
</mask>
<g mask="url(#mask2_389_4146)">
<path d="M46.6786 36.1844H9.66699V70.0232H46.6786V36.1844Z" fill="url(#paint2_linear_389_4146)"/>
</g>
<mask id="mask3_389_4146" style="mask-type:luminance" maskUnits="userSpaceOnUse" x="6" y="67" width="36" height="26">
<path d="M19.4316 69.2956C15.8447 69.5454 12.3758 69.7952 9.16934 70.0124C9.08623 70.7074 9.00312 71.3915 8.91563 72.0865C8.32071 76.7562 7.58144 81.263 6.71094 85.5851C8.53943 86.4973 10.4335 87.4421 12.3714 88.4086C18.828 89.5923 25.7395 90.8521 32.2705 92.0358C35.7612 85.2919 38.762 77.0711 41.1242 67.7427C34.1383 68.2531 26.5444 68.7961 19.4316 69.2956Z" fill="white"/>
</mask>
<g mask="url(#mask3_389_4146)">
<path d="M41.1242 67.7427H6.71094V92.0358H41.1242V67.7427Z" fill="url(#paint3_linear_389_4146)"/>
</g>
<path fill-rule="evenodd" clip-rule="evenodd" d="M10.7532 40.7565L46.9819 15.2037C46.925 10.0127 46.6975 4.93041 46.317 -0.0107422C34.2393 10.2191 20.1538 22.1321 10.3945 30.3529C10.5914 33.7737 10.7139 37.2379 10.7532 40.7565Z" fill="#FDE3A7"/>
<path fill-rule="evenodd" clip-rule="evenodd" d="M9.98926 61.683L44.6212 50.074C45.2818 45.5889 45.8067 40.941 46.1873 36.1736C36.953 40.3003 26.2313 45.0785 16.8702 49.2378C14.6698 50.2151 12.5439 51.1599 10.5317 52.0504C10.5186 52.4305 10.5054 52.8215 10.4879 53.2015C10.3742 56.0794 10.208 58.9029 9.98926 61.683Z" fill="#FF8CC8"/>
<path fill-rule="evenodd" clip-rule="evenodd" d="M8.20752 77.7662L37.2228 80.8503C38.7013 76.7888 40.0443 72.4015 41.221 67.7427C34.2351 68.2531 26.6412 68.7961 19.5284 69.2956C15.9414 69.5454 12.4725 69.7952 9.26612 70.0124C9.18301 70.7074 9.09989 71.3915 9.01241 72.0865C8.76744 74.0087 8.49623 75.8983 8.20752 77.7662Z" fill="#FF8CC8"/>
<path fill-rule="evenodd" clip-rule="evenodd" d="M4.91895 93.9036L19.8006 108.021C23.3001 105.48 26.5896 101.712 29.5861 96.9334C23.9081 94.1099 18.0202 91.1778 12.4691 88.4195C10.5357 87.453 8.64154 86.5082 6.80868 85.5959C6.69494 86.1715 6.57246 86.7471 6.45435 87.3118C5.97755 89.5597 5.46574 91.7642 4.91895 93.9036Z" fill="#FF8CC8"/>
<path fill-rule="evenodd" clip-rule="evenodd" d="M25.2679 30.5265L46.6455 30.7655C46.8818 26.5302 46.9999 22.208 46.9999 17.8207C46.9999 16.9519 46.9955 16.0832 46.9868 15.2144C46.9299 10.0235 46.7024 4.94115 46.3218 0C34.2442 10.2298 20.1587 22.1429 10.3994 30.3636L25.2679 30.5265Z" fill="#FDE3A7"/>
<path fill-rule="evenodd" clip-rule="evenodd" d="M10.5059 52.0613L24.2458 56.9047L42.1764 63.225C43.1081 59.0332 43.9174 54.6459 44.591 50.0848C45.2516 45.5998 45.7765 40.9518 46.1571 36.1844C36.9228 40.3111 26.2011 45.0894 16.84 49.2486C14.6397 50.226 12.5181 51.1708 10.5059 52.0613Z" fill="#FFBCD8"/>
<path fill-rule="evenodd" clip-rule="evenodd" d="M9.26611 70.0232L18.5442 78.863L32.3672 92.0358C34.1126 88.6584 35.7399 84.9227 37.2228 80.8503C38.7013 76.7888 40.0443 72.4015 41.221 67.7427C34.2351 68.2531 26.6412 68.7961 19.5284 69.2956C15.937 69.5562 12.4725 69.7952 9.26611 70.0232Z" fill="#FFBCD8"/>
<path fill-rule="evenodd" clip-rule="evenodd" d="M10.1851 98.899L13.3128 111.225C15.5394 110.617 17.7091 109.542 19.8 108.01C23.2995 105.469 26.5891 101.701 29.5855 96.9226C23.9076 94.0991 18.0197 91.167 12.4686 88.4086C10.5351 87.4421 8.64097 86.4973 6.80811 85.5851L10.1851 98.899Z" fill="#FFBCD8"/>
<defs>
<linearGradient id="paint0_linear_389_4146" x1="0.258972" y1="100.091" x2="39.4323" y2="99.4762" gradientUnits="userSpaceOnUse">
<stop stop-color="#003780"/>
<stop offset="1" stop-color="#DE3DED"/>
</linearGradient>
<linearGradient id="paint1_linear_389_4146" x1="48.2609" y1="-4.53896" x2="0.458569" y2="7.52124" gradientUnits="userSpaceOnUse">
<stop stop-color="#FFCF4B"/>
<stop offset="1" stop-color="#DA3C78"/>
</linearGradient>
<linearGradient id="paint2_linear_389_4146" x1="19.625" y1="68.239" x2="60.5743" y2="56.4712" gradientUnits="userSpaceOnUse">
<stop stop-color="#BA1C58"/>
<stop offset="1" stop-color="#FF8CC8"/>
</linearGradient>
<linearGradient id="paint3_linear_389_4146" x1="7.92698" y1="80.4143" x2="42.598" y2="80.2301" gradientUnits="userSpaceOnUse">
<stop stop-color="#5E147D"/>
<stop offset="1" stop-color="#E63CE0"/>
</linearGradient>
</defs>
</svg>
