<svg width="31" height="31" viewBox="0 0 31 31" fill="none" xmlns="http://www.w3.org/2000/svg">
<path d="M22.125 19.5H20.7425L20.2525 19.0275C22.0268 16.9695 23.0019 14.3422 23 11.625C23 9.37524 22.3329 7.176 21.083 5.30539C19.8331 3.43478 18.0565 1.97682 15.978 1.11588C13.8995 0.254929 11.6124 0.0296656 9.40585 0.468573C7.19931 0.90748 5.17248 1.99084 3.58166 3.58167C1.99084 5.17249 0.907474 7.19932 0.468567 9.40585C0.0296604 11.6124 0.254923 13.8995 1.11587 15.978C1.97682 18.0565 3.43478 19.8331 5.30539 21.083C7.176 22.3329 9.37524 23 11.625 23C14.4425 23 17.0325 21.9675 19.0275 20.2525L19.5 20.7425V22.125L26.9449 29.5551C27.6659 30.2746 28.8335 30.274 29.5538 29.5538C30.274 28.8335 30.2746 27.6659 29.5551 26.945L22.125 19.5ZM11.625 19.5C7.2675 19.5 3.75 15.9825 3.75 11.625C3.75 7.26751 7.2675 3.75001 11.625 3.75001C15.9825 3.75001 19.5 7.26751 19.5 11.625C19.5 15.9825 15.9825 19.5 11.625 19.5Z" fill="#8B5CF6"/>
</svg>
