<svg width="42" height="42" viewBox="0 0 42 42" fill="none" xmlns="http://www.w3.org/2000/svg">
<path d="M28.3922 25.7673H27.0097L26.5197 25.2948C28.294 23.2369 29.2691 20.6096 29.2672 17.8923C29.2672 15.6426 28.6001 13.4433 27.3502 11.5727C26.1003 9.70212 24.3237 8.24416 22.2452 7.38321C20.1667 6.52226 17.8796 6.297 15.6731 6.73591C13.4665 7.17481 11.4397 8.25818 9.84888 9.849C8.25805 11.4398 7.17469 13.4667 6.73578 15.6732C6.29688 17.8797 6.52214 20.1669 7.38309 22.2454C8.24403 24.3239 9.702 26.1004 11.5726 27.3503C13.4432 28.6002 15.6425 29.2673 17.8922 29.2673C20.7097 29.2673 23.2997 28.2348 25.2947 26.5198L25.7672 27.0098V28.3923L32.7672 35.3748L35.3747 32.7673L28.3922 25.7673ZM17.8922 25.7673C13.5347 25.7673 10.0172 22.2498 10.0172 17.8923C10.0172 13.5348 13.5347 10.0173 17.8922 10.0173C22.2497 10.0173 25.7672 13.5348 25.7672 17.8923C25.7672 22.2498 22.2497 25.7673 17.8922 25.7673Z" fill="#C4B5FD"/>
</svg>
