<svg width="40" height="45" viewBox="0 0 40 45" fill="none" xmlns="http://www.w3.org/2000/svg">
<g filter="url(#filter0_ddd_1494_20874)">
<path d="M16.9299 2.5501L23.5924 13.9313L14.1924 16.6032C7.7002 14.4579 3.87676 10.3282 1.57051 6.08447C0.598637 4.29385 0.606449 1.00635 4.47051 1.00635H14.233C14.7783 1.00625 15.3141 1.14883 15.7872 1.41993C16.2603 1.69102 16.6543 2.07962 16.9299 2.5501Z" fill="#4686EC"/>
<path d="M16.9299 2.5501L23.5924 13.9313L14.1924 16.6032C7.7002 14.4579 3.87676 10.3282 1.57051 6.08447C0.598637 4.29385 0.606449 1.00635 4.47051 1.00635H14.233C14.7783 1.00625 15.3141 1.14883 15.7872 1.41993C16.2603 1.69102 16.6543 2.07962 16.9299 2.5501Z" fill="url(#paint0_radial_1494_20874)"/>
<path d="M16.9299 2.5501L23.5924 13.9313L14.1924 16.6032C7.7002 14.4579 3.87676 10.3282 1.57051 6.08447C0.598637 4.29385 0.606449 1.00635 4.47051 1.00635H14.233C14.7783 1.00625 15.3141 1.14883 15.7872 1.41993C16.2603 1.69102 16.6543 2.07962 16.9299 2.5501Z" fill="url(#paint1_linear_1494_20874)"/>
</g>
<g filter="url(#filter1_ddd_1494_20874)">
<path d="M22.8314 2.5502L16.1689 13.9314L25.5689 16.6033C32.0611 14.4564 35.8846 10.3268 38.1908 6.08301C39.1627 4.29238 39.1549 1.00488 35.2908 1.00488H25.5283C24.983 1.00479 24.4472 1.14737 23.9741 1.41846C23.501 1.68955 23.1071 2.07972 22.8314 2.5502Z" fill="#4686EC"/>
<path d="M22.8314 2.5502L16.1689 13.9314L25.5689 16.6033C32.0611 14.4564 35.8846 10.3268 38.1908 6.08301C39.1627 4.29238 39.1549 1.00488 35.2908 1.00488H25.5283C24.983 1.00479 24.4472 1.14737 23.9741 1.41846C23.501 1.68955 23.1071 2.07972 22.8314 2.5502Z" fill="url(#paint2_radial_1494_20874)"/>
<path d="M22.8314 2.5502L16.1689 13.9314L25.5689 16.6033C32.0611 14.4564 35.8846 10.3268 38.1908 6.08301C39.1627 4.29238 39.1549 1.00488 35.2908 1.00488H25.5283C24.983 1.00479 24.4472 1.14737 23.9741 1.41846C23.501 1.68955 23.1071 2.07972 22.8314 2.5502Z" fill="url(#paint3_linear_1494_20874)"/>
</g>
<path d="M22.8314 2.5502L16.1689 13.9314L25.5689 16.6033C32.0611 14.4564 35.8846 10.3268 38.1908 6.08301C39.1627 4.29238 39.1549 1.00488 35.2908 1.00488H25.5283C24.983 1.00479 24.4472 1.14737 23.9741 1.41846C23.501 1.68955 23.1071 2.07972 22.8314 2.5502Z" fill="url(#paint4_linear_1494_20874)"/>
<path d="M20.0735 44.1563C28.7444 44.1563 35.7735 37.1272 35.7735 28.4563C35.7735 19.7855 28.7444 12.7563 20.0735 12.7563C11.4027 12.7563 4.37354 19.7855 4.37354 28.4563C4.37354 37.1272 11.4027 44.1563 20.0735 44.1563Z" fill="url(#paint5_linear_1494_20874)"/>
<path d="M20.0735 44.1563C28.7444 44.1563 35.7735 37.1272 35.7735 28.4563C35.7735 19.7855 28.7444 12.7563 20.0735 12.7563C11.4027 12.7563 4.37354 19.7855 4.37354 28.4563C4.37354 37.1272 11.4027 44.1563 20.0735 44.1563Z" fill="url(#paint6_linear_1494_20874)"/>
<path d="M20.0735 42.0313C27.5708 42.0313 33.6485 35.9536 33.6485 28.4563C33.6485 20.9591 27.5708 14.8813 20.0735 14.8813C12.5763 14.8813 6.49854 20.9591 6.49854 28.4563C6.49854 35.9536 12.5763 42.0313 20.0735 42.0313Z" fill="url(#paint7_linear_1494_20874)"/>
<path d="M20.0737 40.3081C26.6192 40.3081 31.9253 35.002 31.9253 28.4565C31.9253 21.9111 26.6192 16.605 20.0737 16.605C13.5283 16.605 8.22217 21.9111 8.22217 28.4565C8.22217 35.002 13.5283 40.3081 20.0737 40.3081Z" fill="url(#paint8_linear_1494_20874)"/>
<path d="M20.0737 40.3081C26.6192 40.3081 31.9253 35.002 31.9253 28.4565C31.9253 21.9111 26.6192 16.605 20.0737 16.605C13.5283 16.605 8.22217 21.9111 8.22217 28.4565C8.22217 35.002 13.5283 40.3081 20.0737 40.3081Z" fill="url(#paint9_radial_1494_20874)"/>
<path d="M20.0737 40.3081C26.6192 40.3081 31.9253 35.002 31.9253 28.4565C31.9253 21.9111 26.6192 16.605 20.0737 16.605C13.5283 16.605 8.22217 21.9111 8.22217 28.4565C8.22217 35.002 13.5283 40.3081 20.0737 40.3081Z" fill="url(#paint10_radial_1494_20874)"/>
<path d="M20.0737 40.3081C26.6192 40.3081 31.9253 35.002 31.9253 28.4565C31.9253 21.9111 26.6192 16.605 20.0737 16.605C13.5283 16.605 8.22217 21.9111 8.22217 28.4565C8.22217 35.002 13.5283 40.3081 20.0737 40.3081Z" fill="url(#paint11_radial_1494_20874)"/>
<g filter="url(#filter2_dd_1494_20874)">
<path d="M23.1831 35.394H16.98C16.6811 35.3948 16.3883 35.3098 16.1363 35.1492C15.8843 34.9885 15.6836 34.759 15.5581 34.4878C15.4278 34.219 15.3777 33.9185 15.4137 33.622C15.4497 33.3255 15.5704 33.0456 15.7612 32.8159L20.9175 26.4878C21.3238 25.9878 21.1363 25.4565 21.0738 25.3003C21.0011 25.1184 20.8763 24.962 20.7151 24.8508C20.5538 24.7396 20.3633 24.6786 20.1675 24.6753H20.0894C19.5894 24.6753 19.1363 24.9097 18.8394 25.3159C18.3394 26.019 17.355 26.1909 16.6363 25.6909C16.4667 25.5711 16.3225 25.4189 16.2119 25.2433C16.1013 25.0676 16.0264 24.8718 15.9916 24.6672C15.9568 24.4625 15.9627 24.253 16.0089 24.0506C16.0552 23.8482 16.1409 23.657 16.2613 23.4878C17.1363 22.2534 18.5581 21.519 20.0738 21.519H20.2769C21.8706 21.5972 23.2613 22.5503 23.9175 24.0034C24.5894 25.5034 24.3706 27.2065 23.3394 28.4722L20.2925 32.2222H23.1675C24.0425 32.2222 24.7456 32.9253 24.7456 33.8003C24.7456 34.6753 24.0581 35.394 23.1831 35.394Z" fill="#6A6372"/>
</g>
<defs>
<filter id="filter0_ddd_1494_20874" x="0.281738" y="0.406348" width="23.9105" height="16.9467" filterUnits="userSpaceOnUse" color-interpolation-filters="sRGB">
<feFlood flood-opacity="0" result="BackgroundImageFix"/>
<feColorMatrix in="SourceAlpha" type="matrix" values="0 0 0 0 0 0 0 0 0 0 0 0 0 0 0 0 0 0 127 0" result="hardAlpha"/>
<feOffset dx="-0.2" dy="-0.2"/>
<feGaussianBlur stdDeviation="0.2"/>
<feComposite in2="hardAlpha" operator="out"/>
<feColorMatrix type="matrix" values="0 0 0 0 0.317647 0 0 0 0 0.458824 0 0 0 0 0.886275 0 0 0 1 0"/>
<feBlend mode="normal" in2="BackgroundImageFix" result="effect1_dropShadow_1494_20874"/>
<feColorMatrix in="SourceAlpha" type="matrix" values="0 0 0 0 0 0 0 0 0 0 0 0 0 0 0 0 0 0 127 0" result="hardAlpha"/>
<feOffset dx="0.2" dy="0.2"/>
<feGaussianBlur stdDeviation="0.2"/>
<feComposite in2="hardAlpha" operator="out"/>
<feColorMatrix type="matrix" values="0 0 0 0 0.317647 0 0 0 0 0.458824 0 0 0 0 0.886275 0 0 0 1 0"/>
<feBlend mode="normal" in2="effect1_dropShadow_1494_20874" result="effect2_dropShadow_1494_20874"/>
<feColorMatrix in="SourceAlpha" type="matrix" values="0 0 0 0 0 0 0 0 0 0 0 0 0 0 0 0 0 0 127 0" result="hardAlpha"/>
<feOffset dx="-0.25" dy="0.25"/>
<feGaussianBlur stdDeviation="0.25"/>
<feComposite in2="hardAlpha" operator="out"/>
<feColorMatrix type="matrix" values="0 0 0 0 0.372549 0 0 0 0 0.607843 0 0 0 0 0.960784 0 0 0 1 0"/>
<feBlend mode="normal" in2="effect2_dropShadow_1494_20874" result="effect3_dropShadow_1494_20874"/>
<feBlend mode="normal" in="SourceGraphic" in2="effect3_dropShadow_1494_20874" result="shape"/>
</filter>
<filter id="filter1_ddd_1494_20874" x="15.4189" y="0.404883" width="23.9105" height="16.9486" filterUnits="userSpaceOnUse" color-interpolation-filters="sRGB">
<feFlood flood-opacity="0" result="BackgroundImageFix"/>
<feColorMatrix in="SourceAlpha" type="matrix" values="0 0 0 0 0 0 0 0 0 0 0 0 0 0 0 0 0 0 127 0" result="hardAlpha"/>
<feOffset dx="-0.2" dy="-0.2"/>
<feGaussianBlur stdDeviation="0.2"/>
<feComposite in2="hardAlpha" operator="out"/>
<feColorMatrix type="matrix" values="0 0 0 0 0.317647 0 0 0 0 0.458824 0 0 0 0 0.886275 0 0 0 1 0"/>
<feBlend mode="normal" in2="BackgroundImageFix" result="effect1_dropShadow_1494_20874"/>
<feColorMatrix in="SourceAlpha" type="matrix" values="0 0 0 0 0 0 0 0 0 0 0 0 0 0 0 0 0 0 127 0" result="hardAlpha"/>
<feOffset dx="0.2" dy="0.2"/>
<feGaussianBlur stdDeviation="0.2"/>
<feComposite in2="hardAlpha" operator="out"/>
<feColorMatrix type="matrix" values="0 0 0 0 0.317647 0 0 0 0 0.458824 0 0 0 0 0.886275 0 0 0 1 0"/>
<feBlend mode="normal" in2="effect1_dropShadow_1494_20874" result="effect2_dropShadow_1494_20874"/>
<feColorMatrix in="SourceAlpha" type="matrix" values="0 0 0 0 0 0 0 0 0 0 0 0 0 0 0 0 0 0 127 0" result="hardAlpha"/>
<feOffset dx="-0.25" dy="0.25"/>
<feGaussianBlur stdDeviation="0.25"/>
<feComposite in2="hardAlpha" operator="out"/>
<feColorMatrix type="matrix" values="0 0 0 0 0.372549 0 0 0 0 0.607843 0 0 0 0 0.960784 0 0 0 1 0"/>
<feBlend mode="normal" in2="effect2_dropShadow_1494_20874" result="effect3_dropShadow_1494_20874"/>
<feBlend mode="normal" in="SourceGraphic" in2="effect3_dropShadow_1494_20874" result="shape"/>
</filter>
<filter id="filter2_dd_1494_20874" x="14.5023" y="20.919" width="10.8433" height="15.375" filterUnits="userSpaceOnUse" color-interpolation-filters="sRGB">
<feFlood flood-opacity="0" result="BackgroundImageFix"/>
<feColorMatrix in="SourceAlpha" type="matrix" values="0 0 0 0 0 0 0 0 0 0 0 0 0 0 0 0 0 0 127 0" result="hardAlpha"/>
<feOffset dx="-0.3" dy="0.3"/>
<feGaussianBlur stdDeviation="0.3"/>
<feComposite in2="hardAlpha" operator="out"/>
<feColorMatrix type="matrix" values="0 0 0 0 0.286275 0 0 0 0 0.223529 0 0 0 0 0.345098 0 0 0 1 0"/>
<feBlend mode="normal" in2="BackgroundImageFix" result="effect1_dropShadow_1494_20874"/>
<feColorMatrix in="SourceAlpha" type="matrix" values="0 0 0 0 0 0 0 0 0 0 0 0 0 0 0 0 0 0 127 0" result="hardAlpha"/>
<feOffset dx="0.2" dy="-0.2"/>
<feGaussianBlur stdDeviation="0.2"/>
<feComposite in2="hardAlpha" operator="out"/>
<feColorMatrix type="matrix" values="0 0 0 0 0.482353 0 0 0 0 0.47451 0 0 0 0 0.490196 0 0 0 1 0"/>
<feBlend mode="normal" in2="effect1_dropShadow_1494_20874" result="effect2_dropShadow_1494_20874"/>
<feBlend mode="normal" in="SourceGraphic" in2="effect2_dropShadow_1494_20874" result="shape"/>
</filter>
<radialGradient id="paint0_radial_1494_20874" cx="0" cy="0" r="1" gradientUnits="userSpaceOnUse" gradientTransform="translate(15.4746 15.502) rotate(-123.321) scale(7.193 26.863)">
<stop stop-color="#3669D9"/>
<stop offset="1" stop-color="#3669D9" stop-opacity="0"/>
</radialGradient>
<linearGradient id="paint1_linear_1494_20874" x1="5.28457" y1="0.161035" x2="8.08926" y2="7.14541" gradientUnits="userSpaceOnUse">
<stop stop-color="#3D89EC"/>
<stop offset="1" stop-color="#3D89EC" stop-opacity="0"/>
</linearGradient>
<radialGradient id="paint2_radial_1494_20874" cx="0" cy="0" r="1" gradientUnits="userSpaceOnUse" gradientTransform="translate(24.2877 15.5033) rotate(-57.2649) scale(4.76359 10.4489)">
<stop stop-color="#3669D9"/>
<stop offset="1" stop-color="#3669D9" stop-opacity="0"/>
</radialGradient>
<linearGradient id="paint3_linear_1494_20874" x1="34.4768" y1="0.161132" x2="31.6721" y2="7.14551" gradientUnits="userSpaceOnUse">
<stop stop-color="#3D89EC"/>
<stop offset="1" stop-color="#3D89EC" stop-opacity="0"/>
</linearGradient>
<linearGradient id="paint4_linear_1494_20874" x1="19.608" y1="8.03613" x2="20.1346" y2="8.32832" gradientUnits="userSpaceOnUse">
<stop stop-color="#1A6DD8"/>
<stop offset="1" stop-color="#1A6DD8" stop-opacity="0"/>
</linearGradient>
<linearGradient id="paint5_linear_1494_20874" x1="32.1829" y1="20.3407" x2="17.5782" y2="33.6938" gradientUnits="userSpaceOnUse">
<stop stop-color="#EFEAF6"/>
<stop offset="1" stop-color="#B5A8C3"/>
</linearGradient>
<linearGradient id="paint6_linear_1494_20874" x1="14.5876" y1="44.9188" x2="18.1282" y2="24.386" gradientUnits="userSpaceOnUse">
<stop stop-color="#D0A9F4"/>
<stop offset="1" stop-color="#D0A9F4" stop-opacity="0"/>
</linearGradient>
<linearGradient id="paint7_linear_1494_20874" x1="32.4423" y1="26.0829" x2="20.0735" y2="26.0829" gradientUnits="userSpaceOnUse">
<stop stop-color="#D3C6E2"/>
<stop offset="1" stop-color="#D6C6E8"/>
</linearGradient>
<linearGradient id="paint8_linear_1494_20874" x1="12.6347" y1="31.5362" x2="32.3581" y2="25.5675" gradientUnits="userSpaceOnUse">
<stop stop-color="#E0D3EF"/>
<stop offset="1" stop-color="#C1B0D4"/>
</linearGradient>
<radialGradient id="paint9_radial_1494_20874" cx="0" cy="0" r="1" gradientUnits="userSpaceOnUse" gradientTransform="translate(24.5713 26.6601) rotate(156.644) scale(17.8078 15.1742)">
<stop offset="0.837" stop-color="#F6ECFE" stop-opacity="0"/>
<stop offset="1" stop-color="#F6ECFE"/>
</radialGradient>
<radialGradient id="paint10_radial_1494_20874" cx="0" cy="0" r="1" gradientUnits="userSpaceOnUse" gradientTransform="translate(18.56 29.8617) rotate(-41.294) scale(14.0062 13.4487)">
<stop offset="0.91" stop-color="#B396CF" stop-opacity="0"/>
<stop offset="0.992" stop-color="#B796D5"/>
</radialGradient>
<radialGradient id="paint11_radial_1494_20874" cx="0" cy="0" r="1" gradientUnits="userSpaceOnUse" gradientTransform="translate(19.7315 27.469) rotate(37.9308) scale(13.1859 14.9427)">
<stop offset="0.926" stop-color="#AB9CBB" stop-opacity="0"/>
<stop offset="1" stop-color="#AB9CBB"/>
</radialGradient>
</defs>
</svg>
