<svg viewBox="0 0 13 16" fill="none" xmlns="http://www.w3.org/2000/svg">
<path d="M8.115 0.916657C8.41233 0.916734 8.7021 1.01036 8.94326 1.18427C9.18442 1.35818 9.36475 1.60356 9.45871 1.88566L9.84333 3.04166H12.1667C12.3545 3.04166 12.5347 3.11628 12.6675 3.24912C12.8004 3.38196 12.875 3.56213 12.875 3.74999C12.875 3.93785 12.8004 4.11802 12.6675 4.25086C12.5347 4.3837 12.3545 4.45832 12.1667 4.45832L12.1645 4.50862L11.5504 13.1099C11.5121 13.6458 11.2722 14.1474 10.8789 14.5135C10.4857 14.8797 9.96838 15.0833 9.43108 15.0833H3.56892C3.03162 15.0833 2.51428 14.8797 2.12106 14.5135C1.72783 14.1474 1.48791 13.6458 1.44958 13.1099L0.835458 4.50791C0.834177 4.49141 0.833468 4.47487 0.833333 4.45832C0.645472 4.45832 0.465304 4.3837 0.332466 4.25086C0.199628 4.11802 0.125 3.93785 0.125 3.74999C0.125 3.56213 0.199628 3.38196 0.332466 3.24912C0.465304 3.11628 0.645472 3.04166 0.833333 3.04166H3.15667L3.54129 1.88566C3.63529 1.60345 3.81572 1.35799 4.05703 1.18406C4.29833 1.01014 4.58826 0.916585 4.88571 0.916657H8.115ZM10.7479 4.45832H2.25212L2.86271 13.0086C2.87542 13.1873 2.95534 13.3545 3.08637 13.4766C3.2174 13.5986 3.38982 13.6666 3.56892 13.6667H9.43108C9.61018 13.6666 9.7826 13.5986 9.91363 13.4766C10.0447 13.3545 10.1246 13.1873 10.1373 13.0086L10.7479 4.45832ZM5.08333 6.58332C5.25683 6.58335 5.42428 6.64704 5.55393 6.76233C5.68358 6.87762 5.76641 7.03648 5.78671 7.20878L5.79167 7.29166V10.8333C5.79147 11.0139 5.72234 11.1875 5.5984 11.3188C5.47446 11.4501 5.30507 11.5291 5.12485 11.5397C4.94462 11.5502 4.76715 11.4916 4.6287 11.3757C4.49026 11.2598 4.40128 11.0955 4.37996 10.9162L4.375 10.8333V7.29166C4.375 7.1038 4.44963 6.92363 4.58247 6.79079C4.7153 6.65795 4.89547 6.58332 5.08333 6.58332ZM7.91667 6.58332C8.10453 6.58332 8.2847 6.65795 8.41753 6.79079C8.55037 6.92363 8.625 7.1038 8.625 7.29166V10.8333C8.625 11.0212 8.55037 11.2014 8.41753 11.3342C8.2847 11.467 8.10453 11.5417 7.91667 11.5417C7.7288 11.5417 7.54864 11.467 7.4158 11.3342C7.28296 11.2014 7.20833 11.0212 7.20833 10.8333V7.29166C7.20833 7.1038 7.28296 6.92363 7.4158 6.79079C7.54864 6.65795 7.7288 6.58332 7.91667 6.58332ZM8.115 2.33332H4.885L4.64913 3.04166H8.35087L8.115 2.33332Z" fill="white"/>
</svg>
