<svg width="119" height="76" viewBox="0 0 119 76" fill="none" xmlns="http://www.w3.org/2000/svg">
<path d="M40.08 26.8641V50.0001H37.872C37.5307 50.0001 37.2427 49.9467 37.008 49.8401C36.784 49.7227 36.5653 49.5307 36.352 49.2641L24.272 33.8401C24.336 34.5441 24.368 35.1947 24.368 35.7921V50.0001H20.576V26.8641H22.832C23.0133 26.8641 23.168 26.8747 23.296 26.8961C23.4347 26.9067 23.552 26.9387 23.648 26.9921C23.7547 27.0347 23.856 27.1041 23.952 27.2001C24.048 27.2854 24.1547 27.4027 24.272 27.5521L36.4 43.0401C36.368 42.6667 36.3413 42.2987 36.32 41.9361C36.2987 41.5734 36.288 41.2374 36.288 40.9281V26.8641H40.08ZM54.6843 39.9041C54.6843 39.3921 54.6096 38.9121 54.4603 38.4641C54.3216 38.0054 54.1083 37.6054 53.8203 37.2641C53.5323 36.9227 53.1643 36.6561 52.7163 36.4641C52.2789 36.2614 51.7669 36.1601 51.1803 36.1601C50.0389 36.1601 49.1376 36.4854 48.4763 37.1361C47.8256 37.7867 47.4096 38.7094 47.2283 39.9041H54.6843ZM47.1483 42.2881C47.2123 43.1307 47.3616 43.8614 47.5963 44.4801C47.8309 45.0881 48.1403 45.5947 48.5243 46.0001C48.9083 46.3947 49.3616 46.6934 49.8843 46.8961C50.4176 47.0881 51.0043 47.1841 51.6443 47.1841C52.2843 47.1841 52.8336 47.1094 53.2923 46.9601C53.7616 46.8107 54.1669 46.6454 54.5083 46.4641C54.8603 46.2827 55.1643 46.1174 55.4203 45.9681C55.6869 45.8187 55.9429 45.7441 56.1883 45.7441C56.5189 45.7441 56.7643 45.8667 56.9243 46.1121L58.0603 47.5521C57.6229 48.0641 57.1323 48.4961 56.5883 48.8481C56.0443 49.1894 55.4736 49.4667 54.8763 49.6801C54.2896 49.8827 53.6869 50.0267 53.0683 50.1121C52.4603 50.1974 51.8683 50.2401 51.2923 50.2401C50.1509 50.2401 49.0896 50.0534 48.1083 49.6801C47.1269 49.2961 46.2736 48.7361 45.5483 48.0001C44.8229 47.2534 44.2523 46.3361 43.8363 45.2481C43.4203 44.1494 43.2122 42.8801 43.2122 41.4401C43.2122 40.3201 43.3936 39.2694 43.7563 38.2881C44.1189 37.2961 44.6363 36.4374 45.3083 35.7121C45.9909 34.9761 46.8176 34.3947 47.7883 33.9681C48.7696 33.5414 49.8736 33.3281 51.1003 33.3281C52.1349 33.3281 53.0896 33.4934 53.9643 33.8241C54.8389 34.1547 55.5909 34.6401 56.2203 35.2801C56.8496 35.9094 57.3403 36.6881 57.6923 37.6161C58.0549 38.5334 58.2362 39.5841 58.2362 40.7681C58.2362 41.3654 58.1723 41.7707 58.0443 41.9841C57.9163 42.1867 57.6709 42.2881 57.3083 42.2881H47.1483ZM84.4233 33.5841L79.2073 50.0001H76.0393C75.6766 50.0001 75.4259 49.7654 75.2873 49.2961L72.3433 39.8081C72.2473 39.4881 72.1566 39.1734 72.0713 38.8641C71.9966 38.5441 71.9326 38.2241 71.8793 37.9041C71.8153 38.2241 71.7406 38.5494 71.6553 38.8801C71.5806 39.2001 71.4953 39.5201 71.3993 39.8401L68.4073 49.2961C68.2793 49.7654 67.9966 50.0001 67.5593 50.0001H64.5193L59.3193 33.5841H62.4713C62.7593 33.5841 63.0046 33.6534 63.2073 33.7921C63.4099 33.9307 63.5433 34.1067 63.6073 34.3201L65.9593 43.0881C66.0766 43.5681 66.1779 44.0374 66.2633 44.4961C66.3593 44.9547 66.4393 45.4134 66.5033 45.8721C66.6206 45.4134 66.7433 44.9547 66.8713 44.4961C67.0099 44.0374 67.1539 43.5681 67.3033 43.0881L70.0233 34.2881C70.0873 34.0747 70.2099 33.8987 70.3913 33.7601C70.5833 33.6214 70.8126 33.5521 71.0793 33.5521H72.8233C73.1006 33.5521 73.3353 33.6214 73.5273 33.7601C73.7299 33.8987 73.8633 34.0747 73.9273 34.2881L76.5673 43.0881C76.7059 43.5681 76.8339 44.0427 76.9513 44.5121C77.0793 44.9707 77.2019 45.4294 77.3193 45.8881C77.4579 44.9814 77.6553 44.0481 77.9113 43.0881L80.3273 34.3201C80.4019 34.1067 80.5353 33.9307 80.7273 33.7921C80.9193 33.6534 81.1486 33.5841 81.4153 33.5841H84.4233ZM96.4993 36.7841C96.3926 36.9547 96.2806 37.0774 96.1633 37.1521C96.0459 37.2161 95.8966 37.2481 95.7153 37.2481C95.5233 37.2481 95.3153 37.1947 95.0913 37.0881C94.8779 36.9814 94.6273 36.8641 94.3393 36.7361C94.0513 36.5974 93.7206 36.4747 93.3472 36.3681C92.9846 36.2614 92.5526 36.2081 92.0513 36.2081C91.2726 36.2081 90.6593 36.3734 90.2113 36.7041C89.7739 37.0347 89.5553 37.4667 89.5553 38.0001C89.5553 38.3521 89.6673 38.6507 89.8913 38.8961C90.1259 39.1307 90.4299 39.3387 90.8033 39.5201C91.1873 39.7014 91.6193 39.8667 92.0993 40.0161C92.5793 40.1547 93.0646 40.3094 93.5553 40.4801C94.0566 40.6507 94.5473 40.8481 95.0273 41.0721C95.5073 41.2854 95.9339 41.5627 96.3073 41.9041C96.6913 42.2347 96.9953 42.6347 97.2193 43.1041C97.4539 43.5734 97.5713 44.1387 97.5713 44.8001C97.5713 45.5894 97.4273 46.3201 97.1393 46.9921C96.8619 47.6534 96.4459 48.2294 95.8913 48.7201C95.3366 49.2001 94.6486 49.5787 93.8273 49.8561C93.0166 50.1227 92.0779 50.2561 91.0113 50.2561C90.4459 50.2561 89.8913 50.2027 89.3473 50.0961C88.8139 50.0001 88.2966 49.8614 87.7953 49.6801C87.3046 49.4987 86.8459 49.2854 86.4193 49.0401C86.0033 48.7947 85.6353 48.5281 85.3153 48.2401L86.2273 46.7361C86.3446 46.5547 86.4833 46.4161 86.6432 46.3201C86.8032 46.2241 87.0059 46.1761 87.2513 46.1761C87.4966 46.1761 87.7259 46.2454 87.9393 46.3841C88.1633 46.5227 88.4193 46.6721 88.7073 46.8321C88.9953 46.9921 89.3313 47.1414 89.7153 47.2801C90.1099 47.4187 90.6059 47.4881 91.2033 47.4881C91.6726 47.4881 92.0726 47.4347 92.4033 47.3281C92.7446 47.2107 93.0219 47.0614 93.2353 46.8801C93.4593 46.6987 93.6192 46.4907 93.7153 46.2561C93.8219 46.0107 93.8753 45.7601 93.8753 45.5041C93.8753 45.1201 93.7579 44.8054 93.5233 44.5601C93.2993 44.3147 92.9953 44.1014 92.6112 43.9201C92.2379 43.7387 91.8059 43.5787 91.3153 43.4401C90.8353 43.2907 90.3393 43.1307 89.8273 42.9601C89.3259 42.7894 88.8299 42.5921 88.3393 42.3681C87.8593 42.1334 87.4273 41.8401 87.0433 41.4881C86.6699 41.1361 86.3659 40.7041 86.1313 40.1921C85.9073 39.6801 85.7953 39.0614 85.7953 38.3361C85.7953 37.6641 85.9286 37.0241 86.1953 36.4161C86.4619 35.8081 86.8513 35.2801 87.3633 34.8321C87.8859 34.3734 88.5313 34.0107 89.2993 33.7441C90.0779 33.4667 90.9739 33.3281 91.9873 33.3281C93.1179 33.3281 94.1473 33.5147 95.0753 33.8881C96.0033 34.2614 96.7766 34.7521 97.3953 35.3601L96.4993 36.7841Z" fill="white"/>
<path fill-rule="evenodd" clip-rule="evenodd" d="M84.6458 9.10401C90.294 9.12866 94.8475 11.0744 99.4098 13.2776C114.372 20.5134 119.689 32.3355 110.004 44.4485C94.9417 63.2345 58.8404 76.4023 30.3547 71.8269C24.0463 70.8195 15.5248 70.0302 9.10761 64.2996C3.1382 58.9714 3.16098 52.4004 5.61071 46.2361C8.10355 39.9166 13.1201 34.0097 17.144 30.1862C34.7379 13.503 70.5577 -2.31933 103.648 4.29337C104.328 4.41937 104.995 4.14162 105.172 3.67186C105.35 3.2021 104.996 2.71649 104.364 2.58888C70.3014 -4.21636 33.3349 11.9583 15.2261 29.1278C10.22 33.8951 3.7254 41.7912 2.06081 49.7929C0.939448 55.2613 2.0398 60.7765 7.21461 65.4339C14.0304 71.5389 23.0879 72.4777 29.7846 73.5513C59.1924 78.2775 96.5352 64.7185 112.06 45.3174C122.487 32.2975 116.851 19.576 100.761 11.7988C95.8542 9.40687 90.8627 7.3648 84.7318 7.33856C84.0559 7.33597 83.49 7.72934 83.5061 8.21526C83.4741 8.70277 84.0181 9.09982 84.6458 9.10401Z" fill="#BE185D"/>
</svg>
