<svg width="16" height="16" viewBox="0 0 16 16" fill="none" xmlns="http://www.w3.org/2000/svg">
<path d="M13.748 12.5366C13.8279 12.6163 13.8912 12.7109 13.9345 12.8151C13.9777 12.9192 14 13.0309 14 13.1437C14 13.2565 13.9777 13.3682 13.9345 13.4724C13.8912 13.5766 13.8279 13.6712 13.748 13.7508C13.5863 13.9105 13.3682 14 13.1411 14C12.9139 14 12.6958 13.9105 12.5341 13.7508L8 9.21538L3.46588 13.7508C3.30418 13.9105 3.08614 14 2.85895 14C2.63176 14 2.41371 13.9105 2.25202 13.7508C2.17214 13.6712 2.10875 13.5766 2.06551 13.4724C2.02226 13.3682 2 13.2565 2 13.1437C2 13.0309 2.02226 12.9192 2.06551 12.8151C2.10875 12.7109 2.17214 12.6163 2.25202 12.5366L6.78614 8.00116L2.25202 3.46569C2.09105 3.30468 2.00062 3.08629 2.00062 2.85858C2.00062 2.74583 2.02282 2.63419 2.06595 2.53002C2.10909 2.42585 2.17231 2.3312 2.25202 2.25147C2.33172 2.17175 2.42634 2.1085 2.53048 2.06536C2.63462 2.02221 2.74623 2 2.85895 2C3.08659 2 3.30491 2.09046 3.46588 2.25147L8 6.78694L12.5341 2.25147C12.6951 2.09046 12.9134 2 13.1411 2C13.3687 2 13.587 2.09046 13.748 2.25147C13.909 2.41249 13.9994 2.63087 13.9994 2.85858C13.9994 3.08629 13.909 3.30468 13.748 3.46569L9.21386 8.00116L13.748 12.5366Z" fill="#4C1D95"/>
</svg>
