<svg width="512.000000pt" height="512.000000pt" viewBox="0 0 32 32" fill="none" xmlns="http://www.w3.org/2000/svg">
<g clip-path="url(#clip0_609_390)">
<path d="M16 14.1144L20.8762 9.23815L17.4284 9.2391L17.4274 6.57189L25.4281 6.57189V14.5726L22.7609 14.5716L22.7618 11.1238L17.8856 16L22.7618 20.8762L22.7609 17.4283L25.4281 17.4274L25.4281 25.4281H17.4274L17.4284 22.7609L20.8762 22.7618L16 17.8856L11.1238 22.7618L14.5716 22.7609L14.5726 25.4281H6.57191L6.57191 17.4274L9.23912 17.4283L9.23817 20.8762L14.1144 16L9.23817 11.1238L9.23912 14.5716L6.57191 14.5726V6.57189L14.5726 6.57189L14.5716 9.2391L11.1238 9.23815L16 14.1144Z" fill="currentColor"/>
</g>
<defs>
<clipPath id="clip0_609_390">
<rect width="32" height="32" fill="white"/>
</clipPath>
</defs>
</svg>
